<?xml version="1.0" encoding="UTF-8" standalone="no"?>
<svg
   data-name="Layer 1"
   width="608.1569"
   height="787.14054"
   viewBox="0 0 608.1569 787.14054"
   version="1.1"
   id="svg21"
   sodipodi:docname="undraw_sentiment_analysis_jp6w.svg"
   inkscape:version="1.3.2 (091e20e, 2023-11-25, custom)"
   xmlns:inkscape="http://www.inkscape.org/namespaces/inkscape"
   xmlns:sodipodi="http://sodipodi.sourceforge.net/DTD/sodipodi-0.dtd"
   xmlns="http://www.w3.org/2000/svg"
   xmlns:svg="http://www.w3.org/2000/svg">
  <defs
     id="defs21" />
  <sodipodi:namedview
     id="namedview21"
     pagecolor="#505050"
     bordercolor="#ffffff"
     borderopacity="1"
     inkscape:showpageshadow="0"
     inkscape:pageopacity="0"
     inkscape:pagecheckerboard="1"
     inkscape:deskcolor="#505050"
     inkscape:zoom="0.75018367"
     inkscape:cx="120.63712"
     inkscape:cy="500.54408"
     inkscape:window-width="2560"
     inkscape:window-height="1377"
     inkscape:window-x="4912"
     inkscape:window-y="203"
     inkscape:window-maximized="1"
     inkscape:current-layer="svg21" />
  <title
     id="title1">sentiment_analysis</title>
  <path
     d="M904.07845,564.46705,795.18591,485.17637s-62.37534-105.72092-72.94744-173.38231S664.092,123.61083,664.092,123.61083V60.17828S609.11709,39.0341,604.88826,97.1806,616.51756,230.389,616.51756,230.389s15.85813,95.14882-20.087,119.46463L465.33665,564.46705S591.14454,679.70285,689.465,694.50378L904.07845,843.57027Z"
     transform="translate(-295.92155 -56.42973)"
     fill="#ffb8b8"
     id="path1" />
  <path
     d="M337.94294,260.51942h-3.58955c-32.34108,0-50.52044,38.18179-29.26952,62.561,6.83978,7.84664,17.23587,13.27911,32.85907,13.5581Z"
     transform="translate(-295.92155 -56.42973)"
     fill="#ffb8b8"
     id="path2" />
  <path
     d="M337.94294,336.63848h-3.58955c-32.34108,0-50.52044,38.18179-29.26952,62.561,6.83978,7.84664,17.23587,13.27911,32.85907,13.5581Z"
     transform="translate(-295.92155 -56.42973)"
     fill="#ffb8b8"
     id="path3" />
  <path
     d="M337.94294,412.75754h-3.58955c-32.34108,0-50.52044,38.18179-29.26952,62.561,6.83978,7.84664,17.23587,13.27911,32.85907,13.5581Z"
     transform="translate(-295.92155 -56.42973)"
     fill="#ffb8b8"
     id="path4" />
  <path
     d="M337.94294,488.8766h-3.58955c-32.34108,0-50.52044,38.18179-29.26952,62.561,6.83978,7.84664,17.23587,13.27911,32.85907,13.5581Z"
     transform="translate(-295.92155 -56.42973)"
     fill="#ffb8b8"
     id="path5" />
  <path
     d="M618.632,242.34469h-3.14633V156.152a49.886,49.886,0,0,0-49.88612-49.886H382.98884a49.886,49.886,0,0,0-49.88612,49.886V629.01165a49.886,49.886,0,0,0,49.88612,49.886H565.59953a49.886,49.886,0,0,0,49.88612-49.886V303.69808H618.632Z"
     transform="translate(-295.92155 -56.42973)"
     fill="#3f3d56"
     id="path6" />
  <path
     d="M604.86709,156.50059V628.66076a37.40272,37.40272,0,0,1-13.68029,28.8618,34.61684,34.61684,0,0,1-2.94959,2.16733,37.08606,37.08606,0,0,1-20.62616,6.22691H384.12183a36.8278,36.8278,0,0,1-8.82767-1.05721,37.25486,37.25486,0,0,1-28.42837-36.19883V156.50059a37.25941,37.25941,0,0,1,37.256-37.256h22.26482a17.69523,17.69523,0,0,0,16.38675,24.37924H527.38425a17.71694,17.71694,0,0,0,16.39733-24.37924h23.82947A37.25941,37.25941,0,0,1,604.86709,156.50059Z"
     fill="#6c63ff"
     id="path7"
     transform="translate(-295.92155 -56.42973)"
     style="fill:#1971c2;fill-opacity:1" />
  <ellipse
     cx="375.04228"
     cy="419.23175"
     rx="79.81929"
     ry="178.66835"
     fill="#ffb8b8"
     id="ellipse15" />
  <rect
     style="fill:#e1e1e1;stroke:#3f3d56;stroke-width:5.5"
     id="rect21"
     width="159.96083"
     height="240.60774"
     x="-15.872792"
     y="231.65143"
     rx="25"
     ry="25"
     transform="rotate(-17.316137)" />
  <rect
     style="fill:#e1e1e1;stroke:#3f3d56;stroke-width:5.5"
     id="rect22"
     width="159.96083"
     height="240.60774"
     x="176.95084"
     y="188.9866"
     rx="25"
     ry="25"
     transform="rotate(9.3475753)" />
  <path
     d="m 100.67703,234.59898 a 16.027761,16.027761 0 0 0 -14.954652,28.35339 l 28.353342,14.95459 14.95467,-28.35336 a 16.02776,16.02776 0 0 0 -28.35336,-14.95462 z"
     fill="#1971c2"
     id="path24"
     style="stroke-width:2;fill:#2f2e41;fill-opacity:1" />
  <path
     d="m 228.49859,294.60556 c -5.88117,-15.02015 -21.82033,-18.2672 -21.82033,-18.2672 0,0 -15.30791,-4.54095 -28.72935,14.69629 -12.50985,17.93071 -28.46382,34.61305 -9.03322,42.44594 l 5.48729,-10.74766 0.27527,12.5512 a 79.961306,79.961306 0 0 0 8.60641,1.55074 c 21.71483,2.81484 42.14039,7.06122 42.73832,-0.79799 0.7949,-10.44769 8.13448,-26.97894 2.47561,-41.43132 z"
     fill="#2f2e41"
     id="path27"
     style="stroke-width:0.603452" />
  <path
     d="m 190.99347,336.42464 c -0.21148,1.54862 -0.48768,3.17323 -1.4718,4.38755 -1.95083,2.40726 -5.7243,2.20156 -8.29533,3.93084 -2.70382,1.81859 -3.54991,5.34596 -4.18435,8.5421 -0.66331,3.34153 -1.32681,6.79615 -0.60944,10.12649 a 24.536116,24.536116 0 0 0 2.03908,5.32106 q 1.56422,3.27725 3.17052,6.53419 a 25.648585,25.648585 0 0 0 1.96546,3.50034 c 2.07295,2.93465 5.25299,4.88958 8.4931,6.4423 2.09341,1.0032 4.38534,1.89218 6.68066,1.54525 a 13.098896,13.098896 0 0 0 4.31988,-1.7763 c 1.83177,-1.02458 3.69275,-2.07138 5.14589,-3.58581 2.26365,-2.35915 3.31144,-5.60286 4.21217,-8.74584 a 200.86668,200.86668 0 0 0 5.95076,-28.34879 7.0921081,7.0921081 0 0 0 -0.0519,-3.1233 c -0.77101,-2.3895 -3.72005,-3.35235 -5.00577,-5.50898 -1.09927,-1.84385 -0.77843,-4.16806 -0.42228,-6.28498 l 0.90664,-5.38921 a 2.2893508,2.2893508 0 0 0 -0.0485,-1.35677 2.2555938,2.2555938 0 0 0 -1.4299,-0.97349 52.844807,52.844807 0 0 0 -10.03759,-2.3289 c -2.76753,-0.36367 -8.01394,-1.45325 -10.64451,-0.3066 -2.38776,1.0408 -0.30676,5.32603 -0.15731,7.56735 a 48.82609,48.82609 0 0 1 -0.52552,9.8315 z"
     fill="#a0616a"
     id="path28"
     style="stroke-width:0.603452" />
  <circle
     cx="248.91331"
     cy="269.93912"
     r="22.08848"
     fill="#a0616a"
     id="circle28"
     style="stroke-width:0.603452"
     transform="rotate(9.2351321)" />
  <path
     d="m 184.60724,358.9302 a 32.313262,32.313262 0 0 1 -2.32638,-7.15664 c -0.39656,-2.48308 -0.17292,-5.14965 1.12654,-7.30238 -2.13366,-1.75012 -5.51238,-1.16316 -7.57207,0.67343 -2.0597,1.8366 -3.04586,4.58707 -3.63932,7.2821 -0.59345,2.69503 -0.88201,5.48072 -1.90595,8.04328 -2.26585,5.66939 -7.9111,9.71532 -9.25051,15.67201 -1.3177,5.86012 1.90218,11.67534 2.99094,17.58228 a 28.139079,28.139079 0 0 1 -0.27481,11.08323 c -0.25764,1.17639 -0.55214,2.51702 0.1482,3.49672 a 3.9092626,3.9092626 0 0 0 1.37684,1.05839 c 9.08247,4.95565 19.44044,6.94076 29.6075,8.85929 l 16.79259,3.16877 a 5.4448902,5.4448902 0 0 0 3.05872,-0.0145 c 1.6636,-0.68158 2.20413,-2.72781 2.51834,-4.49795 2.70622,-15.2457 4.54055,-30.63081 6.37342,-46.00597 0.66433,-5.57282 1.32989,-11.1784 1.03652,-16.78301 -0.0747,-1.42714 -0.3155,-3.03984 -1.48918,-3.8552 -0.99346,-0.69015 -2.32568,-0.56452 -3.51296,-0.33299 a 28.034615,28.034615 0 0 0 -14.58179,7.86903 c -4.26053,4.36169 -6.92289,9.99199 -11.11571,14.40304 -3.04268,3.20104 -3.95361,-0.16801 -5.1597,-3.08575 q -2.09946,-5.07912 -4.20125,-10.1572 z"
     fill="#ffffff"
     id="path29"
     style="stroke-width:0.603452" />
  <path
     d="m 184.19554,344.98613 c -0.47825,0.23404 -0.95344,0.48692 -1.4137,0.76057 a 24.650464,24.650464 0 0 0 -4.7437,3.60615 34.229034,34.229034 0 0 0 -5.99351,7.90879 c -2.85879,5.0987 -4.65203,10.71303 -6.40176,16.28552 a 41.274731,41.274731 0 0 0 -1.61206,6.26739 c -1.14942,7.85882 2.30403,15.87301 1.03453,23.71842 -0.0484,0.29781 -0.1018,0.58871 -0.16809,0.88362 a 26.10573,26.10573 0 0 1 -1.07442,3.75034 c -0.63877,1.7853 -1.42256,3.52255 -2.19944,5.25483 -1.95305,4.34113 -4.02851,8.83354 -7.04702,12.43286 -0.30411,0.36629 -0.62511,0.72372 -0.95014,1.06826 l -16.67767,-2.71169 c 0.19592,-0.37776 0.39683,-0.74861 0.59276,-1.12637 q 6.31438,-11.93144 12.62186,-23.85789 c 1.28799,-2.43172 2.57793,-4.87537 3.62142,-7.42021 a 74.873008,74.873008 0 0 0 3.04601,-9.67192 q 2.66646,-10.19523 4.66662,-20.54159 c 0.4823,-2.47714 0.94939,-5.01177 2.137,-7.23971 a 24.4991,24.4991 0 0 1 3.8456,-4.92604 q 3.21398,-3.46668 6.42798,-6.9333 c 1.19333,-1.2855 2.44109,-2.60496 4.06449,-3.26418 1.35595,-0.55597 2.86575,-0.59172 4.26784,-1.01792 a 20.705531,20.705531 0 0 0 2.59955,-1.17302 c 2.16546,-1.0602 4.68206,-2.13665 6.12723,-0.45883 a 3.32733,3.32733 0 0 1 0.56213,0.90453 4.0377616,4.0377616 0 0 1 0.18154,0.50028 c 1.04256,3.73996 -5.10402,5.82188 -7.51505,7.00111 z"
     fill="#2f2e41"
     id="path30"
     style="stroke-width:0.603452" />
  <path
     d="m 225.36979,438.58797 -77.24126,-12.55896 c 0.47891,-0.31342 0.95479,-0.64566 1.42069,-0.99176 0.0692,-0.0498 0.13253,-0.10072 0.20178,-0.1506 3.45308,-2.58715 4.73917,-6.24804 6.87116,-9.99765 q 2.40436,-4.24024 4.80774,-8.47453 a 4.7258896,4.7258896 0 0 1 1.11225,-1.46375 2.6772375,2.6772375 0 0 1 1.28767,-0.51206 4.6115777,4.6115777 0 0 1 1.06739,-0.0221 11.711398,11.711398 0 0 1 1.50695,0.24502 q 20.61613,4.45254 41.12598,9.37078 2.64691,0.64134 5.29385,1.2826 c 1.28302,1.32132 2.53754,2.70525 3.71588,4.14405 3.83399,4.65847 6.95905,9.91698 8.29171,15.7461 0.16053,0.70473 0.29531,1.41749 0.38644,2.1354 0.0671,0.41443 0.1154,0.83189 0.15177,1.24745 z"
     fill="#2f2e41"
     id="path31"
     style="stroke-width:0.603452" />
  <polygon
     points="350.394,362.939 349.127,338.23 322.517,324.291 285.77,329.993 278.167,363.573 297.093,362.845 302.38,350.508 302.38,362.641 311.113,362.305 316.181,342.665 319.349,363.573 "
     fill="#2f2e41"
     id="polygon31"
     transform="matrix(0.59562977,0.09684581,-0.09684581,0.59562977,49.934017,57.430691)" />
  <path
     d="m 225.36979,438.58797 -17.44003,-2.83564 c -0.0612,-0.41346 -0.11541,-0.8319 -0.16369,-1.24937 a 94.89866,94.89866 0 0 1 -0.5077,-13.94857 c 0.0274,-1.33445 0.0797,-2.67098 0.14287,-3.99962 0.0393,-0.84343 0.0836,-1.67992 0.12889,-2.52237 0.49464,-9.35922 1.23611,-18.77002 -0.14388,-28.03054 -0.16616,-1.12138 -0.36306,-2.24164 -0.54806,-3.35998 a 38.075502,38.075502 0 0 1 -0.63731,-5.85667 c -0.0535,-4.48397 1.2524,-8.90588 1.17411,-13.38777 -0.0456,-2.50183 -0.57353,-4.7825 -0.74144,-7.09635 a 13.94473,13.94473 0 0 1 0.27609,-4.17972 8.9804291,8.9804291 0 0 1 5.01378,-1.54471 c 0.61804,-0.003 1.30966,0.0295 1.75143,-0.39385 a 2.0903566,2.0903566 0 0 0 0.47156,-1.17054 59.112207,59.112207 0 0 0 0.88403,-8.48277 c 0.0397,-0.9962 0.0496,-1.99725 0.0288,-2.99718 0.002,-0.0486 -0.003,-0.0922 -0.002,-0.14086 1.556,-0.39507 3.19495,-0.1347 4.7724,0.1279 1.7204,0.28581 3.43581,0.56472 5.15026,0.84966 q 4.75915,0.79215 9.51927,1.57838 c 2.95336,0.48627 6.00409,1.0129 8.49184,2.67072 2.56936,1.71999 4.27986,4.51087 5.23201,7.45356 0.95215,2.94269 1.22243,6.05575 1.42415,9.13931 a 11.779214,11.779214 0 0 1 -0.1099,2.55602 c -0.95945,6.7281 -7.06097,12.66904 -8.676,19.44339 -0.52205,2.19554 -0.70159,4.46513 -1.26529,6.65391 -0.56472,2.19473 -1.51481,4.27788 -1.98423,6.48811 -0.0243,0.1122 -0.0497,0.23035 -0.0681,0.34352 -0.53718,2.89006 -0.15331,5.86874 0.379,8.76151 0.82238,4.49283 1.99368,8.90788 3.2284,13.30879 1.19052,4.25923 2.43159,8.50833 3.47044,12.79792 a 20.676101,20.676101 0 0 1 0.7993,6.17647 8.281807,8.281807 0 0 1 -1.6732,4.61285 5.6577819,5.6577819 0 0 1 -0.87247,0.89136 l -0.0139,0.01 c -0.0633,0.0508 -0.12658,0.1017 -0.1889,0.14659 z"
     fill="#2f2e41"
     id="path32"
     style="stroke-width:0.603452" />
  <path
     d="m 242.97555,435.17783 a 6.6874515,6.6874515 0 0 1 -1.00824,2.17764 c -0.0414,0.0666 -0.0818,0.12732 -0.12323,0.19395 -0.47814,0.75984 -0.96031,1.50681 -1.45535,2.25778 -0.24261,0.36407 -0.48619,0.73408 -0.73572,1.10313 l -9.86363,-1.60377 a 11.185309,11.185309 0 0 0 1.18244,-1.03049 c 1.85477,-1.85658 3.14581,-4.26947 5.05747,-6.28799 a 5.4031856,5.4031856 0 0 1 0.86018,-0.74052 c 2.86119,-1.99254 7.0167,-0.81554 6.0861,3.93028 z"
     fill="#ffb8b8"
     id="path33"
     style="stroke-width:0.603452" />
  <path
     d="m 248.4028,442.333 a 11.838618,11.838618 0 0 0 0.50937,-1.13993 c 0.12279,-0.30406 0.23273,-0.60411 0.3317,-0.91205 0.65368,-2.02741 0.99347,-4.15478 1.82002,-6.11741 1.1724,-2.81123 3.82574,-5.93191 2.50434,-8.67174 a 9.4684706,9.4684706 0 0 0 3.96809,-1.05444 c 1.16975,-0.72688 2.01718,-2.17867 1.5953,-3.49447 -0.41885,-1.29697 -1.95185,-2.35935 -1.50955,-3.65081 a 3.2061388,3.2061388 0 0 1 0.7716,-1.06061 8.7680443,8.7680443 0 0 0 1.39482,-9.51855 c -0.41613,-0.86245 -0.97283,-1.64994 -1.33549,-2.54037 a 13.676297,13.676297 0 0 1 -0.72258,-3.33944 59.238558,59.238558 0 0 0 -4.98737,-16.81676 10.48303,10.48303 0 0 1 -1.16209,-3.34364 12.855965,12.855965 0 0 1 0.46263,-3.67251 c 0.90164,-4.79332 -0.13305,-9.78532 -2.06549,-14.25688 -0.14217,-0.32881 -0.29128,-0.65263 -0.44038,-0.97644 -1.90218,-4.0937 -4.47953,-7.83254 -7.04886,-11.54561 -1.37148,0.38838 -2.56018,0.59249 -3.42276,1.7239 a 6.6898653,6.6898653 0 0 0 -0.94994,2.11987 c -1.80458,5.75922 -3.50178,11.57256 -5.0372,17.40611 -0.77303,2.94953 -1.5559,5.92192 -1.70256,8.96719 -0.14666,3.04526 0.38473,6.20689 2.04864,8.75786 1.04207,1.60006 2.48176,2.89794 3.64848,4.40821 q 0.27973,0.36645 0.53868,0.74787 a 21.367928,21.367928 0 0 1 2.06599,3.87578 30.124646,30.124646 0 0 1 1.47333,18.53805 29.352354,29.352354 0 0 1 -0.99293,3.28672 14.076621,14.076621 0 0 1 -2.3204,4.26918 c -0.79295,0.92875 -1.76117,1.69451 -2.50037,2.66867 -0.7392,0.97418 -1.2232,2.25886 -0.83665,3.41607 a 7.139473,7.139473 0 0 1 2.38828,0.84073 10.578194,10.578194 0 0 1 4.06967,4.2994 15.652396,15.652396 0 0 1 0.88494,2.00247 22.597871,22.597871 0 0 1 0.78421,2.62193 c 0.0897,0.35084 0.17148,0.71261 0.24732,1.07343 a 1.0009634,1.0009634 0 0 1 0.0414,0.19627 z"
     fill="#2f2e41"
     id="path34"
     style="stroke-width:0.603452" />
  <polygon
     points="319.051,412.545 296.446,407.631 297.443,427.746 319.543,417.521 324.519,417.029 348.195,422.725 345.231,402.805 324.027,412.053 "
     fill="#1971c2"
     id="polygon34"
     transform="matrix(0.59562977,0.09684581,-0.09684581,0.59562977,49.934017,57.430691)" />
  <path
     d="m 232.13974,280.00439 0.18535,-0.49555 c 0.055,-0.14718 5.44631,-14.90309 0.25588,-30.39527 l -0.37545,-1.12051 1.12776,0.35294 c 0.32384,0.10128 7.70984,2.55096 11.20011,15.40717 0.77389,-1.74681 1.87827,-5.50596 1.43726,-12.21415 l -0.0626,-0.95501 0.88861,0.35495 c 0.2767,0.11034 6.57024,2.71702 7.87245,11.08709 l 11.71864,-7.04167 -2.30227,14.15962 c 2.9996,-0.95863 12.11162,-3.36865 16.96603,0.88654 l 0.74043,0.64937 -0.91462,0.36505 c -0.0776,0.0309 -7.36933,2.97784 -9.34781,6.83817 1.54828,0.26521 5.23704,0.91959 8.86234,1.73441 9.31096,2.09305 9.92253,3.3036 9.76477,4.27381 l -0.0553,0.33999 -0.32066,0.12517 c -0.18268,0.0715 -18.29344,7.22972 -19.90796,14.84972 l -0.16633,0.78435 z m 38.43934,-1.05725 -0.70324,-0.11434 0.22854,-0.67482 c 1.29117,-3.81565 7.04051,-6.76284 9.36141,-7.81779 -5.47798,-3.56696 -15.8173,0.22417 -15.92599,0.26471 l -0.97383,0.36378 2.2128,-13.60934 -11.08968,6.66361 -0.0994,-0.94158 c -0.69003,-6.5409 -4.57504,-9.52973 -6.35633,-10.57073 0.43411,9.70662 -2.33233,13.1015 -2.45436,13.24614 l -0.77519,0.91759 -0.27339,-1.16989 c -2.38368,-10.2084 -7.32209,-14.13421 -9.58225,-15.43937 4.11647,13.78762 0.35691,26.69261 -0.52048,29.36415 l 35.27219,18.76501 c 2.39198,-7.1709 16.57747,-13.37443 19.81077,-14.70733 -1.65718,-1.25904 -10.31971,-3.26964 -18.13153,-4.5398 z"
     fill="#1971c2"
     id="path36"
     style="display:none;stroke-width:0.603452" />
  <path
     style="fill:#1971c2;fill-opacity:1;stroke:#1971c2;stroke-width:0.648023;stroke-opacity:1"
     d="m 211.96227,286.76476 c -9.55833,-5.08875 -17.42075,-9.29286 -17.47204,-9.34248 -0.0513,-0.0496 0.065,-0.65394 0.2585,-1.34294 2.38914,-8.5085 2.62366,-17.91285 0.64801,-25.98513 -0.22776,-0.93059 -0.39495,-1.71114 -0.37153,-1.73456 0.10959,-0.10959 1.43922,0.93108 2.48766,1.94704 3.12737,3.03047 5.39826,7.40794 6.74223,12.99664 0.1831,0.76143 0.3705,1.38441 0.41644,1.38441 0.20821,0 1.12855,-1.33826 1.60218,-2.32969 1.02677,-2.14934 1.55202,-4.99637 1.66554,-9.02778 l 0.076,-2.69753 0.94525,0.71261 c 2.66191,2.00678 4.43318,5.04337 5.05983,8.67439 0.0993,0.57551 0.1814,1.21175 0.18239,1.41387 9.9e-4,0.20212 0.0408,0.42872 0.0884,0.50357 0.0579,0.091 1.87474,-0.93719 5.4852,-3.10421 2.96923,-1.78216 5.42782,-3.21107 5.46354,-3.17535 0.0357,0.0357 -0.41944,3.04454 -1.01146,6.68627 -0.59201,3.64173 -1.06186,6.63586 -1.0441,6.65362 0.0178,0.0178 0.56198,-0.15361 1.20938,-0.38082 2.98449,-1.04742 6.5387,-1.70011 9.30433,-1.70863 2.30279,-0.007 3.85931,0.25755 5.25378,0.89326 1.06673,0.48631 1.08311,0.43924 -0.43221,1.242 -4.35557,2.30743 -6.90168,4.60813 -7.82146,7.06762 -0.14813,0.39609 -0.24896,0.73572 -0.22407,0.75472 0.0249,0.019 0.92008,0.18046 1.98932,0.35879 4.61269,0.76931 10.73924,2.12951 13.82514,3.06942 1.32065,0.40225 2.99901,1.07911 2.89476,1.16743 -0.0264,0.0224 -0.68429,0.32044 -1.46191,0.66234 -9.1183,4.00905 -15.82059,8.91628 -17.80075,13.0332 -0.23058,0.4794 -0.4553,0.86905 -0.49938,0.8659 -0.0441,-0.003 -7.9006,-4.16924 -17.45894,-9.25798 z"
     id="path22" />
</svg>
