<?xml version="1.0" encoding="UTF-8" standalone="no"?>
<svg
   data-name="Layer 1"
   width="921"
   height="647.73602"
   viewBox="0 0 921 647.73602"
   version="1.1"
   id="svg41"
   sodipodi:docname="blackjack.svg"
   inkscape:version="1.3.2 (091e20e, 2023-11-25, custom)"
   xmlns:inkscape="http://www.inkscape.org/namespaces/inkscape"
   xmlns:sodipodi="http://sodipodi.sourceforge.net/DTD/sodipodi-0.dtd"
   xmlns="http://www.w3.org/2000/svg"
   xmlns:svg="http://www.w3.org/2000/svg">
  <defs
     id="defs41" />
  <sodipodi:namedview
     id="namedview41"
     pagecolor="#505050"
     bordercolor="#ffffff"
     borderopacity="1"
     inkscape:showpageshadow="0"
     inkscape:pageopacity="0"
     inkscape:pagecheckerboard="1"
     inkscape:deskcolor="#505050"
     inkscape:zoom="1.2892491"
     inkscape:cx="406.82595"
     inkscape:cy="297.45996"
     inkscape:window-width="2560"
     inkscape:window-height="1377"
     inkscape:window-x="4912"
     inkscape:window-y="203"
     inkscape:window-maximized="1"
     inkscape:current-layer="svg41" />
  <title
     id="title1">playing cards</title>
  <path
     d="M867.30078,771.82324a50.16694,50.16694,0,0,1-13.54492-1.87109L670.73145,720.96289l.5371-1.92578,183.02637,48.98926a48.16143,48.16143,0,0,0,13.00586,1.79687c21.53906,0,40.64258-12.48047,46.45606-33.21386L1044.043,271.99072h-.001l.28418-1.01123a48.28977,48.28977,0,0,0-33.42969-59.4126L716.7041,129.07129a48.29038,48.29038,0,0,0-59.46094,33.4165l-10.22168,36.46-1.92578-.54,10.22168-36.46a50.29063,50.29063,0,0,1,61.92676-34.80224l294.19238,82.4956a50.29149,50.29149,0,0,1,35.0625,60.96143l.00879.00244-.26953.96289L915.68262,737.14941C909.62793,758.74219,889.73242,771.82324,867.30078,771.82324Z"
     transform="translate(-139.5 -125.26398)"
     fill="#2f2e41"
     id="path1" />
  <polygon
     points="518.96 84.066 522.31 85.006 532.62 87.896 533.7 84.036 529.84 82.956 533.23 70.866 541.38 63.786 543.55 86.806 537.55 85.116 536.47 88.976 551.87 93.296 552.95 89.436 549.68 88.526 546.54 59.306 562.54 45.396 567.03 46.656 568.11 42.796 552.7 38.476 551.62 42.336 556.7 43.756 536.35 59.746 541.99 39.636 545.85 40.716 546.93 36.856 531.52 32.536 530.44 36.396 536.22 38.016 524.07 81.336 518.29 79.716 518.14 80.236 517.52 82.476 518.96 84.066"
     fill="#1971c2"
     id="polygon1" />
  <path
     d="M683.25,245.83A116.74372,116.74372,0,0,0,672,251.44c-.67.38-1.34.77-2,1.16V240.23a46.801,46.801,0,0,0-1.87-13.15c.58-.36,1.17-.75,1.75-1.14.53-.35,1.07-.71,1.6-1.07A134.73634,134.73634,0,0,0,683.25,245.83Z"
     transform="translate(-139.5 -125.26398)"
     fill="#1971c2"
     id="path2" />
  <polygon
     points="727.027 611.842 722.542 610.584 721.462 614.435 736.868 618.755 737.948 614.904 732.874 613.481 753.218 597.485 747.576 617.604 743.725 616.524 742.645 620.375 758.051 624.695 759.131 620.844 753.353 619.224 765.503 575.895 771.281 577.515 772.361 573.664 756.955 569.344 755.875 573.195 759.726 574.275 756.335 586.369 748.189 593.449 746.024 570.433 752.023 572.115 753.103 568.264 737.698 563.944 736.618 567.795 739.891 568.713 743.033 597.93 727.027 611.842"
     fill="#1971c2"
     id="polygon2" />
  <path
     d="M885.31538,661.93431A110.09112,110.09112,0,0,0,905.775,650.43613a169.04888,169.04888,0,0,0,11.77863,20.95862A125.77733,125.77733,0,0,0,897.094,682.89294,135.22416,135.22416,0,0,0,885.31538,661.93431Z"
     transform="translate(-139.5 -125.26398)"
     fill="#1971c2"
     id="path3" />
  <path
     d="M750.397,453.726s-5.05855,32.85439-6.56141,34.51011,10.50007,40.333,10.50007,40.333l38.48867-22.44154s7.48855-41.52013,9.95427-42.90585S750.397,453.726,750.397,453.726Z"
     transform="translate(-139.5 -125.26398)"
     fill="#ffb8b8"
     id="path4" />
  <path
     d="M750.397,453.726s-5.05855,32.85439-6.56141,34.51011,10.50007,40.333,10.50007,40.333l38.48867-22.44154s7.48855-41.52013,9.95427-42.90585S750.397,453.726,750.397,453.726Z"
     transform="translate(-139.5 -125.26398)"
     opacity="0.1"
     id="path5" />
  <circle
     cx="640.67419"
     cy="322.27193"
     r="38"
     fill="#ffb8b8"
     id="circle5" />
  <path
     d="M763.7042,506.27039l-3.31144-3.00572-14.8847-21.18423s-1.70823-1.12439-3.32823,4.65277l-1.62,5.77716-13.98432,5.42575-30.94282,132.569,82.806,23.22,34.1014-132.72187-16.01721-16.95432-1.77345-8.1795-24.72806,10.09525Z"
     transform="translate(-139.5 -125.26398)"
     fill="#fff"
     id="path6" />
  <path
     d="M670,644.09l2,.56,128.96,36.16,43.12-142.65s-10.2-8.06-18.18-9.26c0,0-13.4-15.18-19.17-16.8-5.78-1.62-12.17-15.87-12.17-15.87s-6.75,24.07-18.35,39.51-31.8,68.98-31.8,68.98l-5.7-98.19,6.4-24.69a45.464,45.464,0,0,0-10.06,8.09c-4.51,4.96-16.02,9-16.02,9s-30.32,8.12-35.68,8.7c-5.35.57-7.82,1.96-7.82,1.96L672,533.88l-2,13.76Z"
     transform="translate(-139.5 -125.26398)"
     fill="#2f2e41"
     id="path7" />
  <path
     d="M687.6,588.79c-1.2,7.97-13.54,40.86-13.54,40.86L672,631.72l-2,2.01V511.92a5.61755,5.61755,0,0,1,2-1.39,13.71966,13.71966,0,0,1,3.53-.94l3.86,1.08S688.8,580.81,687.6,588.79Z"
     transform="translate(-139.5 -125.26398)"
     fill="#2f2e41"
     id="path8" />
  <path
     d="M775.44293,631.07505s18.92574-34.1587,33.25151-25.98726-8.64,30.81153-8.64,30.81153Z"
     transform="translate(-139.5 -125.26398)"
     fill="#ffb8b8"
     id="path9" />
  <path
     d="M716.86131,617.76364s-36.31869-11.22286-37.12869-8.33428-10.7543,19.83293-7.86572,20.64293,25.30437,6.05714,25.03437,7.02,10.74432,6.12858,10.74432,6.12858Z"
     transform="translate(-139.5 -125.26398)"
     fill="#ffb8b8"
     id="path10" />
  <polygon
     points="648.165 384.489 625.05 385.398 620.236 384.048 600.963 371.253 594.58 390.355 618.886 388.862 623.7 390.212 643.686 404.125 648.165 384.489"
     fill="#1971c2"
     id="polygon10" />
  <polygon
     points="586.05 528.176 582.5 535.736 531.5 521.736 530.5 518.826 530.5 502.796 532.5 503.576 534.56 504.386 586.05 528.176"
     fill="#2f2e41"
     id="polygon11" />
  <path
     d="M727.45278,620.73364s-11.97719-5.43572-12.24719-4.47286-16.34288,28.65153-12.49144,29.73153,17.48435,8.01858,17.48435,8.01858Z"
     transform="translate(-139.5 -125.26398)"
     fill="#fff"
     id="path11" />
  <path
     d="M837.34017,536.26612l6.74,1.89s3.85144,1.08,4.15716,7.39716,5.53292,35.82439,3.06719,37.21011-3.15858.15287-1.77286,2.61859,2.61859,1.77286,1.11573,3.42858S845.696,643.505,834.51886,661.14222s-14.57,26.033-18.42146,24.953L716.267,658.10129s4.44578-39.25765,8.56722-39.14051S796.473,633.85646,796.473,633.85646,822.62726,533.179,837.34017,536.26612Z"
     transform="translate(-139.5 -125.26398)"
     fill="#2f2e41"
     id="path12" />
  <path
     d="M757.78487,405.88642l-6.2345-4.47128s18.58634-10.44541,38.42854-3.51981l-4.08748-7.273S801.192,389.46685,810.09806,406.26c4.68172,8.82778,10.06253,19.17007,12.26158,29.73748l7.43484,2.08484-4.84329,5.33591,9.12032,9.25151-10.83473-4.24064a32.524,32.524,0,0,1-5.56145,15.77732l-4.47115,6.23443s-4.43484-23.02763-3.72693-25.55215l-1.76976,6.31126s-5.34963-7.62685-4.28778-11.41359l-5.02557,3.356.05338-7.47333-25.2984.39427,5.37951-4.61825-15.0468-2.17709,7.627-5.34958s-18.70994,3.60324-21.28794,10.36864c-2.57778,6.76535-13.26,13.30046-13.26,13.30046l-2.017-7.37311S736.82762,410.22094,757.78487,405.88642Z"
     transform="translate(-139.5 -125.26398)"
     fill="#2f2e41"
     id="path13" />
  <polygon
     points="720.272 575.155 719.31 574.885 530.809 522.027 531.348 520.101 718.887 572.69 837.418 149.994 573.112 75.88 532.799 219.645 530.873 219.105 571.728 73.414 572.689 73.684 839.883 148.609 839.613 149.571 720.272 575.155"
     fill="#2f2e41"
     id="polygon19" />
  <path
     d="M181.134,739.11671c12.42842,23.049,38.806,32.94351,38.806,32.94351s6.22712-27.47543-6.2013-50.52448-38.806-32.94351-38.806-32.94351S168.70559,716.06766,181.134,739.11671Z"
     transform="translate(-139.5 -125.26398)"
     fill="#2f2e41"
     id="path20" />
  <path
     d="M189.67653,731.53374c22.43841,13.49969,31.08016,40.3138,31.08016,40.3138s-27.73812,4.92678-50.17653-8.57291S139.5,722.96083,139.5,722.96083,167.23811,718.034,189.67653,731.53374Z"
     transform="translate(-139.5 -125.26398)"
     fill="#1971c2"
     id="path21" />
  <path
     d="M669.88,225.94a49.004,49.004,0,0,0-8.07-15.67,49.78347,49.78347,0,0,0-4.17-4.77A49.1065,49.1065,0,0,0,622.77,191H317.23A49.28,49.28,0,0,0,268,240.23V723.77A49.28,49.28,0,0,0,317.23,773H622.77A49.28,49.28,0,0,0,672,723.77V240.23A48.87057,48.87057,0,0,0,669.88,225.94ZM670,723.77A47.287,47.287,0,0,1,622.77,771H317.23A47.287,47.287,0,0,1,270,723.77V240.23A47.287,47.287,0,0,1,317.23,193H622.77a47.1127,47.1127,0,0,1,34.25,14.74q.735.78,1.44,1.59A47.12039,47.12039,0,0,1,670,240.23Z"
     transform="translate(-139.5 -125.26398)"
     fill="#2f2e41"
     id="path22" />
  <path
     d="M316.74192,268.70949c-.05549-.13036-.12411-.24888-.18511-.37428a30.29407,30.29407,0,0,0,3.31465-14.268c0-15.50156-9.68724-26.32821-23.55682-26.32821s-23.55683,10.82665-23.55683,26.32821,9.68724,26.32822,23.55683,26.32822a22.22629,22.22629,0,0,0,17.29565-7.72327c4.441,7.1861,13.026,8.13425,13.4215,8.17389l.46821-4.59553C327.177,276.21579,319.55571,275.324,316.74192,268.70949Zm-20.42728,7.06695c-11.15052,0-18.93784-8.92718-18.93784-21.70923s7.78732-21.70922,18.93784-21.70922,18.93783,8.92718,18.93783,21.70922a26.09216,26.09216,0,0,1-2.11,10.6067c-6.8942-4.18866-19.72068-1.68577-21.46035-1.31911l.95,4.5202c4.7114-.98649,14.08441-1.77779,18.16441.78194A17.66814,17.66814,0,0,1,296.31464,275.77644Z"
     transform="translate(-139.5 -125.26398)"
     fill="#1971c2"
     id="path23" />
  <path
     d="M298,291.382a8.01388,8.01388,0,0,0-11.33333,11.33334L298,314.04863l11.33333-11.33333A8.01388,8.01388,0,0,0,298,291.382Z"
     transform="translate(-139.5 -125.26398)"
     fill="#1971c2"
     id="path24" />
  <path
     d="M623.25808,698.38777c.05549.13036.12411.24888.18511.37428a30.294,30.294,0,0,0-3.31465,14.268c0,15.50157,9.68724,26.32822,23.55682,26.32822s23.55683-10.82665,23.55683-26.32822-9.68724-26.32821-23.55683-26.32821a22.22629,22.22629,0,0,0-17.29565,7.72327c-4.441-7.1861-13.026-8.13425-13.4215-8.17389L612.5,690.84674C612.823,690.88147,620.44429,691.77324,623.25808,698.38777Zm20.42728-7.067c11.15052,0,18.93784,8.92719,18.93784,21.70923s-7.78732,21.70923-18.93784,21.70923-18.93783-8.92718-18.93783-21.70923a26.09214,26.09214,0,0,1,2.11-10.60669c6.8942,4.18866,19.72068,1.68577,21.46035,1.31911l-.95-4.5202c-4.7114.98649-14.08441,1.77779-18.16441-.78194A17.66812,17.66812,0,0,1,643.68536,691.32081Z"
     transform="translate(-139.5 -125.26398)"
     fill="#1971c2"
     id="path25" />
  <path
     d="M642,675.71529A8.01387,8.01387,0,0,0,653.33333,664.382L642,653.04863,630.66667,664.382A8.01387,8.01387,0,0,0,642,675.71529Z"
     transform="translate(-139.5 -125.26398)"
     fill="#1971c2"
     id="path26" />
  <path
     d="M494.64587,465.71115c-13.61413-23.00368-40.54861-24.07575-40.54861-24.07575s-26.24611-3.35633-43.08283,31.67855c-15.69316,32.65539-37.35172,64.18483-3.48685,71.82921l6.117-19.03877,3.78821,20.45619a132.50656,132.50656,0,0,0,14.48952.24764c36.26655-1.1709,70.805.34257,69.69287-12.67139C500.13683,516.83661,507.7454,487.84528,494.64587,465.71115Z"
     transform="translate(-139.5 -125.26398)"
     fill="#2f2e41"
     id="path27" />
  <path
     d="M444.42215,544.08708c.06586,2.58925.04615,5.32-1.2405,7.56794-2.55068,4.45626-8.77746,5.12336-12.52288,8.63562-3.93886,3.69364-4.38469,9.68822-4.57241,15.08473-.19626,5.642-.36277,11.469,1.6963,16.7255A40.65962,40.65962,0,0,0,432.533,600.262q3.43009,4.94445,6.92363,9.84448a42.50313,42.50313,0,0,0,4.14572,5.20265c4.17109,4.24877,9.89244,6.60062,15.60508,8.27864,3.6909,1.08416,7.67613,1.92868,11.3382.7508a21.70662,21.70662,0,0,0,6.59342-4.05429c2.72367-2.163,5.48919-4.37013,7.46327-7.23368,3.07515-4.46076,3.9263-10.045,4.56372-15.42537a332.8629,332.8629,0,0,0,2.19408-47.95141,11.75257,11.75257,0,0,0-.91547-5.09484c-1.89659-3.70333-6.97627-4.49394-9.65283-7.6795-2.28838-2.72357-2.38171-6.61049-2.36218-10.16775l.0497-9.056a3.79376,3.79376,0,0,0-.44011-2.20632,3.73782,3.73782,0,0,0-2.59772-1.212,87.5709,87.5709,0,0,0-17.03739-1.13982c-4.62344.14128-13.49452-.24571-17.49227,2.3294-3.62874,2.33741.91468,8.79312,1.75522,12.4194A80.91135,80.91135,0,0,1,444.42215,544.08708Z"
     transform="translate(-139.5 -125.26398)"
     fill="#a0616a"
     id="path28" />
  <circle
     cx="315.53427"
     cy="366.66826"
     r="36.60356"
     fill="#a0616a"
     id="circle28" />
  <path
     d="M439.9618,582.5968a53.54739,53.54739,0,0,1-5.70845-11.0871c-1.309-3.956-1.65238-8.37707-.09939-12.24377-3.95536-2.29515-9.32568-.43652-12.20618,3.11528s-3.76206,8.31289-4.016,12.87886.01525,9.19913-.9784,13.6629c-2.19838,9.87576-10.35606,17.99484-10.9627,28.09413-.59681,9.93558,6.21635,18.59093,9.56811,27.9631a46.63021,46.63021,0,0,1,2.49807,18.20141c-.1086,1.99268-.23372,4.2638,1.17235,5.68a6.47817,6.47817,0,0,0,2.53351,1.365c16.17372,5.69027,33.6437,6.18254,50.78371,6.61669l28.30959.71707a9.02291,9.02291,0,0,0,4.99916-.83715c2.53981-1.55726,2.87974-5.04794,2.92292-8.02684.37188-25.65639-.71942-51.30895-1.81047-76.94483-.39546-9.29189-.79763-18.63767-2.768-27.72684-.50174-2.31446-1.32449-4.88824-3.46107-5.90975-1.8085-.86464-3.95412-.30484-5.83455.38962a46.4571,46.4571,0,0,0-21.758,16.749c-5.80877,8.26728-8.66611,18.18454-14.351,26.51457-4.12547,6.045-6.51143.77665-9.26012-3.675Q444.7501,590.34382,439.9618,582.5968Z"
     transform="translate(-139.5 -125.26398)"
     fill="#fff"
     id="path29" />
  <path
     d="M435.58,559.8986c-.72.51-1.43,1.05-2.11005,1.62a40.84911,40.84911,0,0,0-6.8,7.16,56.72208,56.72208,0,0,0-7.7,14.53c-3.32,9.1-4.76,18.76-6.13995,28.34a68.39774,68.39774,0,0,0-.97,10.68c.21,13.16,7.99,25.35,8,38.52,0,.5-.01.99-.04,1.49a43.26068,43.26068,0,0,1-.76,6.42c-.57,3.09-1.39,6.14-2.2,9.18-2.04,7.62-4.24,15.52-8.22,22.21-.4.68-.83,1.35-1.27,2h-28c.22-.67.45-1.33.67-2q7.155-21.195,14.30005-42.38c1.46-4.32,2.92-8.66,3.95-13.1a124.07457,124.07457,0,0,0,2.41-16.63q1.65-17.385,2.17-34.84c.13-4.18.22-8.45,1.57-12.41a40.59828,40.59828,0,0,1,4.98-9.08q4.335-6.52506,8.67005-13.05c1.61-2.42,3.3-4.91,5.78-6.42,2.07-1.27,4.53-1.73,6.71-2.8a34.31183,34.31183,0,0,0,3.94-2.61c3.26-2.31,7.09-4.74,9.9-2.38a5.51383,5.51383,0,0,1,1.16,1.33,6.69111,6.69111,0,0,1,.43.77C448.71,552.28862,439.21,557.3286,435.58,559.8986Z"
     transform="translate(-139.5 -125.26398)"
     fill="#2f2e41"
     id="path30" />
  <path
     d="M527.82,702.04863H398.14c.7-.64,1.39-1.31,2.06-2,.1-.1.19-.2.29-.3,4.96-5.15,6.09-11.48,8.58-18.18005q2.805-7.575,5.61-15.14a7.83143,7.83143,0,0,1,1.43-2.69,4.43654,4.43654,0,0,1,1.97-1.18,7.642,7.642,0,0,1,1.74-.32,19.40735,19.40735,0,0,1,2.53,0q34.905,1.8,69.76,4.39,4.5.34506,9,.69c2.45,1.82,4.87,3.75,7.18,5.79,7.51,6.6,14.02,14.37,17.75,23.55.45,1.11.86,2.24,1.2,3.39C527.46,700.7086,527.65,701.37859,527.82,702.04863Z"
     transform="translate(-139.5 -125.26398)"
     fill="#2f2e41"
     id="path31" />
  <polygon
     points="349.127 338.23 322.517 324.291 285.77 329.993 278.167 363.573 297.093 362.845 302.38 350.508 302.38 362.641 311.113 362.305 316.181 342.665 319.349 363.573 350.394 362.939 349.127 338.23"
     fill="#2f2e41"
     id="polygon31" />
  <path
     d="M527.82,702.04863H498.54c-.21-.66-.41-1.33-.6-2a157.25975,157.25975,0,0,1-4.54-22.68c-.31-2.19-.58-4.39-.83-6.58-.16-1.39-.31-2.77-.46-4.16-1.68-15.44-2.97-31.03-7.69-45.81-.57-1.79-1.19-3.57-1.79-5.35a63.09619,63.09619,0,0,1-2.6-9.41c-1.28-7.32-.32-14.9-1.64-22.21-.74-4.08-2.21-7.67-3.1-11.41a23.10828,23.10828,0,0,1-.66-6.91,14.88177,14.88177,0,0,1,7.79-3.86c1.01-.17,2.15-.3,2.76-1.11a3.464,3.464,0,0,0,.46-2.04,97.95682,97.95682,0,0,0-.81-14.11c-.2-1.64-.45-3.28-.75-4.91-.01-.08-.03-.15-.04-.23,2.44-1.06,5.19-1.07,7.84-1.06,2.89.01,5.77.01,8.65.02q7.995.03,15.99.05c4.96.01,10.09.06,14.6,2.11,4.66,2.13,8.2,6.24,10.54,10.8s3.61,9.58,4.76,14.57a19.51973,19.51973,0,0,1,.5,4.21c.22,11.26-8.18,22.6-9.02,34.11-.27,3.73.04,7.49-.3,11.22-.34,3.74-1.34,7.4-1.52,11.14-.01.19-.02.39-.02.58-.11,4.87,1.31,9.64,2.95,14.23,2.54,7.13,5.63,14.04,8.82,20.91,3.08,6.65,6.24,13.27,9.08,20.01a34.26306,34.26306,0,0,1,2.95,9.89,13.72406,13.72406,0,0,1-1.51,7.99,9.3757,9.3757,0,0,1-1.19,1.69l-.02.02c-.09.1-.18.2-.27.29H527.82Z"
     transform="translate(-139.5 -125.26398)"
     fill="#2f2e41"
     id="path32" />
  <path
     d="M555.71,691.78862a11.082,11.082,0,0,1-1.07,3.83c-.05.12-.1.23-.15.35-.58,1.37-1.17,2.72-1.78,4.08-.3.66-.6,1.33-.91,2H535.24a18.53555,18.53555,0,0,0,1.66-2c2.54-3.53,4.01-7.82,6.6-11.63a8.9538,8.9538,0,0,1,1.21-1.44C548.86,682.9586,555.97,683.77861,555.71,691.78862Z"
     transform="translate(-139.5 -125.26398)"
     fill="#ffb8b8"
     id="path33" />
  <path
     d="M566.49,702.04863a19.61817,19.61817,0,0,0,.53-2c.12-.53.22-1.05.3-1.58.53-3.49.52-7.06,1.35-10.49,1.17-4.91,4.68-10.72,1.79-14.85a15.69052,15.69052,0,0,0,6.21-2.78c1.72-1.5,2.72-4.1,1.68-6.14-1.03-2.01-3.82-3.34-3.44-5.57a5.313,5.313,0,0,1,.98-1.94,14.52982,14.52982,0,0,0-.25-15.94c-.91-1.3-2.03-2.44-2.86-3.8a22.66345,22.66345,0,0,1-2.07-5.27,98.1662,98.1662,0,0,0-12.63-26.18,17.37178,17.37178,0,0,1-2.79-5.16,21.30405,21.30405,0,0,1-.22-6.13c.2-8.08-2.82-15.97-7.17-22.77-.32-.5-.65-.99-.98-1.48-4.2-6.19-9.41-11.62-14.6-17.01-2.14,1-4.03,1.65-5.14,3.73a11.086,11.086,0,0,0-.99,3.72c-1.42,9.9-2.65,19.86-3.61,29.81-.48,5.03-.97,10.1-.4,15.12s2.28,10.05,5.68,13.78c2.13,2.34,4.83,4.08,7.14,6.24q.555.525,1.08,1.08a35.40951,35.40951,0,0,1,4.41,5.79,49.92056,49.92056,0,0,1,7.34,29.93,48.64077,48.64077,0,0,1-.75,5.64,23.32684,23.32684,0,0,1-2.66,7.6c-1.05,1.73-2.43,3.24-3.38,5.03s-1.4,4.02-.46,5.81a11.83106,11.83106,0,0,1,4.13.74,17.52948,17.52948,0,0,1,7.8,5.95,25.93811,25.93811,0,0,1,1.98,3.04,37.44769,37.44769,0,0,1,1.98,4.08c.24.55.47,1.12.69,1.69a1.65873,1.65873,0,0,1,.12.31Z"
     transform="translate(-139.5 -125.26398)"
     fill="#2f2e41"
     id="path34" />
  <polygon
     points="345.231 402.805 324.027 412.053 319.051 412.545 296.446 407.631 297.443 427.746 319.543 417.521 324.519 417.029 348.195 422.725 345.231 402.805"
     fill="#1971c2"
     id="polygon34" />
  <path
     d="M527.24,700.04863c.22.66.41,1.33.58,2h7.42a18.53555,18.53555,0,0,0,1.66-2Zm-195.99-439v441h276.5v-441Zm274.5,439H333.25v-437h272.5Zm-78.51,0c.22.66.41,1.33.58,2h7.42a18.53555,18.53555,0,0,0,1.66-2Z"
     transform="translate(-139.5 -125.26398)"
     fill="#2f2e41"
     id="path35" />
  <rect
     x="12"
     y="645.28465"
     width="909"
     height="2"
     fill="#3f3d56"
     id="rect41" />
  <path
     style="fill:#ffffff;stroke:none;stroke-width:4.26605"
     d="m 165.30843,643.72536 c -11.7666,-3.16475 -23.62841,-12.81992 -28.98993,-23.59696 -5.70272,-11.46285 -5.23445,12.07098 -5.23445,-263.06854 0,-175.97023 0.24559,-249.19922 0.84552,-252.11566 0.46504,-2.26067 2.24942,-7.050229 3.96529,-10.643457 2.45937,-5.150199 4.37381,-7.777901 9.04396,-12.413485 6.05441,-6.009605 11.2421,-9.127789 20.27362,-12.185949 4.09735,-1.387402 10.52321,-1.453051 162.49769,-1.660141 176.12328,-0.239996 164.74525,-0.564322 176.4283,5.02901 4.41724,2.114784 7.26185,4.258873 12.0225,9.061813 6.7304,6.790199 10.01528,12.388072 12.56744,21.416649 1.37002,4.84656 1.42376,14.64829 1.38858,253.24819 -0.0342,231.91015 -0.1239,248.53117 -1.3663,253.15173 -4.31875,16.06169 -17.88294,29.73641 -33.54171,33.815 -4.01549,1.0459 -23.46048,1.17947 -165.14093,1.13444 -137.5273,-0.0437 -161.18838,-0.21212 -164.75958,-1.17264 z M 514.7815,611.93503 c 15.35771,-7.45977 18.06728,-32.95327 4.77284,-44.90611 -8.28825,-7.45185 -21.07644,-7.91661 -29.60565,-1.07597 l -2.97388,2.38512 -2.45563,-2.32905 c -2.66967,-2.53205 -5.89753,-4.32135 -9.24254,-5.12341 -1.7689,-0.42415 -2.13302,-0.25495 -2.13302,0.99117 0,0.82645 -0.189,1.99516 -0.42,2.59713 -0.28819,0.75101 0.50982,1.37307 2.54287,1.98218 1.62957,0.48823 4.14018,2.10239 5.57913,3.58701 l 2.61627,2.6993 -1.47482,4.49578 c -3.15085,9.60487 -1.23891,22.30637 4.38387,29.12328 6.55134,7.94267 18.64771,10.31573 28.41056,5.57357 z M 468.48975,356.409 V 135.3501 H 330.03706 191.58438 V 356.409 577.46791 h 138.45268 138.45269 z m 31.54638,195.84496 c 1.6532,-0.69076 3.15019,-0.89316 3.6594,-0.49478 3.4872,2.72823 9.79178,0.9947 11.81537,-3.2488 2.19971,-4.61285 1.1114,-7.10683 -6.32666,-14.49816 l -6.61499,-6.57343 -6.95636,7.06252 c -6.3752,6.47248 -6.95637,7.31668 -6.95637,10.10471 0,3.66319 1.68142,6.28095 4.9473,7.70234 3.07757,1.33943 3.09678,1.33927 6.43231,-0.0544 z M 163.43463,184.79749 c 6.32764,-5.94466 8.75862,-9.56642 8.75862,-13.04892 0,-5.91926 -6.349,-10.06488 -11.48804,-7.50118 -1.9008,0.94824 -2.56446,0.96529 -4.11513,0.10574 -4.10524,-2.27557 -9.40542,-0.34889 -11.26168,4.09376 -1.8602,4.45208 -0.78337,6.90291 6.16163,14.02366 3.43262,3.51949 6.54915,6.39907 6.92562,6.39907 0.37647,0 2.63501,-1.83246 5.01898,-4.07213 z m 0.59831,-30.40044 c 2.0465,-0.61591 5.08054,-2.21246 6.7423,-3.54789 l 3.02139,-2.42806 2.82622,2.48146 c 3.06797,2.6937 7.01894,4.61432 9.49233,4.61432 1.68547,0 3.29968,-3.95503 1.81605,-4.44958 -3.02738,-1.00913 -7.74703,-4.02999 -9.01335,-5.7691 -1.45383,-1.99662 -1.4606,-2.19903 -0.18057,-5.39815 3.97564,-9.93608 1.66551,-23.4507 -5.26433,-30.79724 -4.35729,-4.6193 -9.32109,-6.63977 -16.40481,-6.67746 -5.26807,-0.028 -6.87568,0.29571 -10.64515,2.14371 -8.84753,4.33753 -13.21992,12.33755 -13.21992,24.18806 0,8.28266 1.80588,13.86372 6.11477,18.89769 5.81594,6.79462 15.63795,9.47404 24.71507,6.74224 z"
     id="path47" />
  <path
     style="fill:#ffffff;stroke:none;stroke-width:4.26605"
     d="m 149.31172,148.24332 c -4.64071,-2.18845 -6.77304,-4.36755 -8.83096,-9.02466 -5.02734,-11.37693 -1.23537,-24.78428 8.38831,-29.65877 7.31948,-3.70739 14.42905,-2.52916 20.35717,3.37366 5.42232,5.39919 7.51469,14.46639 5.23381,22.68054 -0.77021,2.77378 -0.97006,2.9339 -2.90434,2.32694 -2.47403,-0.77633 -18.39857,-0.88072 -19.15188,-0.12555 -0.28874,0.28945 -0.30238,1.53977 -0.0303,2.77849 l 0.49467,2.25222 6.1178,-0.35416 c 3.36479,-0.19478 7.44629,-0.10492 9.06999,0.19968 l 2.9522,0.55384 -2.82463,2.58858 c -4.96257,4.54786 -12.33965,5.48962 -18.87183,2.40919 z"
     id="path48" />
  <path
     style="fill:#ffffff;stroke:none;stroke-width:4.26605"
     d="m 715.92059,642.67172 c -6.85828,-1.75957 -179.70759,-47.99866 -181.69491,-48.60539 -1.26674,-0.38674 -1.35738,-2.76745 -1.35738,-35.654 0,-19.38177 0.18673,-35.23959 0.41496,-35.23959 0.3824,0 40.06176,11.09413 134.93514,37.72714 20.47704,5.74833 40.46918,11.35277 44.42699,12.45429 3.9578,1.10152 7.42092,1.77785 7.69581,1.50296 1.03887,-1.03886 119.73618,-425.80011 119.142,-426.35255 -1.20258,-1.1181 -267.27793,-75.294873 -267.8529,-74.672321 -0.31987,0.346328 -7.81776,26.458671 -16.662,58.027441 -8.84423,31.56876 -17.41101,62.10979 -19.03727,67.86896 l -2.95684,10.47121 -0.0529,-41.92891 -0.053,-41.92891 5.42952,-2.62663 c 2.98623,-1.44465 5.42952,-2.90146 5.42952,-3.23736 0,-0.33591 -1.19763,-2.48294 -2.66139,-4.77117 -1.46377,-2.28823 -3.97766,-6.82053 -5.58642,-10.07179 -1.60876,-3.25125 -3.34475,-6.010624 -3.85774,-6.131935 -0.513,-0.121311 -2.51484,-3.303651 -4.44853,-7.07186 -1.9337,-3.768209 -3.03588,-6.667129 -2.4493,-6.442037 3.01147,1.155611 7.49418,2.060471 8.16224,1.647587 1.20309,-0.743549 0.90605,-4.254988 -0.35994,-4.254988 -1.99411,0 -2.08753,-1.427226 -0.45274,-6.916531 1.35017,-4.533635 2.19075,-5.908654 5.27265,-8.624971 l 3.66641,-3.231491 0.50291,4.538714 c 0.2766,2.496292 0.74226,7.394637 1.0348,10.885213 l 0.5319,6.346493 -2.77935,-0.853001 c -3.13657,-0.962645 -3.1595,-0.951802 -3.81896,1.804865 -0.47115,1.969456 -0.32169,2.052861 7.37935,4.117924 6.30332,1.690271 7.98777,1.906645 8.50416,1.092411 1.02477,-1.615848 0.7697,-3.730109 -0.45,-3.730109 -0.61473,0 -1.30631,-0.305193 -1.53685,-0.678209 -0.23053,-0.373015 -0.9531,-5.695881 -1.60571,-11.82859 -0.6526,-6.13271 -1.37526,-12.38471 -1.60591,-13.893333 -0.4081,-2.669278 -0.20817,-2.92647 7.44349,-9.575554 7.37071,-6.404949 8.02862,-6.801504 10.51139,-6.335734 2.03416,0.38161 2.64854,0.233542 2.64854,-0.638308 0,-0.624347 0.19361,-1.639714 0.43024,-2.256373 0.64194,-1.672866 -15.01035,-5.932468 -16.00822,-4.356466 -1.23116,1.944463 -0.75026,3.485736 1.3203,4.231498 1.9677,0.708713 1.75908,0.943051 -6.70696,7.53366 -4.80581,3.741207 -8.87798,6.662048 -9.04927,6.490758 -0.24892,-0.248922 1.81176,-8.365991 4.08497,-16.090794 0.25116,-0.853457 0.97044,-1.131165 2.28096,-0.880644 1.47908,0.282745 2.07378,-0.05095 2.61662,-1.468207 0.38638,-1.008763 0.47719,-2.060784 0.20181,-2.337824 -0.7483,-0.752802 -15.04026,-4.512032 -15.67129,-4.122035 -0.2997,0.185224 -0.70533,1.17599 -0.90141,2.201702 -0.30449,1.592837 0.0605,1.98987 2.50166,2.721259 l 2.85817,0.856327 -5.70312,20.365651 c -3.13671,11.201107 -5.8538,20.775734 -6.03798,21.27694 -0.47252,1.285942 -5.67685,-0.297266 -8.18471,-2.489879 -1.06652,-0.932444 -3.19761,-2.529398 -4.73577,-3.548786 l -2.79666,-1.853433 5.66522,-19.982958 c 3.45503,-12.186918 6.66133,-21.870309 8.21846,-24.820649 3.71035,-7.030117 12.72915,-15.762938 20.02069,-19.3858576 7.73541,-3.8434667 13.60286,-5.2307869 22.12277,-5.2307869 8.14603,0 6.57869,-0.3749479 53.50264,12.7992005 18.77062,5.269949 52.97657,14.86515 76.01324,21.322668 65.78139,18.439496 116.85793,32.763267 149.69954,41.981339 17.03575,4.78164 32.62198,9.60952 35.67968,11.051887 11.02382,5.200096 19.96584,15.163357 24.33656,27.115957 1.80932,4.94796 2.03448,6.68601 2.02726,15.64953 l -0.008,10.08339 -7.60879,26.75976 c -4.18483,14.71787 -20.87086,74.05473 -37.08007,131.8597 -16.20921,57.80496 -39.06416,139.30589 -50.78878,181.11317 -11.72462,41.80728 -24.83598,88.57869 -29.13636,103.93647 -4.86967,17.39089 -8.78657,29.85449 -10.38444,33.04338 -5.08419,10.14656 -14.63371,18.12006 -26.4914,22.11935 -8.25532,2.7843 -19.85529,3.24648 -28.13919,1.12116 z m 42.67108,-18.47119 c 0.006,-0.31995 0.20947,-1.32277 0.45254,-2.22847 0.37508,-1.39758 0.0214,-1.72563 -2.33753,-2.16817 -1.52871,-0.28679 -2.77947,-0.67507 -2.77947,-0.86284 0,-0.29049 10.1368,-36.84465 11.35518,-40.94774 0.34771,-1.17097 0.92842,-1.32777 3.38208,-0.91323 2.58642,0.43698 3.03017,0.2866 3.4973,-1.18521 0.29427,-0.92714 0.23857,-1.96101 -0.12376,-2.2975 -0.72707,-0.67522 -15.07427,-4.88072 -15.37661,-4.50725 -0.10397,0.12843 -0.41733,1.18555 -0.69638,2.34915 -0.43589,1.81764 -0.22625,2.18618 1.48844,2.61654 1.09769,0.2755 1.83784,0.91253 1.64478,1.41562 -0.19306,0.5031 -0.96199,3.09221 -1.70872,5.75359 -1.1068,3.94459 -2.0044,5.40809 -4.85683,7.9189 -1.92451,1.69402 -3.62983,2.94931 -3.78962,2.78954 -0.15977,-0.15978 -0.73788,-4.87496 -1.28468,-10.47818 l -0.99419,-10.18767 3.14977,0.19147 c 2.84427,0.17292 3.17116,0.003 3.37034,-1.74763 0.20855,-1.83345 -0.19296,-2.05203 -7.36863,-4.01146 -4.17406,-1.13978 -7.81175,-1.83786 -8.08376,-1.55129 -0.272,0.28658 -0.72814,1.29477 -1.01362,2.24042 -0.41445,1.37282 -0.15379,1.81104 1.29322,2.17422 1.73743,0.43607 1.86783,0.98992 3.15642,13.40572 0.73927,7.12298 1.33973,13.66966 1.33435,14.54817 -0.006,1.0535 -2.65677,3.8833 -7.78479,8.31193 -7.13885,6.16521 -7.94097,6.65153 -9.80313,5.94353 -2.41457,-0.91802 -2.61125,-0.77831 -2.81751,2.00142 -0.15404,2.07605 0.0758,2.20761 7.4573,4.26963 l 7.61622,2.12758 0.75202,-1.97796 c 0.77135,-2.0288 -0.047,-3.23167 -2.21677,-3.25825 -0.53326,-0.007 -0.96956,-0.30084 -0.96956,-0.65402 0,-0.67378 17.1332,-14.28466 17.50869,-13.90917 0.11909,0.11909 -0.89205,4.14734 -2.247,8.95165 -2.42272,8.59039 -2.49732,8.72774 -4.50221,8.28995 -1.72785,-0.37729 -2.11794,-0.12934 -2.55859,1.62638 -0.28597,1.13935 -0.41165,2.17983 -0.2793,2.31218 0.43071,0.43071 13.36976,4.06702 14.76604,4.14975 0.74656,0.0443 1.36214,-0.18134 1.36797,-0.5013 z m 4.42518,-69.51506 c 2.89289,-1.8652 7.4413,-4.48803 10.10758,-5.8285 2.66628,-1.34047 4.84778,-2.71289 4.84778,-3.04983 0,-0.33694 -0.98263,-2.16438 -2.18363,-4.06097 -1.20098,-1.89659 -3.83293,-6.47654 -5.84875,-10.17765 l -3.66514,-6.72931 -6.36765,3.95094 c -3.50221,2.17301 -8.2181,4.79871 -10.47976,5.8349 l -4.11209,1.88397 1.37442,2.05786 c 2.06023,3.08467 9.51106,16.59673 10.00968,18.15252 0.23927,0.74655 0.57515,1.35737 0.74641,1.35737 0.17124,0 2.67827,-1.52608 5.57115,-3.3913 z"
     id="path49" />
  <path
     style="fill:#1971c2;fill-opacity:1;stroke:#1971c2;stroke-width:1.06651;stroke-opacity:1"
     d="m 608.21948,284.16666 c 0.21979,-0.93189 0.076,-3.80972 -0.28919,-5.78866 -1.36499,-7.39641 -7.26884,-18.60106 -15.17013,-28.79068 l -1.50428,-1.93994 2.39866,0.29697 c 4.68813,0.58044 14.52191,3.33666 24.94857,6.99262 1.98137,0.69475 3.58597,1.16221 3.6886,1.07461 0.0999,-0.0852 0.21399,-1.18723 0.25351,-2.44877 0.0592,-1.8883 -0.0117,-2.62034 -0.40103,-4.14181 -0.85149,-3.32765 -2.83807,-7.42803 -5.51622,-11.3857 -0.62351,-0.92141 -1.12967,-1.74062 -1.12479,-1.82046 0.0155,-0.25229 2.6109,0.0331 4.23255,0.46543 5.38001,1.43422 11.7806,5.82119 17.62922,12.08311 0.9839,1.05343 1.81416,1.88486 1.84502,1.84762 0.0309,-0.0373 1.75162,-4.77764 3.82393,-10.53422 2.07231,-5.75658 3.82759,-10.46213 3.90064,-10.45678 0.073,0.005 2.3968,3.9595 5.16391,8.78701 2.76711,4.82752 5.15241,8.91743 5.30066,9.08868 0.19479,0.225 0.2981,0.2491 0.37244,0.0868 0.0566,-0.12348 0.79097,-1.11711 1.63197,-2.20805 3.55175,-4.60733 8.55706,-7.76638 13.78636,-8.70118 2.9986,-0.53603 2.92988,-0.60501 1.65228,1.65876 -3.35772,5.94954 -5.18607,10.88341 -5.73951,15.48829 -0.23488,1.95446 -0.24579,2.71862 -0.0552,3.88456 0.13046,0.79831 0.2879,1.51753 0.34987,1.59825 0.062,0.0807 0.87251,-0.68648 1.8012,-1.7049 2.11408,-2.31836 6.10915,-5.90779 8.47676,-7.61608 3.40069,-2.4537 7.43124,-4.50154 10.95645,-5.56677 1.87451,-0.56643 5.73087,-1.22707 5.91542,-1.01338 0.0591,0.0684 -0.53825,0.79167 -1.32735,1.60728 -9.11,9.41582 -17.18748,24.46648 -20.33427,37.88857 -0.34507,1.47186 -0.66311,2.77529 -0.70673,2.89651 -0.0437,0.12139 -0.63174,0.23193 -1.30894,0.24602 -0.67629,0.0141 -15.07735,-0.24745 -32.00236,-0.58121 -16.92499,-0.33375 -31.23256,-0.60044 -31.79458,-0.59265 l -1.02184,0.0142 z"
     id="path54" />
  <path
     style="fill:#1971c2;fill-opacity:1;stroke:#1971c2;stroke-width:1.06651;stroke-opacity:1"
     d="m 297.19284,316.05976 c 0.53819,-0.79189 1.43196,-3.53119 1.79778,-5.51001 1.36732,-7.39598 -0.14432,-19.97035 -3.8842,-32.3102 l -0.71201,-2.34931 2.1343,1.13425 c 4.17144,2.21688 12.37173,8.30418 20.80437,15.44363 1.60246,1.35671 2.93418,2.36655 3.06133,2.32139 0.12375,-0.0439 0.62399,-1.03245 1.11157,-2.19663 0.72984,-1.74256 0.92512,-2.45163 1.10501,-4.01178 0.39344,-3.41226 0.003,-7.95174 -1.08491,-12.60499 -0.25321,-1.08334 -0.43333,-2.02932 -0.40024,-2.10215 0.10456,-0.23012 2.42679,0.96364 3.78701,1.94672 4.51266,3.26149 8.92374,9.64549 12.14949,17.58353 0.54267,1.3354 1.02113,2.40856 1.06325,2.3848 0.0422,-0.0237 3.34277,-3.83665 7.33477,-8.4731 3.992,-4.63643 7.31243,-8.40445 7.37875,-8.37336 0.0663,0.0311 0.82419,4.55445 1.68418,10.05192 0.85998,5.49748 1.62684,10.16962 1.70414,10.38254 0.10156,0.27973 0.18944,0.33914 0.31685,0.21413 0.0969,-0.0951 1.13784,-0.76084 2.31307,-1.47936 4.96327,-3.03452 10.76682,-4.19708 15.98501,-3.20212 2.99223,0.57053 2.95269,0.48156 0.9507,2.13955 -5.26153,4.35748 -8.73177,8.31266 -10.8937,12.41598 -0.91758,1.74159 -1.20075,2.45143 -1.43926,3.60852 -0.16333,0.79224 -0.2732,1.52024 -0.24415,1.61778 0.029,0.0976 1.06016,-0.32951 2.29139,-0.94897 2.80277,-1.41017 7.81649,-3.33559 10.63813,-4.08537 4.05284,-1.07696 8.54898,-1.54984 12.22212,-1.28546 1.95317,0.14058 5.79107,0.90114 5.88711,1.16666 0.0307,0.085 -0.78554,0.54716 -1.81394,1.02705 -11.8725,5.54015 -24.79357,16.71218 -32.52752,28.12448 -0.84809,1.25147 -1.61077,2.35529 -1.69482,2.45292 -0.0842,0.0978 -0.67291,-0.009 -1.31046,-0.2378 -0.63669,-0.22844 -13.99409,-5.61723 -29.68308,-11.97511 -15.68899,-6.35787 -28.95722,-11.71808 -29.48493,-11.91157 l -0.95947,-0.35182 z"
     id="path55" />
  <path
     style="fill:#ffffff;fill-opacity:1;stroke:none;stroke-width:3.01655;stroke-opacity:1"
     d="m 498.48924,608.33881 c -9.29785,-3.44769 -14.49468,-13.71028 -12.58978,-24.86203 0.82628,-4.83724 1.5775,-6.05961 3.19274,-5.19516 2.305,1.2336 8.94447,1.77584 14.35586,1.17244 2.85411,-0.31826 5.27336,-0.66271 5.37612,-0.76547 0.10275,-0.10275 0.0263,-1.1905 -0.16983,-2.41722 l -0.35666,-2.23039 -6.65445,0.30533 c -6.49819,0.29817 -11.31639,-0.32212 -11.31639,-1.45684 0,-0.77416 3.8473,-3.73746 6.56472,-5.05635 1.93891,-0.94104 3.50931,-1.21305 7.14688,-1.23791 4.0338,-0.0276 5.08335,0.17508 7.78962,1.50404 3.89998,1.91515 7.64701,5.99742 9.31231,10.14548 1.06247,2.6465 1.25668,4.13873 1.26352,9.70871 0.008,6.25391 -0.0779,6.76318 -1.72026,10.22954 -3.35317,7.07745 -8.39267,10.50015 -15.8225,10.74624 -2.67395,0.0886 -5.1627,-0.14204 -6.3719,-0.59041 z"
     id="path56" />
  <path
     style="fill:#d2d2d2;fill-opacity:1;stroke:none;stroke-width:3.01655;stroke-opacity:1"
     d="M 194.15627,356.23334 V 137.9387 H 330.17535 466.19443 V 356.22739 574.51607 H 446.9917 427.78898 l 0.273,-2.05674 c 1.11291,-8.3844 1.58093,-10.79184 2.83971,-14.60694 1.10817,-3.35864 1.35864,-4.98008 1.1226,-7.26714 -0.20403,-1.97683 -0.10348,-2.94391 0.30607,-2.94391 1.47844,0 5.1765,-2.31079 6.0415,-3.77511 1.48392,-2.51207 1.20309,-4.591 -0.97179,-7.19417 -1.0558,-1.2637 -1.91963,-2.53885 -1.91963,-2.83367 0,-0.29481 0.64624,-1.63873 1.43607,-2.98649 1.72548,-2.94429 2.34325,-8.31432 1.31494,-11.43013 -0.37247,-1.1286 -1.72548,-3.58314 -3.00669,-5.45453 -1.41649,-2.06901 -3.13925,-5.75621 -4.39565,-9.40799 -2.76134,-8.0259 -5.93375,-14.71906 -10.26476,-21.65655 -1.97053,-3.15644 -3.83238,-6.23261 -4.13742,-6.83592 -0.30505,-0.60331 -0.68436,-4.18204 -0.84291,-7.95273 -0.2109,-5.01564 -0.61127,-7.80783 -1.49163,-10.40274 -1.29999,-3.83174 -3.90635,-9.28285 -5.55615,-11.62049 -0.56511,-0.8007 -1.02809,-2.15815 -1.02885,-3.01655 -0.003,-2.87421 -2.72617,-11.93512 -4.95598,-16.48747 -3.87946,-7.92027 -9.12316,-12.02298 -16.98119,-13.28622 -1.96076,-0.31521 -8.20725,-0.57497 -13.88109,-0.57725 -8.11859,-0.003 -10.22335,-0.15018 -9.88078,-0.68973 0.2394,-0.37706 0.44676,-3.64728 0.4608,-7.26714 0.014,-3.61987 0.23634,-13.36881 0.49399,-21.66433 0.40349,-12.99093 0.34024,-15.9467 -0.45604,-21.31203 -0.95057,-6.40493 -2.94947,-13.60816 -4.77183,-17.19572 -1.2777,-2.51534 -1.27773,-2.62706 -6.8e-4,-2.62706 0.66421,0 2.23071,-1.64852 4.38801,-4.61776 6.73246,-9.26636 17.52953,-18.75433 27.845,-24.46891 2.81958,-1.56198 5.1265,-3.06685 5.1265,-3.34415 0,-1.0977 -3.28948,-1.76268 -8.77542,-1.77395 -6.38923,-0.0131 -10.1093,0.77958 -17.40447,3.70874 -2.49375,1.0013 -4.53409,1.70493 -4.53409,1.56364 0,-0.14128 0.79376,-1.77228 1.76391,-3.62444 1.16712,-2.22819 3.48669,-5.06516 6.8558,-8.38505 2.80054,-2.75961 5.09189,-5.263 5.09189,-5.56307 0,-0.79016 -1.46271,-1.23563 -5.2046,-1.58505 -3.84662,-0.35921 -8.69731,0.71473 -12.94083,2.86509 -1.54291,0.78185 -2.85687,1.34325 -2.91992,1.24755 -0.063,-0.0957 -0.81447,-4.56761 -1.66983,-9.9376 -1.25196,-7.85983 -1.70896,-9.7046 -2.34377,-9.461 -0.43372,0.16643 -0.87039,0.3026 -0.97038,0.3026 -0.1,0 -3.06744,3.33192 -6.59431,7.40427 -3.52688,4.07234 -6.60474,7.40426 -6.83967,7.40426 -0.23494,0 -0.97109,-1.34013 -1.63587,-2.97807 -1.80062,-4.43642 -6.18104,-10.79159 -9.57868,-13.89684 -2.91815,-2.66703 -6.0534,-4.32959 -6.57454,-3.48637 -0.14101,0.22817 0.12664,2.61981 0.59477,5.31477 0.9439,5.43376 0.76349,11.27175 -0.4177,13.51702 l -0.76763,1.45913 -3.29078,-2.73493 c -9.3066,-7.73462 -22.43209,-16.90294 -23.15852,-16.17651 -0.11954,0.11954 0.40832,2.52658 1.17302,5.34897 4.28525,15.81625 4.99536,28.02932 2.02072,34.754 l -1.06443,2.40631 1.9331,0.63798 1.9331,0.63798 -4.00942,2.17556 c -7.56325,4.10392 -13.25892,9.46031 -18.84326,17.72082 -3.22119,4.76487 -19.23855,36.82674 -22.26559,44.56894 -4.28973,10.97171 -5.4454,19.22853 -3.49322,24.95786 1.11104,3.26072 4.33731,6.90977 7.71661,8.72783 3.59121,1.93207 8.85552,3.53604 9.46334,2.88338 0.26317,-0.28259 1.66583,-4.29867 3.11702,-8.92462 1.72148,-5.48753 2.75936,-8.06098 2.98617,-7.40427 0.1912,0.55361 1.04752,4.87384 1.90295,9.60051 l 1.55533,8.59395 5.18395,0.38866 c 2.85117,0.21376 6.57403,0.2491 8.27303,0.0785 3.06993,-0.30818 3.08141,-0.30381 1.8521,0.70581 -0.68033,0.55874 -2.98492,1.68383 -5.1213,2.50019 -2.35264,0.89899 -4.64686,2.24681 -5.81807,3.41802 -2.45153,2.45153 -14.70014,20.85788 -16.39497,24.63722 -1.78867,3.98856 -2.28966,7.87613 -2.95532,22.93245 -0.32008,7.23973 -0.95263,17.35889 -1.40568,22.48703 -1.54328,17.46895 -2.12518,19.86731 -11.90979,49.08753 l -8.90737,26.6005 -23.17261,0.14307 -23.1726,0.14307 z"
     id="path57" />
  <path
     style="fill:#d2d2d2;fill-opacity:1;stroke:none;stroke-width:3.01655;stroke-opacity:1"
     d="m 698.08799,566.67521 -19.57718,-5.53979 2.04691,-2.22221 c 1.1258,-1.22222 3.75076,-5.06052 5.83325,-8.52955 2.08248,-3.46904 4.88705,-8.0339 6.23238,-10.14415 8.13337,-12.75782 11.71335,-26.28538 16.54749,-62.52734 0.92544,-6.93807 1.94135,-13.27384 2.25759,-14.0795 0.47899,-1.22031 0.36739,-1.7456 -0.66866,-3.14692 -0.68399,-0.92515 -1.13775,-1.74683 -1.00835,-1.82596 0.1294,-0.0791 0.72889,-0.41668 1.3322,-0.75013 1.67291,-0.92462 1.68637,-7.44063 0.0415,-20.09085 -0.75557,-5.81093 -1.61839,-12.72627 -1.91739,-15.36742 -0.29899,-2.64115 -0.93686,-5.63079 -1.41749,-6.64364 -1.41612,-2.98424 -14.02386,-10.73412 -19.66322,-12.08683 -0.96712,-0.23197 -3.22444,-2.12725 -5.89954,-4.95331 -5.22967,-5.52478 -10.76221,-10.10644 -14.47253,-11.98513 -4.13249,-2.09245 -8.13792,-6.8976 -10.9687,-13.15871 l -1.29402,-2.86208 1.46941,-7.236 1.46942,-7.23599 3.29079,-2.14327 c 3.34537,-2.17881 8.3139,-6.91726 10.08647,-9.61939 0.97324,-1.48361 0.97957,-1.48486 1.50926,-0.29777 0.49327,1.10546 0.72382,0.92318 3.17258,-2.50845 3.73586,-5.23534 5.6487,-9.25884 6.69473,-14.08179 l 0.90695,-4.18171 5.13181,2.08806 c 2.82249,1.14844 5.13181,1.91378 5.13181,1.70076 0,-0.21302 -1.97314,-2.34887 -4.38474,-4.74633 l -4.38474,-4.35903 2.56916,-2.60839 c 1.41304,-1.43461 2.46064,-2.70159 2.328,-2.8155 -0.13264,-0.11392 -1.90712,-0.64986 -3.9433,-1.19097 -2.45247,-0.65175 -3.70213,-1.25691 -3.70213,-1.7928 0,-1.57249 -3.78589,-12.09513 -6.24485,-17.35716 -1.8288,-3.91351 -2.35565,-5.57724 -1.98025,-6.2534 0.28131,-0.5067 1.03819,-2.89573 1.68196,-5.30898 3.02595,-11.34306 9.93271,-24.27472 17.75624,-33.24531 1.67583,-1.92154 3.04697,-3.80403 3.04697,-4.18332 0,-2.13638 -10.39754,1.03264 -16.25115,4.95313 -2.07229,1.38791 -5.43375,4.03764 -7.46992,5.88829 -3.68816,3.3521 -3.70214,3.35876 -3.70214,1.76349 0,-2.94079 2.09097,-9.82345 4.34839,-14.31323 2.9712,-5.90942 2.94405,-6.33729 -0.37202,-5.86422 -4.32165,0.61651 -9.17784,3.22122 -12.84774,6.89112 -1.83157,1.83157 -3.37959,3.25773 -3.44005,3.16924 -0.0605,-0.0885 -2.13788,-3.65598 -4.61649,-7.92776 -2.47861,-4.27178 -4.85143,-8.05308 -5.27292,-8.40288 -0.98905,-0.82085 -1.58733,0.32923 -4.84519,9.31396 -1.36725,3.77069 -2.75176,7.55028 -3.07668,8.39909 l -0.59076,1.5433 -3.86204,-3.46292 c -4.79589,-4.30026 -9.24655,-7.26754 -13.02432,-8.68338 -3.05572,-1.14523 -7.24658,-1.46137 -7.24658,-0.54665 0,0.29712 0.72735,1.72231 1.61632,3.16707 4.20715,6.8375 6.93022,15.48894 4.87518,15.48894 -0.43523,0 -3.36961,-0.87271 -6.52085,-1.93937 -11.4294,-3.86871 -24.65153,-6.87424 -24.65153,-5.60354 0,0.27638 0.82864,1.53128 1.84142,2.78866 3.05946,3.79838 7.29391,10.30908 9.94028,15.28374 3.48828,6.55728 5.27325,12.00133 5.44914,16.61948 l 0.14623,3.83925 -2.51832,2.78166 c -6.26581,6.92104 -11.00468,21.61988 -9.4032,29.16644 1.05196,4.95705 1.20395,5.06758 4.1311,3.00434 1.38139,-0.9737 2.56612,-1.76909 2.63271,-1.76752 0.0666,0.002 0.16921,2.10453 0.22803,4.67326 0.12364,5.39872 1.62608,11.44988 4.02074,16.19366 l 1.64815,3.26497 -1.201,6.56623 -1.201,6.56622 -2.96134,1.96622 c -1.62874,1.08142 -4.81523,3.68517 -7.0811,5.78611 -6.70356,6.21562 -11.84614,8.39921 -31.44965,13.35387 -8.89883,2.24912 -17.90735,4.36206 -20.01894,4.69544 -2.11158,0.33338 -5.4078,1.0878 -7.32492,1.6765 -1.91712,0.5887 -3.70807,1.07036 -3.97988,1.07036 -0.29175,0 -0.43591,-33.87146 -0.35188,-82.68095 l 0.14233,-82.68096 19.89299,-70.47763 c 10.94114,-38.76269 20.0723,-70.986604 20.29147,-71.608692 0.3882,-1.101867 0.71001,-1.043177 12.4647,2.273215 6.63641,1.872356 25.8875,7.277896 42.78019,12.012311 71.83231,20.132016 98.12848,27.505036 115.45168,32.370796 10.10545,2.83843 35.13733,9.86205 55.62639,15.60804 20.48907,5.74599 37.35595,10.55036 37.48197,10.67638 0.12602,0.12602 -3.94801,15.11831 -9.0534,33.31619 -5.10538,18.19789 -31.72121,113.11469 -59.1463,210.92622 -27.42507,97.81154 -50.11058,177.81517 -50.41224,177.78586 -0.30165,-0.0293 -9.3582,-2.5462 -20.12566,-5.59309 z"
     id="path58" />
  <path
     style="fill:#d2d2d2;fill-opacity:1;stroke:none;stroke-width:0.188535;stroke-opacity:1"
     d="m 407.81994,535.75925 c -3.89161,-8.46476 -5.99292,-13.44715 -8.0082,-18.98816 -1.95489,-5.37499 -2.82864,-8.80186 -3.15467,-12.37271 -0.0665,-0.72858 -0.11038,-3.15367 -0.057,-3.15367 0.0801,0 1.45908,1.60446 2.1655,2.51951 2.32307,3.00913 4.57732,7.0661 6.18666,11.13411 2.03948,5.15528 3.1868,10.53361 3.44695,16.15832 0.0678,1.46663 0.0373,4.1858 -0.0615,5.47387 l -0.0233,0.3041 z"
     id="path59" />
</svg>
