<svg id="hero-main" xmlns="http://www.w3.org/2000/svg" xmlns:xlink="http://www.w3.org/1999/xlink" viewBox="0 0 1100 793.03874" shape-rendering="geometricPrecision" text-rendering="geometricPrecision" style="background-color:#121315"><g id="hero-main-u-g27" transform="matrix(.690028 0 0 0.690028 371.382956 176.23095)"><g id="hero-main-u-g26" transform="matrix(-3.2205 0 0 3.2205 6551.48-1093.2)"><path id="hero-main-u-path19-8" d="M1987.5942,329.85768h-123.2204v-2h123.2204c6.0131,0,10.9052-4.89258,10.9052-10.90625v-46.80273h2v46.80273c0,7.11621-5.789,12.90625-12.9052,12.90625Z" fill="#1971c2"/><path id="hero-main-u-path19-8-7" d="M1854.2132,297.98407h104.6579l-.1125,2h-104.5454c-6.0131,0-10.9052,4.89258-10.9052,10.90625v46.80273h-2v-46.80273c0-7.11621,5.789-12.90625,12.9052-12.90625Z" fill="#e6e6e6"/><path id="hero-main-u-path19-8-7-0" d="M2134.7232,541.85278h-66.1562l.1125-2h66.0437c6.0131,0,10.9052-4.8925,10.9052-10.9062v-60.64424h2v60.64424c0,7.1162-5.789,12.9062-12.9052,12.9062Z" fill="#e6e6e6" stroke-width="1.67489"/><rect id="hero-main-u-rect19" width="157.436" height="2" rx="0" ry="0" transform="matrix(0 1-1 0 2047.13 433.244)" fill="#1971c2"/><circle id="hero-main-u-circle38" r="10" transform="translate(1999.37 270.149)" fill="#1971c2"/><circle id="hero-main-u-circle39" r="10" transform="translate(2046.02 431.899)" fill="#1971c2"/><circle id="hero-main-u-circle46" r="6" transform="translate(1961.62 298.989)" fill="#e6e6e6"/><g id="hero-main-u-g45" transform="translate(-60.9746-24.7499)"><circle id="hero-main-u-circle44" r="6.00001" transform="matrix(0 1-1 0 2075.27 435.509)" fill="#e6e6e6"/><path id="hero-main-u-path44" d="M2074.0694,386.11016v49.53041l2-.1125v-49.41791c0-6.0131,4.8925-10.9052,10.9062-10.9052h46.8027v-2h-46.8027c-7.1162,0-12.9062,5.789-12.9062,12.9052Z" fill="#e6e6e6"/></g></g></g><g id="hero-main-u-g20" transform="matrix(.88016 0 0 1 311.992956 111.53295)"><polygon id="hero-main-u-polygon1" points="510.78694,278.13271 519.29088,191.27409 597.78694,181.75476 644.29875,251.13271" fill="#ffb6b6"/><polygon id="hero-main-u-polygon2" points="597.78694,181.75476 644.29875,251.13271 510.78694,278.13271 519.29088,191.27409" opacity="0.1"/></g><path id="hero-main-u-path20" d="M930.35643,373.41625l-37.11821-20.39068-35.62318-13.95194-23.60237.89731-94.79074,3.90533c0,0-54.89676,18.34467-54.58426,18.59467s-.26111,99.89102-.26111,99.89102l15.20279,100.40916-19.09188,65.76093l200.11122,2.47487v-132.58252l47.72974-65.76093l2.028-59.24722Z" transform="translate(22.954956-.00005)" fill="#e6e6e6" stroke-width="2.5"/><g id="hero-main-u-poker-chip" transform="matrix(.746354 0.065298-.065298 0.746354 139.31296-86.708058)"><path id="hero-main-u-path1" d="M353.94414,273.65033c0,75.301735-60.484936,136.624248-135.74384,137.62358s-137.349243-58.695548-139.346773-133.97076s56.8394-138.182145,132.045283-141.17944s138.857873,55.027897,142.85153,130.22355" fill="#1971c2" stroke-width="2.49486"/><g id="hero-main-u-g30" transform="matrix(1.00257 0 0 1.00257-.55496-.702312)"><path id="hero-main-u-path24" d="M266.70828,-324.21271c.000002,24.204016-6.371184,47.981616-18.47319,68.94291l-119.41263-68.94291h137.88582Z" transform="matrix(-.5 0.866025-.866025-.5-.000001 0)" fill="#e6e6e6" stroke-width="2.49999"/><path id="hero-main-u-path242" d="M483.00813,-50.481445c.000002,24.204016-6.371184,47.981615-18.47319,68.942909L345.12231,-50.481445h137.88582Z" transform="matrix(.5 0.866025-.866025 0.5 0 0)" fill="#e6e6e6" stroke-width="2.49999"/><path id="hero-main-u-path243" d="M354.09982,273.70535c.000002,24.204016-6.371184,47.981616-18.47319,68.94291L216.214,273.70535h137.88582Z" fill="#e6e6e6" stroke-width="2.49999"/><path id="hero-main-u-path244" d="M8.891678,324.16089c0,24.204017-6.371189,47.981616-18.473197,68.94291L-128.99414,324.16089h137.885818Z" transform="matrix(.5-.866025 0.866025 0.5-.000001 0.000001)" fill="#e6e6e6" stroke-width="2.49999"/><path id="hero-main-u-path245" d="M-207.40816,50.42963c.000002,24.204016-6.371184,47.981616-18.47319,68.94291L-345.29398,50.42963h137.88582Z" transform="matrix(-.5-.866025 0.866025-.5 0 0)" fill="#e6e6e6" stroke-width="2.49999"/><path id="hero-main-u-path246" d="M-78.499847,-273.75717c-.000001,24.204018-6.37119,47.981618-18.473198,68.94291l-119.412625-68.94291h137.885823Z" transform="matrix(-1 0 0-1 0 0)" fill="#e6e6e6" stroke-width="2.49999"/></g><path id="hero-main-u-path30" d="M-2083.1709,334.33969c.000002,25.852096-20.775281,46.904936-46.6251,47.24801s-47.176495-20.15097-47.8626-45.99395s19.523104-47.439765,45.3547-48.46878s47.694666,18.891819,49.0664,44.70748" transform="matrix(2.22223 0 0 2.22223 4950.67-469.331)" fill="#1971c2" stroke-width="1.12499"/><circle id="hero-main-u-path302" r="102.29" transform="translate(216.375 273.651)" fill="#1971c2" fill-opacity="0" stroke="#e6e6e6" stroke-width="11.8001"/><path id="hero-main-u-path1-4" d="M186.57475,257.05076c-35.33291,36.09814-.96831,62.38933,26.96776,45.15434.15222,8.89084-6.81873,17.19121-11.10658,25.12795h30.16259c-4.41594-7.71387-11.7897-16.21106-12.05926-25.12795c28.52177,16.38472,58.85442-12.1877,27.20658-45.15434-16.50232-18.10515-26.81763-32.19236-30.70531-36.98097-3.54614,4.66903-12.99273,18.39823-30.46651,36.98097h.00073Z" fill="#e6e6e6" fill-rule="evenodd" stroke-width="0.330243"/></g><path id="hero-main-u-path4" d="M225.45324,781.51906c-4.5973-7.24667-5.14023-16.20053-1.45205-23.95072l54.80692-115.15585c4.0904-8.59445,12.88363-14.14749,22.40161-14.14749h692.25411c9.25307,0,17.67157,5.09022,21.96927,13.28457l58.7456,111.9822c4.0607,7.74086,3.7933,16.83204-.7146,24.32114-4.5079,7.48825-12.417,11.97917-21.1573,12.01393l-805.80651,3.17195h-.10087c-8.54232,0-16.36752-4.30104-20.94617-11.51974Zm75.75648-150.65004c-8.51901,0-16.38914,4.9707-20.05019,12.66239L226.35261,758.68726c-3.30122,6.93643-2.81551,14.95023,1.29947,21.4374c4.09845,6.46089,11.10142,10.31012,18.74776,10.31012h.0903l805.80656-3.17195c7.8226-.0305,14.9019-4.05098,18.9363-10.75345c4.0349-6.70247,4.274-14.84003.64-21.76714l-58.7455-111.9839c-3.8472-7.33313-11.3816-11.88932-19.66367-11.88932h-692.2541Z" transform="translate(22.954956-.00005)" fill="#3f3d56"/><path id="hero-main-u-left" d="M420.81782,497.16574c9.04537,3.62236,17.09164,9.35828,23.46563,16.72787l.40598.17512.16901-.40539l87.94686,32.12243l23.499248-25.138869l44.817164,25.138869-31.379142,54.72618c-6.09203,12.33596-21.11694,17.27772-33.34212,10.96636l-108.96609-56.025.56899-1.36465-.38237-.18842c-9.72393.66821-19.46642-1.00253-28.41198-4.87241-22.50848-9.3709-35.91835-28.58053-29.95231-42.90414c5.96598-14.32351,29.04589-18.33523,51.56115-8.95792Z" transform="matrix(.938773 0.344537-.344537 0.938773 234.027865-149.619066)" fill="#ffb6b6"/><path id="hero-main-u-right-shirt" d="M851.36211,395.41615l79.00002-22c0,0,42.6545,25.59321,47.6545,58.59321.2973,1.96238-1.4507,43.38127-3.491,84.90383s-4.6163,83.07322-5.2453,85.52583c-47.8362,186.51517-117.96192-44.82224-117.96192-44.82224l.0437-162.20063Z" transform="translate(22.954956-.00005)" fill="#e6e6e6"/><path id="hero-main-u-left-shirt" d="M713.00984,411.66735l-27.10221-52.58504c0,0-49.42467,9.78272-69.78432,36.2305-2.54495,3.30597-89.96333,130.0895-90.52652,135.62245-3.94234,38.7307,66.22252,47.93043,66.22252,47.93043L713.00984,411.66735Z" transform="translate(22.954956-.00005)" fill="#e6e6e6"/><path id="hero-main-u-vest" d="M723.03809,343.95244l-35.86573,13.25987-3.91421,97.27238l12.34994,109.33996-21.59949,64.33816l247.61453.70711-26.94062-130.62119l9.29561-139.86014-36.07391-20.5317-23.9149,1.35575-49.31364,88.82719-53.79891-84.36238-17.83867.27499Z" transform="translate(22.954956-.00005)" fill="#2f2e43" stroke-width="2.5"/><g id="hero-main-u-buttons" transform="translate(-58.582644-108.78105)"><circle id="hero-main-u-path19_" r="8" transform="translate(878.113 565.439)" fill="#272738" stroke-width="2.5"/><circle id="hero-main-u-path19-6" r="8" transform="translate(877.113 615.564)" fill="#272738" stroke-width="2.5"/><circle id="hero-main-u-path19-6-0" r="8" transform="translate(876.113 670.814)" fill="#272738" stroke-width="2.5"/></g><rect id="hero-main-u-hand-card" width="60.4346" height="91.3487" rx="9.445221" ry="9.491456" transform="matrix(.722493-.691378 0.679026 0.734114 720.515454 575.083131)" fill="#1c84e1" stroke="#1971c2" stroke-width="6.17334"/><rect id="hero-main-u-hand-card2" width="60.0623" height="91.9026" rx="9.38703" ry="9.54901" transform="matrix(.972299-.233739 0.229522 0.973303 746.279946 538.214595)" fill="#1c84e1" stroke="#1971c2" stroke-width="6.17292"/><path id="hero-main-u-table" d="M225.45324,781.51906c-4.5973-7.24667-5.14023-16.20053-1.45205-23.95072l54.80692-115.15585c4.0904-8.59445,12.88363-14.14749,22.40161-14.14749h692.25411c9.25307,0,17.67157,5.09022,21.96927,13.28457l58.7456,111.9822c4.0607,7.74086,3.7933,16.83204-.7146,24.32114-4.5079,7.48825-12.417,11.97917-21.1573,12.01393l-805.80651,3.17195h-.10087c-8.54232,0-16.36752-4.30104-20.94617-11.51974Z" transform="translate(22.954956-.00005)" fill="#e6e6e6"/><path id="hero-main-u-right" d="M788.12024,588.07298c9.57552,1.80268,18.58002,5.87235,26.26015,11.86853l.43221.0932.0873-.43044l97.69723,16.65327-.5798-35.36343c11.6217,12.87967,42.1508,29.55613,56.5438,24.62233l-14.3262,55.11623c-3.5886,13.28197-17.3725,21.03901-30.5883,17.2138l-117.7508-33.86962.29404-1.44899-.41161-.11083c-9.41061,2.53809-19.29222,2.78507-28.81774.72023-23.89682-4.83605-40.77191-21.08616-37.69175-36.29379c3.08013-15.20752,24.94674-23.61153,48.85145-18.77051Z" transform="translate(22.954956-.00005)" fill="#ffb6b6"/><g id="hero-main-u-laptop" transform="translate(244.529956 111.28295)"><path id="hero-main-u-path11_" d="M287.12239,612.72158l-8.18994-7.01953h-.00049c-1.21924-1.0459-2.70166-1.73828-4.28711-2.00293L92.16194,573.28506c-4.16504-.69434-7.2417-3.70215-8.02979-7.85059-.7876-4.14844.97217-8.0752,4.59326-10.24805l65.10156-39.06055c2.17578-1.30566,4.73633-1.7168,7.21338-1.15723l231.37354,52.27344c4.49805,1.01563,7.5,4.65039,7.64746,9.25977s-2.61621,8.42871-7.04102,9.73047l-96.74072,28.45312c-.91797.27051-1.854.40234-2.78223.40234-2.30908,0-4.56885-.81738-6.375-2.36621Z" fill="#3f3d56"/><path id="hero-main-u-path14_" d="M282.60237,614.58779L73.42073,585.67568c-7.00098-.9668-12.7793-5.9834-14.72168-12.7793L10.6556,404.74404c-1.62793-5.69922-.4126-11.60059,3.33447-16.19238s9.2832-6.96484,15.19482-6.51367l210.75049,16.14648c7.62451.58398,14.0249,5.95313,15.92773,13.35938l46.47412,180.91797c1.48291,5.77344,0,11.87598-3.96777,16.32422-3.4165,3.83105-8.26123,5.9707-13.31152,5.9707-.81445,0-1.63525-.0557-2.45557-.16895Z" fill="#3f3d56"/></g><g id="hero-main-s-g1" transform="matrix(.940756-.339085 0.339085 0.940756-24.861935 285.605777)"><ellipse id="hero-main-u-circle16-0" rx="83.7202" ry="79.9241" transform="matrix(-1 0 0 1 803.875956 235.13895)" fill="#ffb6b6" stroke-width="2.82521"/><path id="hero-main-u-path17-2" d="M875.88296,182.62324c-9.40092-13.88426-27.04214-23.1378-44.14407-20.53749-3.244574-21.238665-18.600007-38.98879-39.833066-46.045065s-44.814996-2.24601-61.173194,12.478165c-5.367765-3.607916-12.321431-4.272277-18.33169-1.75143-5.886176,2.555006-11.006867,6.478923-14.89317,11.41244-19.994532,23.80383-24.658547,56.175391-12.13834,84.24866-2.09028-7.25371,5.52455-14.07778,13.21832-15.70554c7.69326-1.62774,15.76351-.0878,23.56543-1.14779c9.99977-1.35832,18.98837-6.89615,29.00376-8.14246c8.41723-1.04742,16.88161,1.01276,25.08977,3.07787c8.20819,2.06479,16.65087,4.17069,25.07996,3.2152c8.42967-.95552,19.28763,29.54096,19.14191,51.02075-.029,4.07059.85069,9.29686,5.01766,10.16046c5.13159,1.06374,8.10525-5.69773,12.98961-7.5401c4.678892-1.280184,9.579262,1.207518,11.08351,5.62661c1.248946,4.385453.201183,9.076765-2.81287,12.5945-3.002301,3.437085-6.566413,6.388669-10.55465,8.74073l2.01163,1.59721c3.34608,4.22009,10.28689,4.40287,15.10997,1.79204c4.611904-2.981836,8.346922-7.041676,10.849-11.7925c8.92268-14.16811,16.74975-29.26405,19.89862-45.52032c3.14917-16.25628,1.22197-33.89772-8.1781-47.78194Z" transform="translate(22.954956-.00005)" fill="#2f2e41" stroke-width="2.82521"/><path id="hero-main-u-path27-1" d="M846.4796,267.53446c-.144728-2.490622-2.020882-4.579203-4.577234-5.09549s-5.157782.667991-6.346683,2.88927-.669894,4.927689,1.266217,6.6028l-9.71987,15.24831c-.822223,1.301801-.387221,2.993226.973038,3.783482s3.133787.381897,3.967132-.913442l10.92853-17.14493c2.238145-.905235,3.641505-3.052948,3.50887-5.37Z" transform="translate(22.954956-.00005)" fill="#fff" stroke-width="2.82521"/><rect id="hero-main-u-rect27-5" width="2.86543" height="8.3625" rx="1.432713" ry="1.432713" transform="matrix(.901007 0.433804 0.467112-.884198 859.381606 277.889662)" fill="#2f2e41" stroke-width="2.8262"/></g><path id="hero-main-u-path18_" d="M978.00453,432.17277l-1.938,174.6966c0,0-26.8431,6.34997-45.0271-1.44317s-24.53391-22.51351-24.53391-22.51351l-11.54539-84.57l83.0444-66.16992Z" transform="translate(22.954956-.00005)" fill="#e6e6e6" stroke-width="2.5"/><path id="hero-main-u-path21" d="M780.58634,339.88308c0,0-14.24934-10.71771-22.00889-12.10962s-14.74317-4.03654-16.08346-3.41018-2.68056,5.63724-2.75111,6.95955-1.48137,17.95564-.98757,21.22664.77596,13.8495,2.04568,15.72858.9876,2.71423,2.61005,2.43585s5.14952-.97435,8.39442-1.80949s19.11672-6.95955,23.77246-10.09135s4.4441-4.52371,4.9379-3.89735.42324,1.18312,1.26975,1.6703s1.41082.69595,1.41082.69595s11.49824-.0696,11.92148-.0696.8465-.55676.98759-.90474.70541-1.73989.70541-1.73989.77595.41758.84651.69596s4.72626,2.9926,5.00844,3.41018s7.90063,4.38452,8.88821,4.87168s7.54793,3.2014,9.52309,3.82775s8.04172,2.01828,9.17038,2.36625s4.0914.76556,4.58518.76556s1.693-1.25272,1.693-1.25272s1.05813-3.61897,1.1992-4.10613s1.41084-12.10963,1.34029-13.29275-.14109-12.87518-.14109-14.47588-.7054-9.2562-1.62243-10.57852-1.34028-2.22705-1.83408-2.36623-1.12867-.27839-1.76355-.1392-3.17437.62636-4.65573,1.18313-9.52309,2.29665-9.52309,2.29665-9.52309,3.75815-10.58121,4.38451-4.51465,2.71423-5.7844,3.68857-4.37356,3.0622-4.72626,3.34057-.91703,1.04394-1.19921.76556.1411-.83514-.56433-1.67029-1.693-.83514-1.97516-.83514-3.80923-.0696-4.58517-.0696-6.20766-.0696-6.20766-.0696l-1.76354.27838-.91704,1.04393-.63488,1.25273Z" transform="translate(22.954956-.00005)" fill="#262637" stroke-width="0.495447"/><g id="hero-main-u-card_reset" transform="matrix(.999863 0.01658-.01658 0.999863 17.708975 251.035166)"><g id="hero-main-u-card" transform="matrix(.862761-.142828 0.142828 0.862761-122.98963-159.746794)"><rect id="hero-main-u-rect22" width="159.961" height="240.608" rx="25" ry="25" transform="matrix(.986721 0.162423-.162423 0.986721 145.484669 218.166041)" fill="#e6e6e6" stroke="#1971c2" stroke-width="16.3"/><path id="hero-main-u-path2417_" d="M297.29747,550.86823c-13.77504-15.43632-48.17067-45.52968-76.4347-66.87411-83.7441-63.24184-95.14169-72.39422-129.143532-103.70324C29.03471,322.57071,2.413622,264.58086,2.504848,185.95124c.044511-38.38385,2.660767-53.17195,13.409886-75.79726C34.151433,71.768267,61.014996,43.244667,95.360052,25.799457C119.68545,13.443675,131.6827,7.954205,172.30448,7.729624c42.49329-.234834,51.43863,4.719723,76.43471,18.451835c30.42451,16.714318,61.7399,52.435708,68.21323,77.810591l3.9981,15.6724l9.85963-21.584508c55.71617-121.972928,233.59836-120.148052,295.50229,3.031588c19.63767,39.07605,21.79364,122.51317,4.38012,169.51287-22.71527,61.30937-65.38001,108.05053-164.00634,179.67658-64.68082,46.97364-137.88474,118.04586-142.98067,128.02803-5.91548,11.58753-.28216,1.8159-26.40808-27.46078Z" transform="matrix(.140728 0.023236-.023236 0.140728 166.34 300.803)" fill="#1971c2"/></g></g>
<script><![CDATA[
!function(t,n){"object"==typeof exports&&"undefined"!=typeof module?module.exports=n():"function"==typeof __SVGATOR_DEFINE__&&__SVGATOR_DEFINE__.amd?__SVGATOR_DEFINE__(n):((t="undefined"!=typeof globalThis?globalThis:t||self).__SVGATOR_PLAYER__=t.__SVGATOR_PLAYER__||{},t.__SVGATOR_PLAYER__["5c7f360c"]=n())}(this,(function(){"use strict";function t(t,n){var e=Object.keys(t);if(Object.getOwnPropertySymbols){var r=Object.getOwnPropertySymbols(t);n&&(r=r.filter((function(n){return Object.getOwnPropertyDescriptor(t,n).enumerable}))),e.push.apply(e,r)}return e}function n(n){for(var e=1;e<arguments.length;e++){var r=null!=arguments[e]?arguments[e]:{};e%2?t(Object(r),!0).forEach((function(t){o(n,t,r[t])})):Object.getOwnPropertyDescriptors?Object.defineProperties(n,Object.getOwnPropertyDescriptors(r)):t(Object(r)).forEach((function(t){Object.defineProperty(n,t,Object.getOwnPropertyDescriptor(r,t))}))}return n}function e(t){return(e="function"==typeof Symbol&&"symbol"==typeof Symbol.iterator?function(t){return typeof t}:function(t){return t&&"function"==typeof Symbol&&t.constructor===Symbol&&t!==Symbol.prototype?"symbol":typeof t})(t)}function r(t,n){if(!(t instanceof n))throw new TypeError("Cannot call a class as a function")}function i(t,n){for(var e=0;e<n.length;e++){var r=n[e];r.enumerable=r.enumerable||!1,r.configurable=!0,"value"in r&&(r.writable=!0),Object.defineProperty(t,r.key,r)}}function u(t,n,e){return n&&i(t.prototype,n),e&&i(t,e),t}function o(t,n,e){return n in t?Object.defineProperty(t,n,{value:e,enumerable:!0,configurable:!0,writable:!0}):t[n]=e,t}function a(t){return(a=Object.setPrototypeOf?Object.getPrototypeOf:function(t){return t.__proto__||Object.getPrototypeOf(t)})(t)}function l(t,n){return(l=Object.setPrototypeOf||function(t,n){return t.__proto__=n,t})(t,n)}function s(){if("undefined"==typeof Reflect||!Reflect.construct)return!1;if(Reflect.construct.sham)return!1;if("function"==typeof Proxy)return!0;try{return Boolean.prototype.valueOf.call(Reflect.construct(Boolean,[],(function(){}))),!0}catch(t){return!1}}function f(t,n,e){return(f=s()?Reflect.construct:function(t,n,e){var r=[null];r.push.apply(r,n);var i=new(Function.bind.apply(t,r));return e&&l(i,e.prototype),i}).apply(null,arguments)}function c(t,n){if(n&&("object"==typeof n||"function"==typeof n))return n;if(void 0!==n)throw new TypeError("Derived constructors may only return object or undefined");return function(t){if(void 0===t)throw new ReferenceError("this hasn't been initialised - super() hasn't been called");return t}(t)}function h(t,n,e){return(h="undefined"!=typeof Reflect&&Reflect.get?Reflect.get:function(t,n,e){var r=function(t,n){for(;!Object.prototype.hasOwnProperty.call(t,n)&&null!==(t=a(t)););return t}(t,n);if(r){var i=Object.getOwnPropertyDescriptor(r,n);return i.get?i.get.call(e):i.value}})(t,n,e||t)}function v(t){return function(t){if(Array.isArray(t))return y(t)}(t)||function(t){if("undefined"!=typeof Symbol&&null!=t[Symbol.iterator]||null!=t["@@iterator"])return Array.from(t)}(t)||function(t,n){if(!t)return;if("string"==typeof t)return y(t,n);var e=Object.prototype.toString.call(t).slice(8,-1);"Object"===e&&t.constructor&&(e=t.constructor.name);if("Map"===e||"Set"===e)return Array.from(t);if("Arguments"===e||/^(?:Ui|I)nt(?:8|16|32)(?:Clamped)?Array$/.test(e))return y(t,n)}(t)||function(){throw new TypeError("Invalid attempt to spread non-iterable instance.\nIn order to be iterable, non-array objects must have a [Symbol.iterator]() method.")}()}function y(t,n){(null==n||n>t.length)&&(n=t.length);for(var e=0,r=new Array(n);e<n;e++)r[e]=t[e];return r}function g(t,n,e){if(Number.isInteger(t))return t;var r=Math.pow(10,n);return Math[e]((+t+Number.EPSILON)*r)/r}Number.isInteger||(Number.isInteger=function(t){return"number"==typeof t&&isFinite(t)&&Math.floor(t)===t}),Number.EPSILON||(Number.EPSILON=2220446049250313e-31);var p=d(Math.pow(10,-6));function d(t){var n=arguments.length>1&&void 0!==arguments[1]?arguments[1]:6;return g(t,n,"round")}function m(t,n){var e=arguments.length>2&&void 0!==arguments[2]?arguments[2]:p;return Math.abs(t-n)<e}d(Math.pow(10,-2)),d(Math.pow(10,-4));var b=Math.PI/180;function w(t){return t*b}function x(t){return t/b}function _(t){return t}function A(t,n,e){var r=1-e;return 3*e*r*(t*r+n*e)+e*e*e}function k(){var t=arguments.length>0&&void 0!==arguments[0]?arguments[0]:0,n=arguments.length>1&&void 0!==arguments[1]?arguments[1]:0,e=arguments.length>2&&void 0!==arguments[2]?arguments[2]:1,r=arguments.length>3&&void 0!==arguments[3]?arguments[3]:1;return t<0||t>1||e<0||e>1?null:m(t,n)&&m(e,r)?_:function(i){if(i<=0)return t>0?i*n/t:0===n&&e>0?i*r/e:0;if(i>=1)return e<1?1+(i-1)*(r-1)/(e-1):1===e&&t<1?1+(i-1)*(n-1)/(t-1):1;for(var u,o=0,a=1;o<a;){var l=A(t,e,u=(o+a)/2);if(m(i,l))break;l<i?o=u:a=u}return A(n,r,u)}}function S(){return 1}function O(t){return 1===t?1:0}function j(){var t=arguments.length>0&&void 0!==arguments[0]?arguments[0]:1,n=arguments.length>1&&void 0!==arguments[1]?arguments[1]:0;if(1===t){if(0===n)return O;if(1===n)return S}var e=1/t;return function(t){return t>=1?1:(t+=n*e)-t%e}}var M=Math.sin,E=Math.cos,P=Math.acos,I=Math.asin,R=Math.tan,F=Math.atan2,N=Math.sqrt,T=function(){function t(){var n=arguments.length>0&&void 0!==arguments[0]?arguments[0]:1,e=arguments.length>1&&void 0!==arguments[1]?arguments[1]:0,i=arguments.length>2&&void 0!==arguments[2]?arguments[2]:0,u=arguments.length>3&&void 0!==arguments[3]?arguments[3]:1,o=arguments.length>4&&void 0!==arguments[4]?arguments[4]:0,a=arguments.length>5&&void 0!==arguments[5]?arguments[5]:0;r(this,t),this.m=[n,e,i,u,o,a],this.i=null,this.w=null,this.s=null}return u(t,[{key:"determinant",get:function(){var t=this.m;return t[0]*t[3]-t[1]*t[2]}},{key:"isIdentity",get:function(){if(null===this.i){var t=this.m;this.i=1===t[0]&&0===t[1]&&0===t[2]&&1===t[3]&&0===t[4]&&0===t[5]}return this.i}},{key:"point",value:function(t,n){var e=this.m;return{x:e[0]*t+e[2]*n+e[4],y:e[1]*t+e[3]*n+e[5]}}},{key:"translateSelf",value:function(){var t=arguments.length>0&&void 0!==arguments[0]?arguments[0]:0,n=arguments.length>1&&void 0!==arguments[1]?arguments[1]:0;if(!t&&!n)return this;var e=this.m;return e[4]+=e[0]*t+e[2]*n,e[5]+=e[1]*t+e[3]*n,this.w=this.s=this.i=null,this}},{key:"rotateSelf",value:function(){var t=arguments.length>0&&void 0!==arguments[0]?arguments[0]:0;if(t%=360){t=w(t);var n=M(t),e=E(t),r=this.m,i=r[0],u=r[1];r[0]=i*e+r[2]*n,r[1]=u*e+r[3]*n,r[2]=r[2]*e-i*n,r[3]=r[3]*e-u*n,this.w=this.s=this.i=null}return this}},{key:"scaleSelf",value:function(){var t=arguments.length>0&&void 0!==arguments[0]?arguments[0]:1,n=arguments.length>1&&void 0!==arguments[1]?arguments[1]:1;if(1!==t||1!==n){var e=this.m;e[0]*=t,e[1]*=t,e[2]*=n,e[3]*=n,this.w=this.s=this.i=null}return this}},{key:"skewSelf",value:function(t,n){if(n%=360,(t%=360)||n){var e=this.m,r=e[0],i=e[1],u=e[2],o=e[3];t&&(t=R(w(t)),e[2]+=r*t,e[3]+=i*t),n&&(n=R(w(n)),e[0]+=u*n,e[1]+=o*n),this.w=this.s=this.i=null}return this}},{key:"resetSelf",value:function(){var t=arguments.length>0&&void 0!==arguments[0]?arguments[0]:1,n=arguments.length>1&&void 0!==arguments[1]?arguments[1]:0,e=arguments.length>2&&void 0!==arguments[2]?arguments[2]:0,r=arguments.length>3&&void 0!==arguments[3]?arguments[3]:1,i=arguments.length>4&&void 0!==arguments[4]?arguments[4]:0,u=arguments.length>5&&void 0!==arguments[5]?arguments[5]:0,o=this.m;return o[0]=t,o[1]=n,o[2]=e,o[3]=r,o[4]=i,o[5]=u,this.w=this.s=this.i=null,this}},{key:"recomposeSelf",value:function(){var t=arguments.length>0&&void 0!==arguments[0]?arguments[0]:null,n=arguments.length>1&&void 0!==arguments[1]?arguments[1]:null,e=arguments.length>2&&void 0!==arguments[2]?arguments[2]:null,r=arguments.length>3&&void 0!==arguments[3]?arguments[3]:null,i=arguments.length>4&&void 0!==arguments[4]?arguments[4]:null;return this.isIdentity||this.resetSelf(),t&&(t.x||t.y)&&this.translateSelf(t.x,t.y),n&&this.rotateSelf(n),e&&(e.x&&this.skewSelf(e.x,0),e.y&&this.skewSelf(0,e.y)),!r||1===r.x&&1===r.y||this.scaleSelf(r.x,r.y),i&&(i.x||i.y)&&this.translateSelf(i.x,i.y),this}},{key:"decompose",value:function(){var t=arguments.length>0&&void 0!==arguments[0]?arguments[0]:0,n=arguments.length>1&&void 0!==arguments[1]?arguments[1]:0,e=this.m,r=e[0]*e[0]+e[1]*e[1],i=[[e[0],e[1]],[e[2],e[3]]],u=N(r);if(0===u)return{origin:{x:d(e[4]),y:d(e[5])},translate:{x:d(t),y:d(n)},scale:{x:0,y:0},skew:{x:0,y:0},rotate:0};i[0][0]/=u,i[0][1]/=u;var o=e[0]*e[3]-e[1]*e[2]<0;o&&(u=-u);var a=i[0][0]*i[1][0]+i[0][1]*i[1][1];i[1][0]-=i[0][0]*a,i[1][1]-=i[0][1]*a;var l,s=N(i[1][0]*i[1][0]+i[1][1]*i[1][1]);return 0===s?{origin:{x:d(e[4]),y:d(e[5])},translate:{x:d(t),y:d(n)},scale:{x:d(u),y:0},skew:{x:0,y:0},rotate:0}:(i[1][0]/=s,i[1][1]/=s,a/=s,i[1][1]<0?(l=x(P(i[1][1])),i[0][1]<0&&(l=360-l)):l=x(I(i[0][1])),o&&(l=-l),a=x(F(a,N(i[0][0]*i[0][0]+i[0][1]*i[0][1]))),o&&(a=-a),{origin:{x:d(e[4]),y:d(e[5])},translate:{x:d(t),y:d(n)},scale:{x:d(u),y:d(s)},skew:{x:d(a),y:0},rotate:d(l)})}},{key:"multiply",value:function(t){return this.clone().multiplySelf(t)}},{key:"preMultiply",value:function(t){return t.multiply(this)}},{key:"multiplySelf",value:function(t){var n=q(this.m,t.m),e=n.a,r=n.b,i=n.c,u=n.d,o=n.tx,a=n.ty;return this.resetSelf(e,r,i,u,o,a),this}},{key:"preMultiplySelf",value:function(t){var n=q(t.m,this.m),e=n.a,r=n.b,i=n.c,u=n.d,o=n.tx,a=n.ty;return this.resetSelf(e,r,i,u,o,a),this}},{key:"clone",value:function(){var t=this.m;return new this.constructor(t[0],t[1],t[2],t[3],t[4],t[5])}},{key:"toString",value:function(){var t=arguments.length>0&&void 0!==arguments[0]?arguments[0]:" ";if(null===this.s){var n=this.m.map((function(t){return d(t)}));1===n[0]&&0===n[1]&&0===n[2]&&1===n[3]?this.s="translate("+n[4]+t+n[5]+")":this.s="matrix("+n.join(t)+")"}return this.s}}],[{key:"create",value:function(t){return t?Array.isArray(t)?f(this,v(t)):t instanceof this?t.clone():(new this).recomposeSelf(t.origin,t.rotate,t.skew,t.scale,t.translate):new this}}]),t}();function q(t,n){return{a:t[0]*n[0]+t[2]*n[1],b:t[1]*n[0]+t[3]*n[1],c:t[0]*n[2]+t[2]*n[3],d:t[1]*n[2]+t[3]*n[3],tx:t[0]*n[4]+t[2]*n[5]+t[4],ty:t[1]*n[4]+t[3]*n[5]+t[5]}}function B(t,n,e){return t>=.5?e:n}function D(t,n,e){return 0===t||n===e?n:t*(e-n)+n}function L(t,n,e){var r=D(t,n,e);return r<=0?0:r}function C(t,n,e){var r=D(t,n,e);return r<=0?0:r>=1?1:r}function V(t,n,e){return 0===t?n:1===t?e:{x:D(t,n.x,e.x),y:D(t,n.y,e.y)}}function G(t,n,e){var r=function(t,n,e){return Math.round(D(t,n,e))}(t,n,e);return r<=0?0:r>=255?255:r}function z(t,n,e){return 0===t?n:1===t?e:{r:G(t,n.r,e.r),g:G(t,n.g,e.g),b:G(t,n.b,e.b),a:D(t,null==n.a?1:n.a,null==e.a?1:e.a)}}function Y(t,n){for(var e=[],r=0;r<t;r++)e.push(n);return e}function $(t,n){if(--n<=0)return t;var e=(t=Object.assign([],t)).length;do{for(var r=0;r<e;r++)t.push(t[r])}while(--n>0);return t}var U,Q=function(){function t(n){r(this,t),this.list=n,this.length=n.length}return u(t,[{key:"setAttribute",value:function(t,n){for(var e=this.list,r=0;r<this.length;r++)e[r].setAttribute(t,n)}},{key:"removeAttribute",value:function(t){for(var n=this.list,e=0;e<this.length;e++)n[e].removeAttribute(t)}},{key:"style",value:function(t,n){for(var e=this.list,r=0;r<this.length;r++)e[r].style[t]=n}}]),t}(),H=/-./g,J=function(t,n){return n.toUpperCase()};function Z(t){return"function"==typeof t?t:B}function K(t){return t?"function"==typeof t?t:Array.isArray(t)?function(t){var n=arguments.length>1&&void 0!==arguments[1]?arguments[1]:_;if(!Array.isArray(t))return n;switch(t.length){case 1:return j(t[0])||n;case 2:return j(t[0],t[1])||n;case 4:return k(t[0],t[1],t[2],t[3])||n}return n}(t,null):function(t,n){var e=arguments.length>2&&void 0!==arguments[2]?arguments[2]:_;switch(t){case"linear":return _;case"steps":return j(n.steps||1,n.jump||0)||e;case"bezier":case"cubic-bezier":return k(n.x1||0,n.y1||0,n.x2||0,n.y2||0)||e}return e}(t.type,t.value,null):null}function W(t,n,e){var r=arguments.length>3&&void 0!==arguments[3]&&arguments[3],i=n.length-1;if(t<=n[0].t)return r?[0,0,n[0].v]:n[0].v;if(t>=n[i].t)return r?[i,1,n[i].v]:n[i].v;var u,o=n[0],a=null;for(u=1;u<=i;u++){if(!(t>n[u].t)){a=n[u];break}o=n[u]}return null==a?r?[i,1,n[i].v]:n[i].v:o.t===a.t?r?[u,1,a.v]:a.v:(t=(t-o.t)/(a.t-o.t),o.e&&(t=o.e(t)),r?[u,t,e(t,o.v,a.v)]:e(t,o.v,a.v))}function X(t,n){var e=arguments.length>2&&void 0!==arguments[2]?arguments[2]:null;return t&&t.length?"function"!=typeof n?null:("function"!=typeof e&&(e=null),function(r){var i=W(r,t,n);return null!=i&&e&&(i=e(i)),i}):null}function tt(t,n){return t.t-n.t}function nt(t,n,r,i,u){var o,a="@"===r[0],l="#"===r[0],s=U[r],f=B;switch(a?(o=r.substr(1),r=o.replace(H,J)):l&&(r=r.substr(1)),e(s)){case"function":if(f=s(i,u,W,K,r,a,n,t),l)return f;break;case"string":f=X(i,Z(s));break;case"object":if((f=X(i,Z(s.i),s.f))&&"function"==typeof s.u)return s.u(n,f,r,a,t)}return f?function(t,n,e){if(arguments.length>3&&void 0!==arguments[3]&&arguments[3])return t instanceof Q?function(r){return t.style(n,e(r))}:function(r){return t.style[n]=e(r)};if(Array.isArray(n)){var r=n.length;return function(i){var u=e(i);if(null==u)for(var o=0;o<r;o++)t[o].removeAttribute(n);else for(var a=0;a<r;a++)t[a].setAttribute(n,u)}}return function(r){var i=e(r);null==i?t.removeAttribute(n):t.setAttribute(n,i)}}(n,r,f,a):null}function et(t,n,r,i){if(!i||"object"!==e(i))return null;var u=null,o=null;return Array.isArray(i)?o=function(t){if(!t||!t.length)return null;for(var n=0;n<t.length;n++)t[n].e&&(t[n].e=K(t[n].e));return t.sort(tt)}(i):(o=i.keys,u=i.data||null),o?nt(t,n,r,o,u):null}function rt(t,n,e){if(!e)return null;var r=[];for(var i in e)if(e.hasOwnProperty(i)){var u=et(t,n,i,e[i]);u&&r.push(u)}return r.length?r:null}function it(t,n){if(!n.settings.duration||n.settings.duration<0)return null;var e,r,i,u,o,a=function(t,n){if(!n)return null;var e=[];if(Array.isArray(n))for(var r=n.length,i=0;i<r;i++){var u=n[i];if(2===u.length){var o=null;if("string"==typeof u[0])o=t.getElementById(u[0]);else if(Array.isArray(u[0])){o=[];for(var a=0;a<u[0].length;a++)if("string"==typeof u[0][a]){var l=t.getElementById(u[0][a]);l&&o.push(l)}o=o.length?1===o.length?o[0]:new Q(o):null}if(o){var s=rt(t,o,u[1]);s&&(e=e.concat(s))}}}else for(var f in n)if(n.hasOwnProperty(f)){var c=t.getElementById(f);if(c){var h=rt(t,c,n[f]);h&&(e=e.concat(h))}}return e.length?e:null}(t,n.elements);return a?(e=a,r=n.settings,i=r.duration,u=e.length,o=null,function(t,n){var a=r.iterations||1/0,l=(r.alternate&&a%2==0)^r.direction>0?i:0,s=t%i,f=1+(t-s)/i;n*=r.direction,r.alternate&&f%2==0&&(n=-n);var c=!1;if(f>a)s=l,c=!0,-1===r.fill&&(s=r.direction>0?0:i);else if(n<0&&(s=i-s),s===o)return!1;o=s;for(var h=0;h<u;h++)e[h](s);return c}):null}function ut(t,n){for(var e=n.querySelectorAll("svg"),r=0;r<e.length;r++)if(e[r].id===t.root&&!e[r].svgatorAnimation)return e[r].svgatorAnimation=!0,e[r];return null}function ot(t){var n=function(t){return t.shadowRoot};return document?Array.from(t.querySelectorAll(":not("+["a","area","audio","br","canvas","circle","datalist","embed","g","head","hr","iframe","img","input","link","object","path","polygon","rect","script","source","style","svg","title","track","video"].join()+")")).filter(n).map(n):[]}function at(t){var n=arguments.length>1&&void 0!==arguments[1]?arguments[1]:document,e=arguments.length>2&&void 0!==arguments[2]?arguments[2]:0,r=ut(t,n);if(r)return r;if(e>=20)return null;for(var i=ot(n),u=0;u<i.length;u++){var o=at(t,i[u],e+1);if(o)return o}return null}function lt(t,n){if(U=n,!t||!t.root||!Array.isArray(t.animations))return null;var e=at(t);if(!e)return null;var r=t.animations.map((function(t){return it(e,t)})).filter((function(t){return!!t}));return r.length?{svg:e,animations:r,animationSettings:t.animationSettings,options:t.options||void 0}:null}function st(t){var n=arguments.length>1&&void 0!==arguments[1]?arguments[1]:null,e=arguments.length>2&&void 0!==arguments[2]?arguments[2]:Number,r=arguments.length>3&&void 0!==arguments[3]?arguments[3]:"undefined"!=typeof BigInt&&BigInt,i="0x"+(t.replace(/[^0-9a-fA-F]+/g,"")||27);return n&&r&&e.isSafeInteger&&!e.isSafeInteger(+i)?e(r(i))%n+n:+i}function ft(t,n,e){return!t||!e||n>t.length?t:t.substring(0,n)+ft(t.substring(n+1),e,e)}function ct(t){var n=arguments.length>1&&void 0!==arguments[1]?arguments[1]:27;return!t||t%n?t%n:[0,1].includes(n)?n:ct(t/n,n)}function ht(t,n,e){if(t&&t.length){var r=st(e),i=ct(r)+5,u=ft(t,ct(r,5),i);return u=u.replace(/\x7c$/g,"==").replace(/\x2f$/g,"="),u=function(t,n,e){var r=+("0x"+t.substring(0,4));t=t.substring(4);for(var i=st(n,r)%r+e%27,u=[],o=0;o<t.length;o+=2)if("|"!==t[o]){var a=+("0x"+t[o]+t[o+1])-i;u.push(a)}else{var l=+("0x"+t.substring(o+1,o+1+4))-i;o+=3,u.push(l)}return String.fromCharCode.apply(String,u)}(u=(u=atob(u)).replace(/[\x41-\x5A]/g,""),n,r),u=JSON.parse(u)}}var vt=[{key:"alternate",def:!1},{key:"fill",def:1},{key:"iterations",def:0},{key:"direction",def:1},{key:"speed",def:1},{key:"fps",def:100}],yt=function(){function t(n,e){var i=this,u=arguments.length>2&&void 0!==arguments[2]?arguments[2]:null;r(this,t),this._id=0,this._running=!1,this._rollingBack=!1,this._animations=n,this._settings=e,(!u||u<"2022-05-02")&&delete this._settings.speed,vt.forEach((function(t){i._settings[t.key]=i._settings[t.key]||t.def})),this.duration=e.duration,this.offset=e.offset||0,this.rollbackStartOffset=0}return u(t,[{key:"alternate",get:function(){return this._settings.alternate}},{key:"fill",get:function(){return this._settings.fill}},{key:"iterations",get:function(){return this._settings.iterations}},{key:"direction",get:function(){return this._settings.direction}},{key:"speed",get:function(){return this._settings.speed}},{key:"fps",get:function(){return this._settings.fps}},{key:"maxFiniteDuration",get:function(){return this.iterations>0?this.iterations*this.duration:this.duration}},{key:"_apply",value:function(t){for(var n=arguments.length>1&&void 0!==arguments[1]?arguments[1]:{},e=this._animations,r=e.length,i=0,u=0;u<r;u++)n[u]?i++:(n[u]=e[u](t,1),n[u]&&i++);return i}},{key:"_rollback",value:function(t){var n=this,e=1/0,r=null;this.rollbackStartOffset=t,this._rollingBack=!0,this._running=!0;this._id=window.requestAnimationFrame((function i(u){if(n._rollingBack){null==r&&(r=u);var o=Math.round(t-(u-r)*n.speed);if(o>n.duration&&e!==1/0){var a=!!n.alternate&&o/n.duration%2>1,l=o%n.duration;o=(l+=a?n.duration:0)||n.duration}var s=(n.fps?1e3/n.fps:0)*n.speed,f=Math.max(0,o);f<=e-s&&(n.offset=f,e=f,n._apply(f));var c=n.iterations>0&&-1===n.fill&&o>=n.maxFiniteDuration;(o<=0||n.offset<o||c)&&n.stop(),n._id=window.requestAnimationFrame(i)}}))}},{key:"_start",value:function(){var t=this,n=arguments.length>0&&void 0!==arguments[0]?arguments[0]:0,e=-1/0,r=null,i={};this._running=!0;var u=function u(o){null==r&&(r=o);var a=Math.round((o-r)*t.speed+n),l=(t.fps?1e3/t.fps:0)*t.speed;if(a>=e+l&&!t._rollingBack&&(t.offset=a,e=a,t._apply(a,i)===t._animations.length))return void t.pause(!0);t._id=window.requestAnimationFrame(u)};this._id=window.requestAnimationFrame(u)}},{key:"_pause",value:function(){this._id&&window.cancelAnimationFrame(this._id),this._running=!1}},{key:"play",value:function(){if(!this._running)return this._rollingBack?this._rollback(this.offset):this._start(this.offset)}},{key:"stop",value:function(){this._pause(),this.offset=0,this.rollbackStartOffset=0,this._rollingBack=!1,this._apply(0)}},{key:"reachedToEnd",value:function(){return this.iterations>0&&this.offset>=this.iterations*this.duration}},{key:"restart",value:function(){var t=arguments.length>0&&void 0!==arguments[0]&&arguments[0];this.stop(t),this.play(t)}},{key:"pause",value:function(){this._pause()}},{key:"reverse",value:function(){this.direction=-this.direction}}],[{key:"build",value:function(t,n){delete t.animationSettings,t.options=ht(t.options,t.root,"5c7f360c"),t.animations.map((function(n){n.settings=ht(n.s,t.root,"5c7f360c"),delete n.s,t.animationSettings||(t.animationSettings=n.settings)}));var e=t.version;if(!(t=lt(t,n)))return null;var r=t.options||{},i=new this(t.animations,t.animationSettings,e);return{el:t.svg,options:r,player:i}}},{key:"push",value:function(t){return this.build(t)}},{key:"init",value:function(){var t=this,n=window.__SVGATOR_PLAYER__&&window.__SVGATOR_PLAYER__["5c7f360c"];Array.isArray(n)&&n.splice(0).forEach((function(n){return t.build(n)}))}}]),t}();function gt(t){return d(t)+""}function pt(t){var n=arguments.length>1&&void 0!==arguments[1]?arguments[1]:" ";return t&&t.length?t.map(gt).join(n):""}function dt(t){return t?null==t.a||t.a>=1?function(t){if(!t)return"transparent";var n=function(t){return parseInt(t).toString(16).padStart(2,"0")};return function(t){for(var n=[],e="#"===t[0]?n.push("#"):0;e<t.length;e+=2){if(t[e]!==t[e+1])return t;n.push(t[e])}return n.join("")}("#"+n(t.r)+n(t.g)+n(t.b)+(null==t.a||t.a>=1?"":n(255*t.a)))}(t):"rgba("+t.r+","+t.g+","+t.b+","+t.a+")":"transparent"}function mt(t){return t?"url(#"+t+")":"none"}!function(){for(var t=0,n=["ms","moz","webkit","o"],e=0;e<n.length&&!window.requestAnimationFrame;++e)window.requestAnimationFrame=window[n[e]+"RequestAnimationFrame"],window.cancelAnimationFrame=window[n[e]+"CancelAnimationFrame"]||window[n[e]+"CancelRequestAnimationFrame"];window.requestAnimationFrame||(window.requestAnimationFrame=function(n){var e=Date.now(),r=Math.max(0,16-(e-t)),i=window.setTimeout((function(){n(e+r)}),r);return t=e+r,i},window.cancelAnimationFrame=window.clearTimeout)}();var bt={f:null,i:function(t,n,e){return 0===t?n:1===t?e:{x:L(t,n.x,e.x),y:L(t,n.y,e.y)}},u:function(t,n){return function(e){var r=n(e);t.setAttribute("rx",gt(r.x)),t.setAttribute("ry",gt(r.y))}}},wt={f:null,i:function(t,n,e){return 0===t?n:1===t?e:{width:L(t,n.width,e.width),height:L(t,n.height,e.height)}},u:function(t,n){return function(e){var r=n(e);t.setAttribute("width",gt(r.width)),t.setAttribute("height",gt(r.height))}}};Object.freeze({M:2,L:2,Z:0,H:1,V:1,C:6,Q:4,T:2,S:4,A:7});var xt={},_t=null;function At(t){var n=function(){if(_t)return _t;if("object"!==("undefined"==typeof document?"undefined":e(document))||!document.createElementNS)return{};var t=document.createElementNS("http://www.w3.org/2000/svg","svg");return t&&t.style?(t.style.position="absolute",t.style.opacity="0.01",t.style.zIndex="-9999",t.style.left="-9999px",t.style.width="1px",t.style.height="1px",_t={svg:t}):{}}().svg;if(!n)return function(t){return null};var r=document.createElementNS(n.namespaceURI,"path");r.setAttributeNS(null,"d",t),r.setAttributeNS(null,"fill","none"),r.setAttributeNS(null,"stroke","none"),n.appendChild(r);var i=r.getTotalLength();return function(t){var n=r.getPointAtLength(i*t);return{x:n.x,y:n.y}}}function kt(t){return xt[t]?xt[t]:xt[t]=At(t)}function St(t,n,e,r){if(!t||!r)return!1;var i=["M",t.x,t.y];if(n&&e&&(i.push("C"),i.push(n.x),i.push(n.y),i.push(e.x),i.push(e.y)),n?!e:e){var u=n||e;i.push("Q"),i.push(u.x),i.push(u.y)}return n||e||i.push("L"),i.push(r.x),i.push(r.y),i.join(" ")}function Ot(t,n,e,r){var i=arguments.length>4&&void 0!==arguments[4]?arguments[4]:1,u=St(t,n,e,r),o=kt(u);try{return o(i)}catch(t){return null}}function jt(t,n,e){return t+(n-t)*e}function Mt(t,n,e){var r=arguments.length>3&&void 0!==arguments[3]&&arguments[3],i={x:jt(t.x,n.x,e),y:jt(t.y,n.y,e)};return r&&(i.a=Et(t,n)),i}function Et(t,n){return Math.atan2(n.y-t.y,n.x-t.x)}function Pt(t,n,e,r){var i=1-r;return i*i*t+2*i*r*n+r*r*e}function It(t,n,e,r){return 2*(1-r)*(n-t)+2*r*(e-n)}function Rt(t,n,e,r){var i=arguments.length>4&&void 0!==arguments[4]&&arguments[4],u=Ot(t,n,null,e,r);return u||(u={x:Pt(t.x,n.x,e.x,r),y:Pt(t.y,n.y,e.y,r)}),i&&(u.a=Ft(t,n,e,r)),u}function Ft(t,n,e,r){return Math.atan2(It(t.y,n.y,e.y,r),It(t.x,n.x,e.x,r))}function Nt(t,n,e,r,i){var u=i*i;return i*u*(r-t+3*(n-e))+3*u*(t+e-2*n)+3*i*(n-t)+t}function Tt(t,n,e,r,i){var u=1-i;return 3*(u*u*(n-t)+2*u*i*(e-n)+i*i*(r-e))}function qt(t,n,e,r,i){var u=arguments.length>5&&void 0!==arguments[5]&&arguments[5],o=Ot(t,n,e,r,i);return o||(o={x:Nt(t.x,n.x,e.x,r.x,i),y:Nt(t.y,n.y,e.y,r.y,i)}),u&&(o.a=Bt(t,n,e,r,i)),o}function Bt(t,n,e,r,i){return Math.atan2(Tt(t.y,n.y,e.y,r.y,i),Tt(t.x,n.x,e.x,r.x,i))}function Dt(t,n,e){var r=arguments.length>3&&void 0!==arguments[3]&&arguments[3];if(Ct(n)){if(Vt(e))return Rt(n,e.start,e,t,r)}else if(Ct(e)){if(Gt(n))return Rt(n,n.end,e,t,r)}else{if(Gt(n))return Vt(e)?qt(n,n.end,e.start,e,t,r):Rt(n,n.end,e,t,r);if(Vt(e))return Rt(n,e.start,e,t,r)}return Mt(n,e,t,r)}function Lt(t,n,e){var r=Dt(t,n,e,!0);return r.a=x(function(t){return arguments.length>1&&void 0!==arguments[1]&&arguments[1]?t+Math.PI:t}(r.a)),r}function Ct(t){return!t.type||"corner"===t.type}function Vt(t){return null!=t.start&&!Ct(t)}function Gt(t){return null!=t.end&&!Ct(t)}var zt=new T;var Yt={f:gt,i:D},$t={f:gt,i:C};function Ut(t,n,e){return t.map((function(t){return function(t,n,e){var r=t.v;if(!r||"g"!==r.t||r.s||!r.v||!r.r)return t;var i=e.getElementById(r.r),u=i&&i.querySelectorAll("stop")||[];return r.s=r.v.map((function(t,n){var e=u[n]&&u[n].getAttribute("offset");return{c:t,o:e=d(parseInt(e)/100)}})),delete r.v,t}(t,0,e)}))}var Qt={gt:"gradientTransform",c:{x:"cx",y:"cy"},rd:"r",f:{x:"x1",y:"y1"},to:{x:"x2",y:"y2"}};function Ht(t,n,r,i,u,o,a,l){return Ut(t,0,l),n=function(t,n,e){for(var r,i,u,o=t.length-1,a={},l=0;l<=o;l++)(r=t[l]).e&&(r.e=n(r.e)),r.v&&"g"===(i=r.v).t&&i.r&&(u=e.getElementById(i.r))&&(a[i.r]={e:u,s:u.querySelectorAll("stop")});return a}(t,i,l),function(i){var u=r(i,t,Jt);if(!u)return"none";if("c"===u.t)return dt(u.v);if("g"===u.t){if(!n[u.r])return mt(u.r);var o=n[u.r];return function(t,n){for(var e=t.s,r=e.length;r<n.length;r++){var i=e[e.length-1].cloneNode();i.id=Wt(i.id),t.e.appendChild(i),e=t.s=t.e.querySelectorAll("stop")}for(var u=0,o=e.length,a=n.length-1;u<o;u++)e[u].setAttribute("stop-color",dt(n[Math.min(u,a)].c)),e[u].setAttribute("offset",n[Math.min(u,a)].o)}(o,u.s),Object.keys(Qt).forEach((function(t){if(void 0!==u[t])if("object"!==e(Qt[t])){var n,r="gt"===t?(n=u[t],Array.isArray(n)?"matrix("+n.join(" ")+")":""):u[t],i=Qt[t];o.e.setAttribute(i,r)}else Object.keys(Qt[t]).forEach((function(n){if(void 0!==u[t][n]){var e=u[t][n],r=Qt[t][n];o.e.setAttribute(r,e)}}))})),mt(u.r)}return"none"}}function Jt(t,e,r){if(0===t)return e;if(1===t)return r;if(e&&r){var i=e.t;if(i===r.t)switch(e.t){case"c":return{t:i,v:z(t,e.v,r.v)};case"g":if(e.r===r.r){var u={t:i,s:Zt(t,e.s,r.s),r:e.r};return e.gt&&r.gt&&(u.gt=function(t,n,e){var r=n.length;if(r!==e.length)return B(t,n,e);for(var i=new Array(r),u=0;u<r;u++)i[u]=D(t,n[u],e[u]);return i}(t,e.gt,r.gt)),e.c?(u.c=V(t,e.c,r.c),u.rd=L(t,e.rd,r.rd)):e.f&&(u.f=V(t,e.f,r.f),u.to=V(t,e.to,r.to)),u}}if("c"===e.t&&"g"===r.t||"c"===r.t&&"g"===e.t){var o="c"===e.t?e:r,a="g"===e.t?n({},e):n({},r),l=a.s.map((function(t){return{c:o.v,o:t.o}}));return a.s="c"===e.t?Zt(t,l,a.s):Zt(t,a.s,l),a}}return B(t,e,r)}function Zt(t,n,e){if(n.length===e.length)return n.map((function(n,r){return Kt(t,n,e[r])}));for(var r=Math.max(n.length,e.length),i=[],u=0;u<r;u++){var o=Kt(t,n[Math.min(u,n.length-1)],e[Math.min(u,e.length-1)]);i.push(o)}return i}function Kt(t,n,e){return{o:C(t,n.o,e.o||0),c:z(t,n.c,e.c||{})}}function Wt(t){return t.replace(/-fill-([0-9]+)$/,(function(t,n){return"-fill-"+(+n+1)}))}var Xt={fill:Ht,"fill-opacity":$t,stroke:Ht,"stroke-opacity":$t,"stroke-width":Yt,"stroke-dashoffset":{f:gt,i:D},"stroke-dasharray":{f:function(t){var n=arguments.length>1&&void 0!==arguments[1]?arguments[1]:" ";return t&&t.length>0&&(t=t.map((function(t){return d(t,4)}))),pt(t,n)},i:function(t,n,e){var r,i,u,o=n.length,a=e.length;if(o!==a)if(0===o)n=Y(o=a,0);else if(0===a)a=o,e=Y(o,0);else{var l=(u=(r=o)*(i=a)/function(t,n){for(var e;n;)e=n,n=t%n,t=e;return t||1}(r,i))<0?-u:u;n=$(n,Math.floor(l/o)),e=$(e,Math.floor(l/a)),o=a=l}for(var s=[],f=0;f<o;f++)s.push(d(L(t,n[f],e[f])));return s}},opacity:$t,transform:function(t,n,r,i){if(!(t=function(t,n){if(!t||"object"!==e(t))return null;var r=!1;for(var i in t)t.hasOwnProperty(i)&&(t[i]&&t[i].length?(t[i].forEach((function(t){t.e&&(t.e=n(t.e))})),r=!0):delete t[i]);return r?t:null}(t,i)))return null;var u=function(e,i,u){var o=arguments.length>3&&void 0!==arguments[3]?arguments[3]:null;return t[e]?r(i,t[e],u):n&&n[e]?n[e]:o};return n&&n.a&&t.o?function(n){var e=r(n,t.o,Lt);return zt.recomposeSelf(e,u("r",n,D,0)+e.a,u("k",n,V),u("s",n,V),u("t",n,V)).toString()}:function(t){return zt.recomposeSelf(u("o",t,Dt,null),u("r",t,D,0),u("k",t,V),u("s",t,V),u("t",t,V)).toString()}},r:Yt,"#size":wt,"#radius":bt,_:function(t,n){if(Array.isArray(t))for(var e=0;e<t.length;e++)this[t[e]]=n;else this[t]=n}},tn=function(t){!function(t,n){if("function"!=typeof n&&null!==n)throw new TypeError("Super expression must either be null or a function");t.prototype=Object.create(n&&n.prototype,{constructor:{value:t,writable:!0,configurable:!0}}),n&&l(t,n)}(o,t);var n,e,i=(n=o,e=s(),function(){var t,r=a(n);if(e){var i=a(this).constructor;t=Reflect.construct(r,arguments,i)}else t=r.apply(this,arguments);return c(this,t)});function o(){return r(this,o),i.apply(this,arguments)}return u(o,null,[{key:"build",value:function(t){var n=h(a(o),"build",this).call(this,t,Xt);if(!n)return null;n.el,n.options,function(t,n,e){t.play()}(n.player)}}]),o}(yt);return tn.init(),tn}));
(function(s,i,o,w,d,a,b){w[o]=w[o]||{};w[o][s]=w[o][s]||[];w[o][s].push(i);})('5c7f360c',{"root":"hero-main","version":"2022-05-04","animations":[{"elements":{"hero-main-u-poker-chip":{"transform":{"data":{"o":{"x":282.875895,"y":131.717069,"type":"corner"},"s":{"x":0.749205,"y":0.749205},"t":{"x":-216.300797,"y":-273.732315}},"keys":{"r":[{"t":0,"v":5,"e":[0.42,0,0.58,1]},{"t":1500,"v":-5,"e":[0.42,0,0.58,1]},{"t":3000,"v":5,"e":[0.42,0,0.58,1]}]}}},"hero-main-u-left":{"transform":{"data":{"o":{"x":573.600225,"y":566.856605,"type":"corner"},"t":{"x":-565.633933,"y":-555.612301}},"keys":{"r":[{"t":0,"v":380.153564,"e":[0.42,0,0.58,1]},{"t":1500,"v":351.66648,"e":[0.42,0,0.58,1]},{"t":3000,"v":380.15}]}}},"hero-main-s-g1":{"transform":{"data":{"o":{"x":804.903534,"y":213.951721,"type":"corner"},"t":{"x":-804.903534,"y":-213.951721}},"keys":{"r":[{"t":0,"v":-19.821113,"e":[0.42,0,0.58,1]},{"t":1500,"v":4.043656,"e":[0.42,0,0.58,1]},{"t":3000,"v":-19.821113}]}}},"hero-main-u-card_reset":{"transform":{"data":{"o":{"x":119.552226,"y":365.580829,"type":"corner"},"t":{"x":-103.728404,"y":-112.84137}},"keys":{"r":[{"t":0,"v":0.95},{"t":700,"v":7.5,"e":[0.42,0,0.58,1]},{"t":2200,"v":-7.5,"e":[0.424279,0,0.706102,0.522129]},{"t":3000,"v":0.951338,"e":[0.287498,0.520329,0.584961,1]}]}}}},"s":"MIDA1ZGI3TDVlYTBiMWMFlOWRiMGE1YWJhYTVMlNzZVNmY2YzZjUDZjNNjg1ZWEwYTVhZWExOLWZiMGE1VWFiYWE1ZTBc2NmQ2OFc1ZWE1YjBAhMWFlOWRJYjBhNVhhOYmFhYWY1ZTc2NmM2OQDVlYTJJYTVhOGE4VzUVlNzY2ZDY4WTVlOWRWhOGIwYTFhZURhYTlkVYjBhMTVlNzZHYTI5ZBEZhOGFmYTE2ODVlYWDZhY2ExYTFhMDVlNzYX2ZDY4NWVhMkdhY2FmSNWU3NjZkNmM2Y2I5"}],"options":"MQDAxMDkxMzg4OThhNzBc4ODhhMzg1MDM4ODIU4NTc3N2EzODkz"},'__SVGATOR_PLAYER__',window,document)
]]></script>
</svg>
