<?xml version="1.0" encoding="UTF-8" standalone="no"?>
<svg
   viewBox="0 0 1158.5827 901.81932"
   version="1.1"
   id="svg15"
   sodipodi:docname="hero-main.svg"
   xml:space="preserve"
   inkscape:version="1.3.2 (091e20e, 2023-11-25, custom)"
   width="1158.5826"
   height="901.81934"
   xmlns:inkscape="http://www.inkscape.org/namespaces/inkscape"
   xmlns:sodipodi="http://sodipodi.sourceforge.net/DTD/sodipodi-0.dtd"
   xmlns="http://www.w3.org/2000/svg"
   xmlns:svg="http://www.w3.org/2000/svg"><defs
     id="defs15"><inkscape:path-effect
       effect="perspective-envelope"
       up_left_point="1024.4225,315.19"
       up_right_point="1120.589,315.19"
       down_left_point="1040.918,406.7269"
       down_right_point="1104.0935,406.7269"
       id="path-effect25"
       is_visible="true"
       lpeversion="1"
       deform_type="perspective"
       horizontal_mirror="false"
       vertical_mirror="true"
       overflow_perspective="false" /><inkscape:path-effect
       effect="perspective-envelope"
       up_left_point="1030.7422,333.94331"
       up_right_point="1121.7251,312.02429"
       down_left_point="1040.918,406.7269"
       down_right_point="1096.7215,395.96688"
       id="path-effect9"
       is_visible="true"
       lpeversion="1"
       deform_type="perspective"
       horizontal_mirror="false"
       vertical_mirror="false"
       overflow_perspective="false" /><inkscape:path-effect
       effect="perspective-envelope"
       up_left_point="585.91301,606.66255"
       up_right_point="613.58699,606.66255"
       down_left_point="576.5,636.5"
       down_right_point="623,636.5"
       id="path-effect8"
       is_visible="true"
       lpeversion="1"
       deform_type="perspective"
       horizontal_mirror="false"
       vertical_mirror="true"
       overflow_perspective="false" /><inkscape:path-effect
       effect="perspective-envelope"
       up_left_point="585.91301,606.66255"
       up_right_point="613.58699,606.66255"
       down_left_point="576.5,636.5"
       down_right_point="623,636.5"
       id="path-effect6"
       is_visible="true"
       lpeversion="1"
       deform_type="perspective"
       horizontal_mirror="false"
       vertical_mirror="true"
       overflow_perspective="false" /><inkscape:path-effect
       effect="perspective-envelope"
       up_left_point="585.91301,606.66255"
       up_right_point="613.58699,606.66255"
       down_left_point="576.5,636.5"
       down_right_point="623,636.5"
       id="path-effect3"
       is_visible="true"
       lpeversion="1"
       deform_type="perspective"
       horizontal_mirror="false"
       vertical_mirror="true"
       overflow_perspective="false" /><inkscape:path-effect
       effect="perspective-envelope"
       up_left_point="485.85053,545.99185"
       up_right_point="574.00084,545.99185"
       down_left_point="503.36426,620.03035"
       down_right_point="556.4871,620.03035"
       id="path-effect2"
       is_visible="true"
       lpeversion="1"
       deform_type="perspective"
       horizontal_mirror="false"
       vertical_mirror="true"
       overflow_perspective="false" /><inkscape:path-effect
       effect="perspective-envelope"
       up_left_point="108.54695,218.9399"
       up_right_point="298.02018,218.9399"
       down_left_point="110.45,474.89022"
       down_right_point="298.02018,474.89022"
       id="path-effect1"
       is_visible="true"
       lpeversion="1"
       deform_type="perspective"
       horizontal_mirror="false"
       vertical_mirror="false"
       overflow_perspective="false" /><inkscape:perspective
       sodipodi:type="inkscape:persp3d"
       inkscape:vp_x="-0.90641398 : 0.40836308 : 1"
       inkscape:vp_y="0 : 1.1088695 : 0"
       inkscape:vp_z="0.46809235 : 0.68908613 : 1"
       inkscape:persp3d-origin="0.31059739 : 0.50857618 : 1"
       id="perspective22" /><inkscape:path-effect
       effect="perspective-envelope"
       up_left_point="108.54695,218.9399"
       up_right_point="298.02018,218.9399"
       down_left_point="108.54695,474.89022"
       down_right_point="298.02018,474.89022"
       id="path-effect22"
       is_visible="true"
       lpeversion="1"
       deform_type="perspective"
       horizontal_mirror="false"
       vertical_mirror="false"
       overflow_perspective="false" /></defs><sodipodi:namedview
     id="namedview15"
     pagecolor="#121315"
     bordercolor="#000000"
     borderopacity="1"
     inkscape:showpageshadow="false"
     inkscape:pageopacity="0"
     inkscape:pagecheckerboard="false"
     inkscape:deskcolor="#0c0c0e"
     inkscape:zoom="5.6568542"
     inkscape:cx="351.43207"
     inkscape:cy="210.0991"
     inkscape:window-width="2560"
     inkscape:window-height="1377"
     inkscape:window-x="4912"
     inkscape:window-y="203"
     inkscape:window-maximized="1"
     inkscape:current-layer="g1"
     showgrid="false"
     showborder="false"
     labelstyle="below"
     inkscape:clip-to-page="false"
     borderlayer="false"
     shape-rendering="auto"><inkscape:page
       x="0"
       y="0"
       width="1158.5826"
       height="901.81934"
       id="page2"
       margin="0"
       bleed="0" /></sodipodi:namedview><g
     id="g27"
     transform="matrix(0.69002803,0,0,0.69002803,429.96526,285.01115)"><g
       id="g26"
       transform="matrix(-3.2204977,0,0,3.2204977,6551.4836,-1093.2045)"><path
         d="m 1987.5942,329.85768 h -123.2204 v -2 h 123.2204 c 6.0131,0 10.9052,-4.89258 10.9052,-10.90625 V 270.1487 h 2 v 46.80273 c 0,7.11621 -5.789,12.90625 -12.9052,12.90625 z"
         fill="#6c63ff"
         id="path19-8"
         style="fill:#1971c2;fill-opacity:1"
         sodipodi:nodetypes="sccssccss" /><path
         d="m 1854.2132,297.98407 h 104.6579 l -0.1125,2 h -104.5454 c -6.0131,0 -10.9052,4.89258 -10.9052,10.90625 v 46.80273 h -2 v -46.80273 c 0,-7.11621 5.789,-12.90625 12.9052,-12.90625 z"
         fill="#6c63ff"
         id="path19-8-7"
         style="fill:#e6e6e6;fill-opacity:1"
         sodipodi:nodetypes="sccssccss" /><path
         d="m 2134.7232,541.85278 h -66.1562 l 0.1125,-2 h 66.0437 c 6.0131,0 10.9052,-4.8925 10.9052,-10.9062 v -60.64424 h 2 v 60.64424 c 0,7.1162 -5.789,12.9062 -12.9052,12.9062 z"
         fill="#6c63ff"
         id="path19-8-7-0"
         style="fill:#e6e6e6;fill-opacity:1;stroke-width:1.67489;stroke-dasharray:none"
         sodipodi:nodetypes="sccssccss" /><rect
         x="433.24435"
         y="-2047.1304"
         width="157.43605"
         height="2"
         fill="#6c63ff"
         id="rect19"
         style="fill:#1971c2;fill-opacity:1"
         transform="rotate(90)" /><circle
         cx="1999.3734"
         cy="270.14868"
         r="10"
         fill="#6c63ff"
         id="circle38"
         style="fill:#1971c2;fill-opacity:1" /><circle
         cx="2046.0234"
         cy="431.89859"
         r="10"
         fill="#6c63ff"
         id="circle39"
         style="fill:#1971c2;fill-opacity:1" /><circle
         cx="1961.6233"
         cy="298.98871"
         r="6"
         fill="#e6e6e6"
         id="circle46" /><g
         id="g45"
         transform="translate(-60.974607,-24.749943)"><circle
           cx="435.50919"
           cy="-2075.2739"
           r="6.00001"
           fill="#e6e6e6"
           id="circle44"
           transform="rotate(90)" /><path
           d="m 2074.0694,386.11016 v 49.53041 l 2,-0.1125 v -49.41791 c 0,-6.0131 4.8925,-10.9052 10.9062,-10.9052 h 46.8027 v -2 h -46.8027 c -7.1162,0 -12.9062,5.789 -12.9062,12.9052 z"
           fill="#6c63ff"
           id="path44"
           style="fill:#e6e6e6;fill-opacity:1"
           sodipodi:nodetypes="sccssccss" /></g></g></g><g
     id="g20"
     transform="matrix(0.88016041,0,0,1,370.57523,220.31401)"><polygon
       points="597.78694,181.75476 644.29875,251.13271 510.78694,278.13271 519.29088,191.27409 "
       fill="#ffb6b6"
       id="polygon1"
       style="display:inline" /><polygon
       points="510.78694,278.13271 519.29088,191.27409 597.78694,181.75476 644.29875,251.13271 "
       opacity="0.1"
       id="polygon2"
       style="display:inline" /></g><path
     style="fill:#e6e6e6;fill-opacity:1;stroke:none;stroke-width:2.5"
     d="m 1011.894,482.19682 -37.11821,-20.39068 -35.62318,-13.95194 -23.60237,0.89731 -94.79074,3.90533 c 0,0 -54.89676,18.34467 -54.58426,18.59467 0.3125,0.25 -0.26111,99.89102 -0.26111,99.89102 l 15.20279,100.40916 -19.09188,65.76093 200.11122,2.47487 V 607.20497 l 47.72974,-65.76093 z"
     id="path20"
     sodipodi:nodetypes="cccccsccccccc" /><g
     id="g1"
     inkscape:label="poker chip"
     transform="matrix(0.74920489,0,0,0.74920489,179.40484,35.41608)"><path
       style="fill:#1971c2;fill-opacity:1;stroke-width:2.49486"
       id="path1"
       sodipodi:type="arc"
       sodipodi:cx="216.3746"
       sodipodi:cy="273.65033"
       sodipodi:rx="137.56953"
       sodipodi:ry="137.6357"
       sodipodi:start="0"
       sodipodi:end="6.2300995"
       sodipodi:open="true"
       sodipodi:arc-type="arc"
       d="M 353.94414,273.65033 A 137.56953,137.6357 0 0 1 218.2003,411.27391 137.56953,137.6357 0 0 1 78.853527,277.30315 137.56953,137.6357 0 0 1 210.89881,136.12371 137.56953,137.6357 0 0 1 353.75034,266.34726" /><g
       id="g30"
       transform="matrix(1.0025657,0,0,1.0025657,-0.55496043,-0.7023122)"
       inkscape:label="g30"><path
         style="fill:#e6e6e6;fill-opacity:1;stroke-width:2.49999"
         id="path24"
         sodipodi:type="arc"
         sodipodi:cx="128.82246"
         sodipodi:cy="-324.21271"
         sodipodi:rx="137.88582"
         sodipodi:ry="137.88582"
         sodipodi:start="0"
         sodipodi:end="0.52359878"
         sodipodi:arc-type="slice"
         d="m 266.70828,-324.21271 a 137.88582,137.88582 0 0 1 -18.47319,68.94291 l -119.41263,-68.94291 z"
         inkscape:transform-center-x="59.640946"
         inkscape:transform-center-y="59.644933"
         transform="rotate(120)"
         inkscape:label="path24" /><path
         style="fill:#e6e6e6;fill-opacity:1;stroke-width:2.49999"
         id="path25"
         sodipodi:type="arc"
         sodipodi:cx="345.12231"
         sodipodi:cy="-50.481445"
         sodipodi:rx="137.88582"
         sodipodi:ry="137.88582"
         sodipodi:start="0"
         sodipodi:end="0.52359878"
         sodipodi:arc-type="slice"
         d="M 483.00813,-50.481445 A 137.88582,137.88582 0 0 1 464.53494,18.461464 L 345.12231,-50.481445 Z"
         inkscape:transform-center-x="-34.450986"
         inkscape:transform-center-y="68.855621"
         transform="rotate(60)"
         inkscape:label="path24" /><path
         style="fill:#e6e6e6;fill-opacity:1;stroke-width:2.49999"
         id="path26"
         sodipodi:type="arc"
         sodipodi:cx="216.214"
         sodipodi:cy="273.70535"
         sodipodi:rx="137.88582"
         sodipodi:ry="137.88582"
         sodipodi:start="0"
         sodipodi:end="0.52359878"
         sodipodi:arc-type="slice"
         d="m 354.09982,273.70535 a 137.88582,137.88582 0 0 1 -18.47319,68.94291 L 216.214,273.70535 Z"
         inkscape:transform-center-x="-68.857076"
         inkscape:transform-center-y="34.445549"
         inkscape:label="path24" /><path
         style="fill:#e6e6e6;fill-opacity:1;stroke-width:2.49999"
         id="path27"
         sodipodi:type="arc"
         sodipodi:cx="-128.99414"
         sodipodi:cy="324.16089"
         sodipodi:rx="137.88582"
         sodipodi:ry="137.88582"
         sodipodi:start="0"
         sodipodi:end="0.52359878"
         sodipodi:arc-type="slice"
         d="M 8.8916779,324.16089 A 137.88582,137.88582 0 0 1 -9.5815193,393.1038 L -128.99414,324.16089 Z"
         inkscape:transform-center-x="-59.640967"
         inkscape:transform-center-y="-59.644927"
         inkscape:label="path24"
         transform="rotate(-60)" /><path
         style="fill:#e6e6e6;fill-opacity:1;stroke-width:2.49999"
         id="path28"
         sodipodi:type="arc"
         sodipodi:cx="-345.29398"
         sodipodi:cy="50.42963"
         sodipodi:rx="137.88582"
         sodipodi:ry="137.88582"
         sodipodi:start="0"
         sodipodi:end="0.52359878"
         sodipodi:arc-type="slice"
         d="m -207.40816,50.42963 a 137.88582,137.88582 0 0 1 -18.47319,68.94291 L -345.29398,50.42963 Z"
         inkscape:transform-center-x="34.450968"
         inkscape:transform-center-y="-68.855633"
         inkscape:label="path24"
         transform="rotate(-120)" /><path
         style="fill:#e6e6e6;fill-opacity:1;stroke-width:2.49999"
         id="path29"
         sodipodi:type="arc"
         sodipodi:cx="-216.38567"
         sodipodi:cy="-273.75717"
         sodipodi:rx="137.88582"
         sodipodi:ry="137.88582"
         sodipodi:start="0"
         sodipodi:end="0.52359878"
         sodipodi:arc-type="slice"
         d="m -78.499847,-273.75717 a 137.88582,137.88582 0 0 1 -18.473198,68.94291 l -119.412625,-68.94291 z"
         inkscape:transform-center-x="68.857088"
         inkscape:transform-center-y="-34.445545"
         inkscape:label="path24"
         transform="scale(-1)" /></g><path
       style="fill:#1971c2;fill-opacity:1;stroke-width:1.12499"
       id="path30"
       transform="matrix(2.2222337,0,0,2.2222337,4950.6726,-469.3306)"
       sodipodi:type="arc"
       sodipodi:cx="-2130.4231"
       sodipodi:cy="334.33969"
       sodipodi:rx="47.252167"
       sodipodi:ry="47.252167"
       sodipodi:start="0"
       sodipodi:end="6.2300995"
       sodipodi:open="true"
       sodipodi:arc-type="arc"
       d="m -2083.1709,334.33969 a 47.252167,47.252167 0 0 1 -46.6251,47.24801 47.252167,47.252167 0 0 1 -47.8626,-45.99395 47.252167,47.252167 0 0 1 45.3547,-48.46878 47.252167,47.252167 0 0 1 49.0664,44.70748"
       inkscape:label="path30" /><g
       id="g42"
       transform="matrix(0.59641835,-0.3443423,0.3443423,0.59641835,-6.96261,184.95409)"
       inkscape:label="g30"
       style="display:none"><path
         style="fill:#e6e6e6;fill-opacity:1;stroke-width:2.49999"
         id="path31"
         sodipodi:type="arc"
         sodipodi:cx="128.82246"
         sodipodi:cy="-324.21271"
         sodipodi:rx="137.88582"
         sodipodi:ry="137.88582"
         sodipodi:start="0"
         sodipodi:end="0.52359878"
         sodipodi:arc-type="slice"
         d="m 266.70828,-324.21271 a 137.88582,137.88582 0 0 1 -18.47319,68.94291 l -119.41263,-68.94291 z"
         inkscape:transform-center-x="59.640946"
         inkscape:transform-center-y="59.644933"
         transform="rotate(120)"
         inkscape:label="path24" /><path
         style="fill:#e6e6e6;fill-opacity:1;stroke-width:2.49999"
         id="path38"
         sodipodi:type="arc"
         sodipodi:cx="345.12231"
         sodipodi:cy="-50.481434"
         sodipodi:rx="137.88582"
         sodipodi:ry="137.88582"
         sodipodi:start="0"
         sodipodi:end="0.52359878"
         sodipodi:arc-type="slice"
         d="m 483.00813,-50.481434 a 137.88582,137.88582 0 0 1 -18.47319,68.94291 l -119.41263,-68.94291 z"
         inkscape:transform-center-x="-34.450979"
         inkscape:transform-center-y="68.855626"
         transform="rotate(60)"
         inkscape:label="path24" /><path
         style="fill:#e6e6e6;fill-opacity:1;stroke-width:2.49999"
         id="path39"
         sodipodi:type="arc"
         sodipodi:cx="216.21399"
         sodipodi:cy="273.70535"
         sodipodi:rx="137.88582"
         sodipodi:ry="137.88582"
         sodipodi:start="0"
         sodipodi:end="0.52359878"
         sodipodi:arc-type="slice"
         d="m 354.09981,273.70535 a 137.88582,137.88582 0 0 1 -18.4732,68.94291 L 216.21399,273.70535 Z"
         inkscape:transform-center-x="-68.857066"
         inkscape:transform-center-y="34.44555"
         inkscape:label="path24" /><path
         style="fill:#e6e6e6;fill-opacity:1;stroke-width:2.49999"
         id="path40"
         sodipodi:type="arc"
         sodipodi:cx="-128.99414"
         sodipodi:cy="324.16089"
         sodipodi:rx="137.88582"
         sodipodi:ry="137.88582"
         sodipodi:start="0"
         sodipodi:end="0.52359878"
         sodipodi:arc-type="slice"
         d="M 8.8916779,324.16089 A 137.88582,137.88582 0 0 1 -9.5815193,393.1038 L -128.99414,324.16089 Z"
         inkscape:transform-center-x="-59.640967"
         inkscape:transform-center-y="-59.644927"
         inkscape:label="path24"
         transform="rotate(-60)" /><path
         style="fill:#e6e6e6;fill-opacity:1;stroke-width:2.49999"
         id="path41"
         sodipodi:type="arc"
         sodipodi:cx="-345.29398"
         sodipodi:cy="50.429615"
         sodipodi:rx="137.88582"
         sodipodi:ry="137.88582"
         sodipodi:start="0"
         sodipodi:end="0.52359878"
         sodipodi:arc-type="slice"
         d="m -207.40816,50.429615 a 137.88582,137.88582 0 0 1 -18.47319,68.942905 L -345.29398,50.429615 Z"
         inkscape:transform-center-x="34.450977"
         inkscape:transform-center-y="-68.855628"
         inkscape:label="path24"
         transform="rotate(-120)" /><path
         style="fill:#e6e6e6;fill-opacity:1;stroke-width:2.49999"
         id="path42"
         sodipodi:type="arc"
         sodipodi:cx="-216.38565"
         sodipodi:cy="-273.75717"
         sodipodi:rx="137.88582"
         sodipodi:ry="137.88582"
         sodipodi:start="0"
         sodipodi:end="0.52359878"
         sodipodi:arc-type="slice"
         d="m -78.499832,-273.75717 a 137.88582,137.88582 0 0 1 -18.473197,68.94291 l -119.412621,-68.94291 z"
         inkscape:transform-center-x="68.857098"
         inkscape:transform-center-y="-34.445545"
         inkscape:label="path24"
         transform="scale(-1)" /></g><circle
       style="display:inline;fill:#1971c2;fill-opacity:0;stroke:#e6e6e6;stroke-width:11.8001;stroke-dasharray:none;stroke-opacity:1"
       id="path43"
       inkscape:label="path30"
       cx="216.37469"
       cy="273.65051"
       r="102.29042" /><path
       d="m 186.57475,257.05076 c -35.33291,36.09814 -0.96831,62.38933 26.96776,45.15434 0.15222,8.89084 -6.81873,17.19121 -11.10658,25.12795 h 30.16259 c -4.41594,-7.71387 -11.7897,-16.21106 -12.05926,-25.12795 28.52177,16.38472 58.85442,-12.1877 27.20658,-45.15434 -16.50232,-18.10515 -26.81763,-32.19236 -30.70531,-36.98097 -3.54614,4.66903 -12.99273,18.39823 -30.46651,36.98097 z"
       fill-rule="evenodd"
       stroke="#000000"
       stroke-width="0.247682pt"
       id="path1-4"
       style="fill:#e6e6e6;fill-opacity:1;stroke:none" /></g><polygon
     points="434.78694,550.13271 460.78694,454.13271 448.78694,252.13271 500.78694,233.13271 644.78694,227.13271 708.78694,262.13271 705.78694,487.13271 772.78694,614.13271 "
     fill="#6c63ff"
     id="polygon3"
     style="display:none;fill:#e6e6e6"
     inkscape:label="polygon3"
     transform="translate(303.11274,220.06401)" /><path
     d="m 306.99081,890.29963 c -4.5973,-7.24667 -5.14023,-16.20053 -1.45205,-23.95072 l 54.80692,-115.15585 c 4.0904,-8.59445 12.88363,-14.14749 22.40161,-14.14749 h 692.25411 c 9.2531,0 17.6716,5.09022 21.9693,13.28457 l 58.7456,111.9822 c 4.0607,7.74086 3.7933,16.83204 -0.7146,24.32114 -4.5079,7.48825 -12.417,11.97917 -21.1573,12.01393 l -805.80654,3.17195 h -0.10087 c -8.54232,0 -16.36752,-4.30104 -20.94617,-11.51974 z m 75.75648,-150.65004 c -8.51901,0 -16.38914,4.9707 -20.05019,12.66239 l -54.80692,115.15585 c -3.30122,6.93643 -2.81551,14.95023 1.29947,21.4374 4.09845,6.46089 11.10142,10.31012 18.74776,10.31012 h 0.0903 l 805.80659,-3.17195 c 7.8226,-0.0305 14.9019,-4.05098 18.9363,-10.75345 4.0349,-6.70247 4.274,-14.84003 0.64,-21.76714 l -58.7455,-111.9839 c -3.8472,-7.33313 -11.3816,-11.88932 -19.6637,-11.88932 H 382.7473 Z"
     fill="#3f3d56"
     id="path4" /><path
     d="m 502.35539,605.94631 c 9.04537,3.62236 17.09164,9.35828 23.46563,16.72787 l 0.40598,0.17512 0.16901,-0.40539 87.94686,32.12243 93.90282,-152.04197 51.91219,32.17336 -108.87774,174.59479 c -6.09203,12.33596 -21.11694,17.27772 -33.34212,10.96636 l -108.96609,-56.025 0.56899,-1.36465 -0.38237,-0.18842 c -9.72393,0.66821 -19.46642,-1.00253 -28.41198,-4.87241 -22.50848,-9.3709 -35.91835,-28.58053 -29.95231,-42.90414 5.96598,-14.32351 29.04589,-18.33523 51.56115,-8.95792 z"
     fill="#ffb6b6"
     id="path12"
     inkscape:label="left" /><path
     d="m 932.89968,504.19672 79.00002,-22 c 0,0 42.6545,25.59321 47.6545,58.59321 0.2973,1.96238 -1.4507,43.38127 -3.491,84.90383 -2.0404,41.52256 -4.6163,83.07322 -5.2453,85.52583 -47.8362,186.51517 -117.96192,-44.82224 -117.96192,-44.82224 z"
     fill="#6c63ff"
     id="path10"
     style="display:inline;fill:#e6e6e6"
     sodipodi:nodetypes="ccssscc"
     inkscape:label="right shirt" /><path
     d="M 794.54741,520.44792 767.4452,467.86288 c 0,0 -49.42467,9.78272 -69.78432,36.2305 -2.54495,3.30597 -89.96333,130.0895 -90.52652,135.62245 -3.94234,38.7307 66.22252,47.93043 66.22252,47.93043 z"
     fill="#6c63ff"
     id="path13"
     style="fill:#e6e6e6"
     inkscape:label="left shirt"
     sodipodi:nodetypes="ccsscc" /><path
     style="display:inline;fill:#2f2e43;fill-opacity:1;stroke:none;stroke-width:2.5"
     d="m 804.57566,452.73301 -35.86573,13.25987 -3.91421,97.27238 12.34994,109.33996 -21.59949,64.33816 247.61453,0.70711 -26.94062,-130.62119 9.29561,-139.86014 -36.07391,-20.5317 -23.9149,1.35575 -49.31364,88.82719 -53.79891,-84.36238 z"
     id="path17"
     sodipodi:nodetypes="ccccccccccccc"
     inkscape:label="vest" /><g
     id="g46"
     inkscape:label="buttons"><circle
       style="fill:#272738;fill-opacity:1;stroke:none;stroke-width:2.5"
       id="path19"
       cx="878.11273"
       cy="565.43903"
       r="8" /><circle
       style="fill:#272738;fill-opacity:1;stroke:none;stroke-width:2.5"
       id="path19-6"
       cx="877.11273"
       cy="615.56403"
       r="8" /><circle
       style="fill:#272738;fill-opacity:1;stroke:none;stroke-width:2.5"
       id="path19-6-0"
       cx="876.11273"
       cy="670.81403"
       r="8" /></g><rect
     style="display:inline;fill:#1c84e1;fill-opacity:1;stroke:#1971c2;stroke-width:6.17334;stroke-dasharray:none;stroke-opacity:1"
     id="rect46"
     width="60.434608"
     height="91.348701"
     x="107.60154"
     y="1032.8865"
     rx="9.4452209"
     ry="9.491456"
     transform="matrix(0.72249355,-0.69137766,0.67902583,0.73411438,0,0)"
     inkscape:label="hand card" /><rect
     style="display:inline;fill:#1c84e1;fill-opacity:1;stroke:#1971c2;stroke-width:6.17292;stroke-dasharray:none;stroke-opacity:1"
     id="rect45"
     width="60.062279"
     height="91.902618"
     x="634.88214"
     y="817.20923"
     rx="9.3870296"
     ry="9.5490103"
     transform="matrix(0.97229942,-0.23373882,0.22952229,0.9733034,0,0)"
     inkscape:label="hand card" /><path
     d="m 306.99081,890.29963 c -4.5973,-7.24667 -5.14023,-16.20053 -1.45205,-23.95072 l 54.80692,-115.15585 c 4.0904,-8.59445 12.88363,-14.14749 22.40161,-14.14749 h 692.25411 c 9.2531,0 17.6716,5.09022 21.9693,13.28457 l 58.7456,111.9822 c 4.0607,7.74086 3.7933,16.83204 -0.7146,24.32114 -4.5079,7.48825 -12.417,11.97917 -21.1573,12.01393 l -805.80654,3.17195 h -0.10087 c -8.54232,0 -16.36752,-4.30104 -20.94617,-11.51974 z"
     fill="#fff"
     id="path3"
     inkscape:label="table"
     style="fill:#e6e6e6;fill-opacity:1" /><path
     d="m 869.65781,696.85355 c 9.57552,1.80268 18.58002,5.87235 26.26015,11.86853 l 0.43221,0.0932 0.0873,-0.43044 97.69723,16.65327 -0.5798,-35.36343 c 11.6217,12.87967 42.1508,29.55613 56.5438,24.62233 l -14.3262,55.11623 c -3.5886,13.28197 -17.3725,21.03901 -30.5883,17.2138 l -117.7508,-33.86962 0.29404,-1.44899 -0.41161,-0.11083 c -9.41061,2.53809 -19.29222,2.78507 -28.81774,0.72023 -23.89682,-4.83605 -40.77191,-21.08616 -37.69175,-36.29379 3.08013,-15.20752 24.94674,-23.61153 48.85145,-18.77051 z"
     fill="#ffb6b6"
     id="path9"
     style="display:inline"
     inkscape:label="right"
     sodipodi:nodetypes="sccccccccccccsss" /><g
     id="g15"
     style="display:inline"
     inkscape:label="laptop"
     transform="translate(303.11274,220.06401)"><path
       d="m 287.12239,612.72158 -8.18994,-7.01953 h -4.9e-4 c -1.21924,-1.0459 -2.70166,-1.73828 -4.28711,-2.00293 L 92.16194,573.28506 c -4.16504,-0.69434 -7.2417,-3.70215 -8.02979,-7.85059 -0.7876,-4.14844 0.97217,-8.0752 4.59326,-10.24805 l 65.10156,-39.06055 c 2.17578,-1.30566 4.73633,-1.7168 7.21338,-1.15723 l 231.37354,52.27344 c 4.49805,1.01563 7.5,4.65039 7.64746,9.25977 0.14746,4.60938 -2.61621,8.42871 -7.04102,9.73047 l -96.74072,28.45312 c -0.91797,0.27051 -1.854,0.40234 -2.78223,0.40234 -2.30908,0 -4.56885,-0.81738 -6.375,-2.36621 z"
       fill="#3f3d56"
       id="path11" /><path
       d="M 282.60237,614.58779 73.42073,585.67568 c -7.00098,-0.9668 -12.7793,-5.9834 -14.72168,-12.7793 L 10.6556,404.74404 c -1.62793,-5.69922 -0.4126,-11.60059 3.33447,-16.19238 3.74707,-4.59179 9.2832,-6.96484 15.19482,-6.51367 l 210.75049,16.14648 c 7.62451,0.58398 14.0249,5.95313 15.92773,13.35938 l 46.47412,180.91797 c 1.48291,5.77344 0,11.87598 -3.96777,16.32422 -3.4165,3.83105 -8.26123,5.9707 -13.31152,5.9707 -0.81445,0 -1.63525,-0.0557 -2.45557,-0.16895 z"
       fill="#3f3d56"
       id="path14" /></g><ellipse
     cx="-862.45831"
     cy="343.91925"
     fill="#ffb8b8"
     id="circle16-0"
     transform="scale(-1,1)"
     style="fill:#ffb6b6;fill-opacity:1;stroke-width:2.82521"
     rx="83.720238"
     ry="79.924065" /><path
     d="m 957.42053,291.40381 c -9.40092,-13.88426 -27.04214,-23.1378 -44.14407,-20.53749 a 60.28256,57.549134 0 0 0 -101.00626,-33.5669 18.745395,17.895412 0 0 0 -18.33169,-1.75143 38.651739,36.899131 0 0 0 -14.89317,11.41244 86.747408,82.813971 0 0 0 -12.13834,84.24866 c -2.09028,-7.25371 5.52455,-14.07778 13.21832,-15.70554 7.69326,-1.62774 15.76351,-0.0878 23.56543,-1.14779 9.99977,-1.35832 18.98837,-6.89615 29.00376,-8.14246 8.41723,-1.04742 16.88161,1.01276 25.08977,3.07787 8.20819,2.06479 16.65087,4.17069 25.07996,3.2152 8.42967,-0.95552 19.28763,29.54096 19.14191,51.02075 -0.029,4.07059 0.85069,9.29686 5.01766,10.16046 5.13159,1.06374 8.10525,-5.69773 12.98961,-7.5401 a 9.0362833,8.6265459 0 0 1 11.08351,5.62661 14.732331,14.064315 0 0 1 -2.81287,12.5945 43.533966,41.559981 0 0 1 -10.55465,8.74073 l 2.01163,1.59721 c 3.34608,4.22009 10.28689,4.40287 15.10997,1.79204 a 32.611656,31.132927 0 0 0 10.849,-11.7925 c 8.92268,-14.16811 16.74975,-29.26405 19.89862,-45.52032 3.14917,-16.25628 1.22197,-33.89772 -8.1781,-47.78194 z"
     fill="#2f2e41"
     id="path17-2"
     style="stroke-width:2.82521" /><path
     d="m 928.01717,376.31503 a 5.7830545,5.5208302 0 1 0 -9.6577,4.39658 l -9.71987,15.24831 a 2.8915408,2.7604281 0 0 0 4.94017,2.87004 l 10.92853,-17.14493 a 5.7672957,5.5057859 0 0 0 3.50887,-5.37 z"
     fill="#ffffff"
     id="path27-1"
     style="stroke-width:2.82521" /><rect
     x="992.97168"
     y="49.858555"
     width="2.8654258"
     height="8.3625011"
     rx="1.4327129"
     transform="matrix(0.90100717,0.43380419,0.46711189,-0.88419821,0,0)"
     fill="#2f2e41"
     id="rect27-5"
     style="stroke-width:2.8262" /><path
     style="fill:#e6e6e6;fill-opacity:1;stroke:none;stroke-width:2.5"
     d="m 1059.5421,540.95334 -1.938,174.6966 c 0,0 -26.8431,6.34997 -45.0271,-1.44317 -18.18394,-7.79314 -24.53391,-22.51351 -24.53391,-22.51351 l -11.54539,-84.57 z"
     id="path18" /><path
     style="fill:#262637;fill-opacity:1;stroke:none;stroke-width:0.495447"
     d="m 862.12391,448.66365 c 0,0 -14.24934,-10.71771 -22.00889,-12.10962 -7.75957,-1.39191 -14.74317,-4.03654 -16.08346,-3.41018 -1.34028,0.62636 -2.68056,5.63724 -2.75111,6.95955 -0.0706,1.32232 -1.48137,17.95564 -0.98757,21.22664 0.49379,3.27099 0.77596,13.8495 2.04568,15.72858 1.26976,1.87907 0.9876,2.71423 2.61005,2.43585 1.62245,-0.27839 5.14952,-0.97435 8.39442,-1.80949 3.2449,-0.83514 19.11672,-6.95955 23.77246,-10.09135 4.65573,-3.1318 4.4441,-4.52371 4.9379,-3.89735 0.4938,0.62636 0.42324,1.18312 1.26975,1.6703 0.84648,0.48717 1.41082,0.69595 1.41082,0.69595 0,0 11.49824,-0.0696 11.92148,-0.0696 0.42326,0 0.8465,-0.55676 0.98759,-0.90474 0.14108,-0.34798 0.70541,-1.73989 0.70541,-1.73989 0,0 0.77595,0.41758 0.84651,0.69596 0.0706,0.27837 4.72626,2.9926 5.00844,3.41018 0.28216,0.41757 7.90063,4.38452 8.88821,4.87168 0.98758,0.48717 7.54793,3.2014 9.52309,3.82775 1.97516,0.62637 8.04172,2.01828 9.17038,2.36625 1.12866,0.34798 4.0914,0.76556 4.58518,0.76556 0.4938,0 1.693,-1.25272 1.693,-1.25272 0,0 1.05813,-3.61897 1.1992,-4.10613 0.14108,-0.48718 1.41084,-12.10963 1.34029,-13.29275 -0.0705,-1.18313 -0.14109,-12.87518 -0.14109,-14.47588 0,-1.60068 -0.7054,-9.2562 -1.62243,-10.57852 -0.91705,-1.3223 -1.34028,-2.22705 -1.83408,-2.36623 -0.49379,-0.1392 -1.12867,-0.27839 -1.76355,-0.1392 -0.63486,0.1392 -3.17437,0.62636 -4.65573,1.18313 -1.48137,0.55675 -9.52309,2.29665 -9.52309,2.29665 0,0 -9.52309,3.75815 -10.58121,4.38451 -1.05812,0.62636 -4.51465,2.71423 -5.7844,3.68857 -1.26972,0.97434 -4.37356,3.0622 -4.72626,3.34057 -0.35271,0.27839 -0.91703,1.04394 -1.19921,0.76556 -0.28217,-0.27838 0.1411,-0.83514 -0.56433,-1.67029 -0.70542,-0.83514 -1.693,-0.83514 -1.97516,-0.83514 -0.28217,0 -3.80923,-0.0696 -4.58517,-0.0696 -0.77596,0 -6.20766,-0.0696 -6.20766,-0.0696 l -1.76354,0.27838 -0.91704,1.04393 z"
     id="path21" /><g
     id="g3"
     transform="matrix(0.79654975,-0.36092141,0.36092141,0.79654975,-110.88643,262.38242)"><rect
       style="display:inline;fill:#e6e6e6;fill-opacity:1;stroke:#1971c2;stroke-width:16.3;stroke-dasharray:none;stroke-opacity:1"
       id="rect22"
       width="159.96083"
       height="240.60774"
       x="178.98764"
       y="191.6385"
       rx="25"
       ry="25"
       transform="rotate(9.3475753)" /><path
       d="M 297.29747,550.86823 C 283.52243,535.43191 249.1268,505.33855 220.86277,483.99412 137.11867,420.75228 125.72108,411.5999 91.719238,380.29088 29.03471,322.57071 2.413622,264.58086 2.5048478,185.95124 2.5493594,147.56739 5.1656152,132.77929 15.914734,110.15398 34.151433,71.768267 61.014996,43.244667 95.360052,25.799457 119.68545,13.443675 131.6827,7.9542046 172.30448,7.7296236 c 42.49329,-0.234834 51.43863,4.7197234 76.43471,18.4518354 30.42451,16.714318 61.7399,52.435708 68.21323,77.810591 l 3.9981,15.6724 9.85963,-21.584508 c 55.71617,-121.972928 233.59836,-120.148052 295.50229,3.031588 19.63767,39.07605 21.79364,122.51317 4.38012,169.51287 -22.71527,61.30937 -65.38001,108.05053 -164.00634,179.67658 -64.68082,46.97364 -137.88474,118.04586 -142.98067,128.02803 -5.91548,11.58753 -0.28216,1.8159 -26.40808,-27.46078 z"
       id="path2417"
       style="fill:#1971c2;fill-opacity:1;stroke:none;stroke-opacity:1"
       transform="matrix(0.1407277,0.02323566,-0.02323566,0.1407277,166.34033,300.80251)" /></g></svg>
