<?xml version="1.0" encoding="UTF-8" standalone="no"?>
<svg
   width="1158.5828"
   height="901.81934"
   viewBox="0 0 1158.5827 901.81932"
   version="1.1"
   id="svg15"
   sodipodi:docname="hero-main.svg"
   xml:space="preserve"
   inkscape:version="1.3.2 (091e20e, 2023-11-25, custom)"
   xmlns:inkscape="http://www.inkscape.org/namespaces/inkscape"
   xmlns:sodipodi="http://sodipodi.sourceforge.net/DTD/sodipodi-0.dtd"
   xmlns="http://www.w3.org/2000/svg"
   xmlns:svg="http://www.w3.org/2000/svg"><defs
     id="defs15"><inkscape:path-effect
       effect="perspective-envelope"
       up_left_point="1024.4225,315.19"
       up_right_point="1120.589,315.19"
       down_left_point="1040.918,406.7269"
       down_right_point="1104.0935,406.7269"
       id="path-effect25"
       is_visible="true"
       lpeversion="1"
       deform_type="perspective"
       horizontal_mirror="false"
       vertical_mirror="true"
       overflow_perspective="false" /><inkscape:path-effect
       effect="perspective-envelope"
       up_left_point="1030.7422,333.94331"
       up_right_point="1121.7251,312.02429"
       down_left_point="1040.918,406.7269"
       down_right_point="1096.7215,395.96688"
       id="path-effect9"
       is_visible="true"
       lpeversion="1"
       deform_type="perspective"
       horizontal_mirror="false"
       vertical_mirror="false"
       overflow_perspective="false" /><inkscape:path-effect
       effect="perspective-envelope"
       up_left_point="585.91301,606.66255"
       up_right_point="613.58699,606.66255"
       down_left_point="576.5,636.5"
       down_right_point="623,636.5"
       id="path-effect8"
       is_visible="true"
       lpeversion="1"
       deform_type="perspective"
       horizontal_mirror="false"
       vertical_mirror="true"
       overflow_perspective="false" /><inkscape:path-effect
       effect="perspective-envelope"
       up_left_point="585.91301,606.66255"
       up_right_point="613.58699,606.66255"
       down_left_point="576.5,636.5"
       down_right_point="623,636.5"
       id="path-effect6"
       is_visible="true"
       lpeversion="1"
       deform_type="perspective"
       horizontal_mirror="false"
       vertical_mirror="true"
       overflow_perspective="false" /><inkscape:path-effect
       effect="perspective-envelope"
       up_left_point="585.91301,606.66255"
       up_right_point="613.58699,606.66255"
       down_left_point="576.5,636.5"
       down_right_point="623,636.5"
       id="path-effect3"
       is_visible="true"
       lpeversion="1"
       deform_type="perspective"
       horizontal_mirror="false"
       vertical_mirror="true"
       overflow_perspective="false" /><inkscape:path-effect
       effect="perspective-envelope"
       up_left_point="485.85053,545.99185"
       up_right_point="574.00084,545.99185"
       down_left_point="503.36426,620.03035"
       down_right_point="556.4871,620.03035"
       id="path-effect2"
       is_visible="true"
       lpeversion="1"
       deform_type="perspective"
       horizontal_mirror="false"
       vertical_mirror="true"
       overflow_perspective="false" /><inkscape:path-effect
       effect="perspective-envelope"
       up_left_point="108.54695,218.9399"
       up_right_point="298.02018,218.9399"
       down_left_point="110.45,474.89022"
       down_right_point="298.02018,474.89022"
       id="path-effect1"
       is_visible="true"
       lpeversion="1"
       deform_type="perspective"
       horizontal_mirror="false"
       vertical_mirror="false"
       overflow_perspective="false" /><inkscape:perspective
       sodipodi:type="inkscape:persp3d"
       inkscape:vp_x="-1050.1555 : 368.25535 : 1"
       inkscape:vp_y="0 : 1000 : 0"
       inkscape:vp_z="542.32367 : 621.41682 : 1"
       inkscape:persp3d-origin="359.85275 : 458.62946 : 1"
       id="perspective22" /><inkscape:path-effect
       effect="perspective-envelope"
       up_left_point="108.54695,218.9399"
       up_right_point="298.02018,218.9399"
       down_left_point="108.54695,474.89022"
       down_right_point="298.02018,474.89022"
       id="path-effect22"
       is_visible="true"
       lpeversion="1"
       deform_type="perspective"
       horizontal_mirror="false"
       vertical_mirror="false"
       overflow_perspective="false" /></defs><sodipodi:namedview
     id="namedview15"
     pagecolor="#505050"
     bordercolor="#ffffff"
     borderopacity="1"
     inkscape:showpageshadow="false"
     inkscape:pageopacity="0"
     inkscape:pagecheckerboard="true"
     inkscape:deskcolor="#505050"
     inkscape:zoom="1"
     inkscape:cx="538"
     inkscape:cy="430.5"
     inkscape:window-width="2560"
     inkscape:window-height="1377"
     inkscape:window-x="4912"
     inkscape:window-y="203"
     inkscape:window-maximized="1"
     inkscape:current-layer="g27"
     showgrid="false"
     showborder="true"
     labelstyle="below"
     inkscape:clip-to-page="false"><inkscape:page
       x="0"
       y="0"
       width="1158.5826"
       height="901.81934"
       id="page2"
       margin="0"
       bleed="0" /><inkscape:page
       x="1168.5828"
       y="220.06401"
       width="537.41998"
       height="635.15997"
       id="page3"
       margin="0"
       bleed="0" /></sodipodi:namedview><g
     id="g27"
     transform="matrix(0.69002803,0,0,0.69002803,429.96526,285.01115)"><g
       id="g26"
       transform="matrix(-3.2204977,0,0,3.2204977,6551.4836,-1093.2045)"><path
         d="m 2041.3735,215.1487 c 67.931,0 123,55.06897 123,123 0,67.93103 -55.069,123 -123,123 -67.9311,0 -161.945,-67.3513 -123,-123 38.9449,-55.6487 55.0689,-123 123,-123 z"
         fill="#f2f2f2"
         id="path11-2"
         style="display:inline" /><path
         d="m 2206,221 c -1.103,0 -2,0.89697 -2,2 v 64 c 0,1.10303 0.897,2 2,2 1.103,0 2,-0.89697 2,-2 v -64 c 0,-1.10303 -0.897,-2 -2,-2 z"
         fill="#3f3d56"
         id="path12-2"
         style="fill:#1971c2;fill-opacity:1" /><path
         d="m 1987.5942,329.85768 h -69.2207 v -2 h 69.2207 c 6.0131,0 10.9052,-4.89258 10.9052,-10.90625 V 270.1487 h 2 v 46.80273 c 0,7.11621 -5.789,12.90625 -12.9052,12.90625 z"
         fill="#6c63ff"
         id="path19-8"
         style="fill:#1971c2;fill-opacity:1" /><rect
         x="1962.2372"
         y="431.31277"
         width="157.43605"
         height="2"
         fill="#6c63ff"
         id="rect19"
         style="fill:#1971c2;fill-opacity:1" /><g
         id="g25"
         transform="translate(1845.2182,61.01833)"><path
           d="m 374.34299,255.466 h -84.0918 c -4.53809,0 -8.22998,-3.69189 -8.22998,-8.22998 V 164.1701 c 0,-4.53809 3.69189,-8.22998 8.22998,-8.22998 h 84.0918 c 4.53809,0 8.22998,3.69189 8.22998,8.22998 v 83.06592 c 0,4.53809 -3.69189,8.22998 -8.22998,8.22998 z"
           fill="#e6e6e6"
           id="path20-3" /><path
           d="m 305.91171,158.39219 c -11.84012,0 -21.43842,9.5983 -21.43842,21.43842 v 65.64299 c 0,4.16435 3.37589,7.54022 7.54022,7.54022 h 51.41989 c 20.26184,0 36.68732,-16.42548 36.68732,-36.68733 V 165.9324 c 0,-4.16435 -3.37589,-7.54022 -7.54022,-7.54022 h -66.66879 v 2e-5 z"
           fill="#ffffff"
           id="path21-1" /><g
           id="g24"><path
             d="m 354.81924,182.53161 h -45.22061 c -0.86273,0 -1.5647,-0.702 -1.5647,-1.56471 0,-0.86271 0.702,-1.56439 1.5647,-1.56439 h 45.22061 c 0.86273,0 1.56439,0.70166 1.56439,1.56439 0,0.86273 -0.70166,1.56471 -1.56439,1.56471 z"
             fill="#e6e6e6"
             id="path22" /><path
             d="m 354.81924,215.89521 h -45.22061 c -0.86273,0 -1.5647,-0.702 -1.5647,-1.56471 0,-0.86271 0.702,-1.56439 1.5647,-1.56439 h 45.22061 c 0.86273,0 1.56439,0.70166 1.56439,1.56439 0,0.86273 -0.70166,1.56471 -1.56439,1.56471 z"
             fill="#e6e6e6"
             id="path23" /><path
             d="m 373.1824,199.22434 h -81.9469 c -0.86273,0 -1.5647,-0.702 -1.5647,-1.56471 0,-0.86271 0.702,-1.56439 1.5647,-1.56439 h 81.9469 c 0.86273,0 1.56439,0.70166 1.56439,1.56439 0,0.86273 -0.70166,1.56471 -1.56439,1.56471 z"
             fill="#e6e6e6"
             id="path24" /></g><path
           d="m 374.01913,229.46084 h -29.60361 c -0.86273,0 -1.5647,-0.702 -1.5647,-1.56471 0,-0.86271 0.702,-1.56439 1.5647,-1.56439 h 29.60361 c 0.86273,0 1.56439,0.70166 1.56439,1.56439 0,0.86273 -0.70166,1.56471 -1.56439,1.56471 z"
           fill="#e6e6e6"
           id="path25" /></g><g
         id="g31"
         transform="translate(1845.2182,61.01833)"><path
           d="m 291.68485,437.65725 h -66.77454 c -3.60355,0 -6.53516,-2.93161 -6.53516,-6.53516 v -65.95993 c 0,-3.60355 2.93161,-6.53516 6.53516,-6.53516 h 66.77457 c 3.60355,0 6.53516,2.93161 6.53516,6.53516 v 65.95993 c 0,3.60355 -2.93161,6.53516 -6.53516,6.53516 h -2e-5 z"
           fill="#e6e6e6"
           id="path26" /><path
           d="m 237.34582,360.57409 c -9.40184,0 -17.02355,7.6217 -17.02355,17.02356 v 52.12497 c 0,3.30679 2.68067,5.98746 5.98745,5.98746 h 40.83086 c 16.08928,0 29.13222,-13.04294 29.13222,-29.1322 v -40.0163 c 0,-3.30679 -2.68066,-5.98746 -5.98746,-5.98746 h -52.93953 l 2e-5,-3e-5 z"
           fill="#ffffff"
           id="path27" /><g
           id="g30"
           transform="translate(93.973581,16.686898)"><path
             d="m 182.20811,363.05549 h -35.9082 c -0.68506,0 -1.24249,-0.55743 -1.24249,-1.24249 0,-0.68506 0.55742,-1.24222 1.24249,-1.24222 h 35.9082 c 0.68506,0 1.24223,0.55716 1.24223,1.24222 0,0.68506 -0.55717,1.24249 -1.24223,1.24249 z"
             fill="#e6e6e6"
             id="path28" /><path
             d="m 182.20811,389.54847 h -35.9082 c -0.68506,0 -1.24249,-0.55743 -1.24249,-1.24249 0,-0.68506 0.55742,-1.24222 1.24249,-1.24222 h 35.9082 c 0.68506,0 1.24223,0.55716 1.24223,1.24222 0,0.68506 -0.55717,1.24249 -1.24223,1.24249 z"
             fill="#e6e6e6"
             id="path29" /><path
             d="m 196.78969,376.31068 h -65.07135 c -0.68506,0 -1.24249,-0.55743 -1.24249,-1.24249 0,-0.68506 0.55742,-1.24222 1.24249,-1.24222 h 65.07135 c 0.68506,0 1.24223,0.55716 1.24223,1.24222 0,0.68506 -0.55717,1.24249 -1.24223,1.24249 z"
             fill="#e6e6e6"
             id="path30" /></g><path
           d="m 291.42768,417.00738 h -23.50725 c -0.68506,0 -1.24249,-0.55743 -1.24249,-1.24249 0,-0.68506 0.55742,-1.24222 1.24249,-1.24222 h 23.50725 c 0.68506,0 1.24223,0.55716 1.24223,1.24222 0,0.68506 -0.55717,1.24249 -1.24223,1.24249 z"
           fill="#e6e6e6"
           id="path31" /></g><g
         id="g37"
         transform="translate(1845.2182,61.01833)"><path
           d="m 151.04003,208.62567 h -49.3827 c -2.66499,0 -4.83304,-2.16805 -4.83304,-4.83303 v -48.78026 c 0,-2.66498 2.16805,-4.83303 4.83303,-4.83303 h 49.38271 c 2.66498,0 4.83303,2.16805 4.83303,4.83303 v 48.78026 c 0,2.66498 -2.16805,4.83303 -4.83303,4.83303 h -1e-5 z"
           fill="#e6e6e6"
           id="path32" /><path
           d="m 110.85394,151.6193 c -6.95307,0 -12.58966,5.63658 -12.58966,12.58967 v 38.5487 c 0,2.44552 1.98247,4.42799 4.42798,4.42799 h 30.19621 c 11.89873,0 21.54455,-9.64582 21.54455,-21.54454 v -29.5938 c 0,-2.44552 -1.98247,-4.42799 -4.42799,-4.42799 h -39.1511 v -2e-5 z"
           fill="#ffffff"
           id="path33" /><g
           id="g36"><path
             d="m 139.57477,165.7951 h -26.55569 c -0.50663,0 -0.91888,-0.41225 -0.91888,-0.91888 0,-0.50663 0.41224,-0.91867 0.91888,-0.91867 h 26.55569 c 0.50663,0 0.91869,0.41204 0.91869,0.91867 0,0.50663 -0.41206,0.91888 -0.91869,0.91888 z"
             fill="#e6e6e6"
             id="path34" /><path
             d="m 139.57477,185.38782 h -26.55569 c -0.50663,0 -0.91888,-0.41225 -0.91888,-0.91888 0,-0.50663 0.41224,-0.91867 0.91888,-0.91867 h 26.55569 c 0.50663,0 0.91869,0.41204 0.91869,0.91867 0,0.50663 -0.41206,0.91888 -0.91869,0.91888 z"
             fill="#e6e6e6"
             id="path35" /><path
             d="m 150.35848,175.59789 h -48.12311 c -0.50663,0 -0.91888,-0.41225 -0.91888,-0.91888 0,-0.50663 0.41224,-0.91867 0.91888,-0.91867 h 48.12311 c 0.50663,0 0.91869,0.41204 0.91869,0.91867 0,0.50663 -0.41206,0.91888 -0.91869,0.91888 z"
             fill="#e6e6e6"
             id="path36" /></g><path
           d="M 150.84984,193.35418 H 133.4652 c -0.50663,0 -0.91888,-0.41225 -0.91888,-0.91888 0,-0.50663 0.41224,-0.91867 0.91888,-0.91867 h 17.38464 c 0.50663,0 0.91869,0.41204 0.91869,0.91867 0,0.50663 -0.41206,0.91888 -0.91869,0.91888 z"
           fill="#e6e6e6"
           id="path37" /></g><circle
         cx="2140.3735"
         cy="321.14871"
         r="10"
         fill="#6c63ff"
         id="circle37"
         style="fill:#1971c2;fill-opacity:1" /><circle
         cx="1999.3734"
         cy="270.14868"
         r="10"
         fill="#6c63ff"
         id="circle38"
         style="fill:#1971c2;fill-opacity:1" /><circle
         cx="2047.3734"
         cy="407.14871"
         r="10"
         fill="#6c63ff"
         id="circle39"
         style="fill:#1971c2;fill-opacity:1" /><rect
         x="2031.6233"
         y="216.98871"
         width="2"
         height="95"
         fill="#e6e6e6"
         id="rect44" /><circle
         cx="2032.6233"
         cy="311.98871"
         r="6.00001"
         fill="#e6e6e6"
         id="circle44" /><circle
         cx="2123.6233"
         cy="380.98874"
         r="6"
         fill="#e6e6e6"
         id="circle45" /><circle
         cx="1961.6233"
         cy="298.98871"
         r="6"
         fill="#e6e6e6"
         id="circle46" /><rect
         x="1916.6333"
         y="358.15173"
         width="32.827869"
         height="2.0009201"
         transform="rotate(-1.73401)"
         fill="#e6e6e6"
         id="rect46" /><polygon
         points="279.4603,340.94012 327.21616,340.94012 327.21616,342.94012 277.4603,342.94012 277.4603,319.97039 279.4603,319.97039 "
         fill="#e6e6e6"
         id="polygon46"
         transform="translate(1845.2182,61.01833)" /><circle
         cx="1959.1605"
         cy="364.50388"
         r="6"
         fill="#e6e6e6"
         id="circle47" /><polygon
         points="114.40511,324.45526 162.16098,324.45526 162.16098,326.45526 112.40511,326.45526 112.40511,303.48553 114.40511,303.48553 "
         fill="#e6e6e6"
         id="polygon47"
         transform="translate(1845.2182,61.01833)" /><rect
         x="1920.6409"
         y="341.67331"
         width="238.98244"
         height="2"
         fill="#e6e6e6"
         id="rect47" /></g></g><g
     id="g20"
     transform="matrix(0.88016041,0,0,1,370.57523,220.31401)"><polygon
       points="510.78694,278.13271 519.29088,191.27409 597.78694,181.75476 644.29875,251.13271 "
       fill="#ffb6b6"
       id="polygon1"
       style="display:inline" /><polygon
       points="597.78694,181.75476 644.29875,251.13271 510.78694,278.13271 519.29088,191.27409 "
       opacity="0.1"
       id="polygon2"
       style="display:inline" /></g><path
     style="fill:#e6e6e6;fill-opacity:1;stroke:none;stroke-width:2.5"
     d="m 1011.894,482.19682 -37.11821,-20.39068 -35.62318,-13.95194 -23.60237,0.89731 -94.79074,3.90533 c 0,0 -54.89676,18.34467 -54.58426,18.59467 0.3125,0.25 -0.26111,99.89102 -0.26111,99.89102 l 15.20279,100.40916 -19.09188,65.76093 200.11122,2.47487 V 607.20497 l 47.72974,-65.76093 z"
     id="path20"
     sodipodi:nodetypes="cccccsccccccc" /><polygon
     points="448.78694,252.13271 500.78694,233.13271 644.78694,227.13271 708.78694,262.13271 705.78694,487.13271 772.78694,614.13271 434.78694,550.13271 460.78694,454.13271 "
     fill="#6c63ff"
     id="polygon3"
     style="display:none;fill:#e6e6e6"
     inkscape:label="polygon3"
     transform="translate(303.11274,220.06401)" /><path
     d="m 306.99081,890.29963 c -4.5973,-7.24667 -5.14023,-16.20053 -1.45205,-23.95072 l 54.80692,-115.15585 c 4.0904,-8.59445 12.88363,-14.14749 22.40161,-14.14749 h 692.25411 c 9.2531,0 17.6716,5.09022 21.9693,13.28457 l 58.7456,111.9822 c 4.0607,7.74086 3.7933,16.83204 -0.7146,24.32114 -4.5079,7.48825 -12.417,11.97917 -21.1573,12.01393 l -805.80654,3.17195 h -0.10087 c -8.54232,0 -16.36752,-4.30104 -20.94617,-11.51974 z m 75.75648,-150.65004 c -8.51901,0 -16.38914,4.9707 -20.05019,12.66239 l -54.80692,115.15585 c -3.30122,6.93643 -2.81551,14.95023 1.29947,21.4374 4.09845,6.46089 11.10142,10.31012 18.74776,10.31012 h 0.0903 l 805.80661,-3.17195 c 7.8226,-0.0305 14.9019,-4.05098 18.9363,-10.75345 4.0349,-6.70247 4.274,-14.84003 0.64,-21.76714 l -58.7455,-111.9839 c -3.8472,-7.33313 -11.3816,-11.88932 -19.6637,-11.88932 H 382.7473 Z"
     fill="#3f3d56"
     id="path4" /><path
     d="m 502.35539,605.94631 c 9.04537,3.62236 17.09164,9.35828 23.46563,16.72787 l 0.40598,0.17512 0.16901,-0.40539 87.94686,32.12243 93.90282,-152.04197 51.91219,32.17336 -108.87774,174.59479 c -6.09203,12.33596 -21.11694,17.27772 -33.34212,10.96636 l -108.96609,-56.025 0.56899,-1.36465 -0.38237,-0.18842 c -9.72393,0.66821 -19.46642,-1.00253 -28.41198,-4.87241 -22.50848,-9.3709 -35.91835,-28.58053 -29.95231,-42.90414 5.96598,-14.32351 29.04589,-18.33523 51.56115,-8.95792 z"
     fill="#ffb6b6"
     id="path12"
     inkscape:label="left" /><path
     d="m 932.89968,504.19672 79.00002,-22 c 0,0 42.6545,25.59321 47.6545,58.59321 0.2973,1.96238 -1.4507,43.38127 -3.491,84.90383 -2.0404,41.52256 -4.6163,83.07322 -5.2453,85.52583 -47.8362,186.51517 -117.96192,-44.82224 -117.96192,-44.82224 z"
     fill="#6c63ff"
     id="path10"
     style="display:inline;fill:#e6e6e6"
     sodipodi:nodetypes="ccssscc"
     inkscape:label="right shirt" /><path
     d="M 794.54741,520.44792 767.4452,467.86288 c 0,0 -49.42467,9.78272 -69.78432,36.2305 -2.54495,3.30597 -89.96333,130.0895 -90.52652,135.62245 -3.94234,38.7307 66.22252,47.93043 66.22252,47.93043 z"
     fill="#6c63ff"
     id="path13"
     style="fill:#e6e6e6"
     inkscape:label="left shirt"
     sodipodi:nodetypes="ccsscc" /><path
     style="display:inline;fill:#2f2e43;fill-opacity:1;stroke:none;stroke-width:2.5"
     d="m 804.57566,452.73301 -35.86573,13.25987 -3.91421,97.27238 12.34994,109.33996 -21.59949,64.33816 247.61453,0.70711 -26.94062,-130.62119 7.70462,-140.21369 -36.07391,-20.00137 -22.32391,1.17897 -49.31364,88.82719 -53.79891,-84.36238 z"
     id="path17"
     sodipodi:nodetypes="ccccccccccccc"
     inkscape:label="vest" /><path
     d="m 306.99081,890.29963 c -4.5973,-7.24667 -5.14023,-16.20053 -1.45205,-23.95072 l 54.80692,-115.15585 c 4.0904,-8.59445 12.88363,-14.14749 22.40161,-14.14749 h 692.25411 c 9.2531,0 17.6716,5.09022 21.9693,13.28457 l 58.7456,111.9822 c 4.0607,7.74086 3.7933,16.83204 -0.7146,24.32114 -4.5079,7.48825 -12.417,11.97917 -21.1573,12.01393 l -805.80654,3.17195 h -0.10087 c -8.54232,0 -16.36752,-4.30104 -20.94617,-11.51974 z"
     fill="#fff"
     id="path3"
     inkscape:label="table"
     style="fill:#e6e6e6;fill-opacity:1" /><path
     d="m 869.65781,696.85355 c 9.57552,1.80268 18.58002,5.87235 26.26015,11.86853 l 0.43221,0.0932 0.0873,-0.43044 97.69723,16.65327 -0.5798,-35.36343 c 11.6217,12.87967 42.1508,29.55613 56.5438,24.62233 l -14.3262,55.11623 c -3.5886,13.28197 -17.3725,21.03901 -30.5883,17.2138 l -117.7508,-33.86962 0.29404,-1.44899 -0.41161,-0.11083 c -9.41061,2.53809 -19.29222,2.78507 -28.81774,0.72023 -23.89682,-4.83605 -40.77191,-21.08616 -37.69175,-36.29379 3.08013,-15.20752 24.94674,-23.61153 48.85145,-18.77051 z"
     fill="#ffb6b6"
     id="path9"
     style="display:inline"
     inkscape:label="right"
     sodipodi:nodetypes="sccccccccccccsss" /><g
     id="g15"
     style="display:inline"
     inkscape:label="laptop"
     transform="translate(303.11274,220.06401)"><path
       d="m 287.12239,612.72158 -8.18994,-7.01953 h -4.9e-4 c -1.21924,-1.0459 -2.70166,-1.73828 -4.28711,-2.00293 L 92.16194,573.28506 c -4.16504,-0.69434 -7.2417,-3.70215 -8.02979,-7.85059 -0.7876,-4.14844 0.97217,-8.0752 4.59326,-10.24805 l 65.10156,-39.06055 c 2.17578,-1.30566 4.73633,-1.7168 7.21338,-1.15723 l 231.37354,52.27344 c 4.49805,1.01563 7.5,4.65039 7.64746,9.25977 0.14746,4.60938 -2.61621,8.42871 -7.04102,9.73047 l -96.74072,28.45312 c -0.91797,0.27051 -1.854,0.40234 -2.78223,0.40234 -2.30908,0 -4.56885,-0.81738 -6.375,-2.36621 z"
       fill="#3f3d56"
       id="path11" /><path
       d="M 282.60237,614.58779 73.42073,585.67568 c -7.00098,-0.9668 -12.7793,-5.9834 -14.72168,-12.7793 L 10.6556,404.74404 c -1.62793,-5.69922 -0.4126,-11.60059 3.33447,-16.19238 3.74707,-4.59179 9.2832,-6.96484 15.19482,-6.51367 l 210.75049,16.14648 c 7.62451,0.58398 14.0249,5.95313 15.92773,13.35938 l 46.47412,180.91797 c 1.48291,5.77344 0,11.87598 -3.96777,16.32422 -3.4165,3.83105 -8.26123,5.9707 -13.31152,5.9707 -0.81445,0 -1.63525,-0.0557 -2.45557,-0.16895 z"
       fill="#3f3d56"
       id="path14" /></g><ellipse
     cx="-862.45831"
     cy="343.91925"
     fill="#ffb8b8"
     id="circle16-0"
     transform="scale(-1,1)"
     style="fill:#ffb6b6;fill-opacity:1;stroke-width:2.82521"
     rx="83.720238"
     ry="79.924065" /><path
     d="m 957.42053,291.40381 c -9.40092,-13.88426 -27.04214,-23.1378 -44.14407,-20.53749 a 60.28256,57.549134 0 0 0 -101.00626,-33.5669 18.745395,17.895412 0 0 0 -18.33169,-1.75143 38.651739,36.899131 0 0 0 -14.89317,11.41244 86.747408,82.813971 0 0 0 -12.13834,84.24866 c -2.09028,-7.25371 5.52455,-14.07778 13.21832,-15.70554 7.69326,-1.62774 15.76351,-0.0878 23.56543,-1.14779 9.99977,-1.35832 18.98837,-6.89615 29.00376,-8.14246 8.41723,-1.04742 16.88161,1.01276 25.08977,3.07787 8.20819,2.06479 16.65087,4.17069 25.07996,3.2152 8.42967,-0.95552 19.28763,29.54096 19.14191,51.02075 -0.029,4.07059 0.85069,9.29686 5.01766,10.16046 5.13159,1.06374 8.10525,-5.69773 12.98961,-7.5401 a 9.0362833,8.6265459 0 0 1 11.08351,5.62661 14.732331,14.064315 0 0 1 -2.81287,12.5945 43.533966,41.559981 0 0 1 -10.55465,8.74073 l 2.01163,1.59721 c 3.34608,4.22009 10.28689,4.40287 15.10997,1.79204 a 32.611656,31.132927 0 0 0 10.849,-11.7925 c 8.92268,-14.16811 16.74975,-29.26405 19.89862,-45.52032 3.14917,-16.25628 1.22197,-33.89772 -8.1781,-47.78194 z"
     fill="#2f2e41"
     id="path17-2"
     style="stroke-width:2.82521" /><path
     d="m 928.01717,376.31503 a 5.7830545,5.5208302 0 1 0 -9.6577,4.39658 l -9.71987,15.24831 a 2.8915408,2.7604281 0 0 0 4.94017,2.87004 l 10.92853,-17.14493 a 5.7672957,5.5057859 0 0 0 3.50887,-5.37 z"
     fill="#ffffff"
     id="path27-1"
     style="stroke-width:2.82521" /><rect
     x="992.97168"
     y="49.858555"
     width="2.8654258"
     height="8.3625011"
     rx="1.4327129"
     transform="matrix(0.90100717,0.43380419,0.46711189,-0.88419821,0,0)"
     fill="#2f2e41"
     id="rect27-5"
     style="stroke-width:2.8262" /><path
     style="fill:#e6e6e6;fill-opacity:1;stroke:none;stroke-width:2.5"
     d="m 1059.5421,540.95334 -1.938,174.6966 c 0,0 -26.8431,6.34997 -45.0271,-1.44317 -18.18394,-7.79314 -24.53391,-22.51351 -24.53391,-22.51351 l -11.54539,-84.57 z"
     id="path18" /><circle
     style="fill:#2b2b3f;fill-opacity:1;stroke:none;stroke-width:2.5"
     id="path19"
     cx="878.11273"
     cy="565.43903"
     r="8" /><circle
     style="fill:#2b2b3f;fill-opacity:1;stroke:none;stroke-width:2.5"
     id="path19-6"
     cx="877.11273"
     cy="615.56403"
     r="8" /><circle
     style="fill:#2b2b3f;fill-opacity:1;stroke:none;stroke-width:2.5"
     id="path19-6-0"
     cx="876.11273"
     cy="670.81403"
     r="8" /><path
     style="fill:#262637;fill-opacity:1;stroke:none;stroke-width:0.495447"
     d="m 862.12391,448.66365 c 0,0 -14.24934,-10.71771 -22.00889,-12.10962 -7.75957,-1.39191 -14.74317,-4.03654 -16.08346,-3.41018 -1.34028,0.62636 -2.68056,5.63724 -2.75111,6.95955 -0.0706,1.32232 -1.48137,17.95564 -0.98757,21.22664 0.49379,3.27099 0.77596,13.8495 2.04568,15.72858 1.26976,1.87907 0.9876,2.71423 2.61005,2.43585 1.62245,-0.27839 5.14952,-0.97435 8.39442,-1.80949 3.2449,-0.83514 19.11672,-6.95955 23.77246,-10.09135 4.65573,-3.1318 4.4441,-4.52371 4.9379,-3.89735 0.4938,0.62636 0.42324,1.18312 1.26975,1.6703 0.84648,0.48717 1.41082,0.69595 1.41082,0.69595 0,0 11.49824,-0.0696 11.92148,-0.0696 0.42326,0 0.8465,-0.55676 0.98759,-0.90474 0.14108,-0.34798 0.70541,-1.73989 0.70541,-1.73989 0,0 0.77595,0.41758 0.84651,0.69596 0.0706,0.27837 4.72626,2.9926 5.00844,3.41018 0.28216,0.41757 7.90063,4.38452 8.88821,4.87168 0.98758,0.48717 7.54793,3.2014 9.52309,3.82775 1.97516,0.62637 8.04172,2.01828 9.17038,2.36625 1.12866,0.34798 4.0914,0.76556 4.58518,0.76556 0.4938,0 1.693,-1.25272 1.693,-1.25272 0,0 1.05813,-3.61897 1.1992,-4.10613 0.14108,-0.48718 1.41084,-12.10963 1.34029,-13.29275 -0.0705,-1.18313 -0.14109,-12.87518 -0.14109,-14.47588 0,-1.60068 -0.7054,-9.2562 -1.62243,-10.57852 -0.91705,-1.3223 -1.34028,-2.22705 -1.83408,-2.36623 -0.49379,-0.1392 -1.12867,-0.27839 -1.76355,-0.1392 -0.63486,0.1392 -3.17437,0.62636 -4.65573,1.18313 -1.48137,0.55675 -9.52309,2.29665 -9.52309,2.29665 0,0 -9.52309,3.75815 -10.58121,4.38451 -1.05812,0.62636 -4.51465,2.71423 -5.7844,3.68857 -1.26972,0.97434 -4.37356,3.0622 -4.72626,3.34057 -0.35271,0.27839 -0.91703,1.04394 -1.19921,0.76556 -0.28217,-0.27838 0.1411,-0.83514 -0.56433,-1.67029 -0.70542,-0.83514 -1.693,-0.83514 -1.97516,-0.83514 -0.28217,0 -3.80923,-0.0696 -4.58517,-0.0696 -0.77596,0 -6.20766,-0.0696 -6.20766,-0.0696 l -1.76354,0.27838 -0.91704,1.04393 z"
     id="path21" /></svg>
