<?xml version="1.0" encoding="UTF-8" standalone="no"?>
<svg
   data-name="Layer 1"
   width="655.27173"
   height="556.25"
   viewBox="0 0 655.27173 556.25"
   version="1.1"
   id="svg23"
   sodipodi:docname="poker.svg"
   inkscape:version="1.3.2 (091e20e, 2023-11-25, custom)"
   xmlns:inkscape="http://www.inkscape.org/namespaces/inkscape"
   xmlns:sodipodi="http://sodipodi.sourceforge.net/DTD/sodipodi-0.dtd"
   xmlns="http://www.w3.org/2000/svg"
   xmlns:svg="http://www.w3.org/2000/svg">
  <defs
     id="defs23" />
  <sodipodi:namedview
     id="namedview23"
     pagecolor="#505050"
     bordercolor="#ffffff"
     borderopacity="1"
     inkscape:showpageshadow="0"
     inkscape:pageopacity="0"
     inkscape:pagecheckerboard="1"
     inkscape:deskcolor="#505050"
     inkscape:zoom="0.70710678"
     inkscape:cx="451.84123"
     inkscape:cy="242.53762"
     inkscape:window-width="2560"
     inkscape:window-height="1377"
     inkscape:window-x="4912"
     inkscape:window-y="203"
     inkscape:window-maximized="1"
     inkscape:current-layer="svg23" />
  <path
     d="M830.688,362.53653c7.01074,13.78357,12.536,28,28,28a28,28,0,0,0,0-56C842.97217,334.33975,817.63916,336.88113,830.688,362.53653Z"
     transform="translate(-272.36413 -171.875)"
     fill="#2f2e41"
     id="path1" />
  <polygon
     points="580.332 527.399 568.366 530.065 552.386 485.179 570.047 481.243 580.332 527.399"
     fill="#a0616a"
     id="polygon1"
     style="fill:#d40000" />
  <path
     d="M858.33323,710.19322l-38.58409,8.59828-.10877-.488a15.386,15.386,0,0,1,11.67075-18.365l.001-.00022,23.56577-5.25143Z"
     transform="translate(-272.36413 -171.875)"
     fill="#2f2e41"
     id="path2" />
  <polygon
     points="615.88 543.442 603.62 543.442 597.787 496.154 615.882 496.155 615.88 543.442"
     fill="#a0616a"
     id="polygon2" />
  <path
     d="M891.3702,727.20159l-39.53051-.00147v-.5a15.38605,15.38605,0,0,1,15.38647-15.38623h.001l24.1438.001Z"
     transform="translate(-272.36413 -171.875)"
     fill="#2f2e41"
     id="path3" />
  <path
     d="M888.32544,690.53653H872.67822a4.51721,4.51721,0,0,1-4.45849-3.89063l-14.1836-109.71679a1.5,1.5,0,0,0-2.93481-.18457l-8.40576,31.3291,7.5769,71.35156a4.49586,4.49586,0,0,1-3.45825,4.90332l-12.41162,2.86426a4.52171,4.52171,0,0,1-5.30347-3.03125l-19.98779-69.36621a39.109,39.109,0,0,1-1.62695-15.74707l6.25341-62.53418.47437.02344,83.49267,4.02343-4.88208,145.63282A4.48341,4.48341,0,0,1,888.32544,690.53653Z"
     transform="translate(-272.36413 -171.875)"
     fill="#2f2e41"
     id="path4" />
  <circle
     cx="584.9459"
     cy="194.64578"
     r="24.56103"
     fill="#a0616a"
     id="circle4" />
  <path
     d="M895.83472,547.29629c-.08081,0-.16187-.00195-.24341-.00683l-83.24609-4.47559a4.49852,4.49852,0,0,1-4.04175-5.87207l6.58862-20.459a132.35831,132.35831,0,0,0,3.49658-67.876,42.3621,42.3621,0,0,1,7.52515-34.14453,41.73425,41.73425,0,0,1,30.15967-16.64648h.00024q.61158-.04835,1.2273-.08594a42.1719,42.1719,0,0,1,44.19433,48.35058l-5.80444,38.97266,4.62744,57.38184a4.49963,4.49963,0,0,1-4.48364,4.86132Z"
     transform="translate(-272.36413 -171.875)"
     fill="#ccc"
     id="path5" />
  <path
     d="M793.3985,552.47593a10.05576,10.05576,0,0,0,1.57-15.33919l16.02843-31.93852L792.556,507.38181l-12.39368,29.99458a10.11027,10.11027,0,0,0,13.23614,15.09954Z"
     transform="translate(-272.36413 -171.875)"
     fill="#a0616a"
     id="path6" />
  <path
     d="M903.43379,557.68069a10.05577,10.05577,0,0,1,1.01549-15.38585l-10.46566-34.168,17.81664,5.2346,7.20688,31.644a10.11027,10.11027,0,0,1-15.57335,12.67526Z"
     transform="translate(-272.36413 -171.875)"
     fill="#a0616a"
     id="path7" />
  <path
     d="M901.70142,539.78165a4.47685,4.47685,0,0,1-4.45533-3.90918l-8.32763-62.82325-13.28589-49.09277a14.18778,14.18778,0,0,1,13.34692-17.88867h0a14.24365,14.24365,0,0,1,14.33374,11.7959L923.10767,533.808a4.50073,4.50073,0,0,1-4.2461,5.25293l-16.9646.7168C901.83154,539.77969,901.76636,539.78165,901.70142,539.78165Z"
     transform="translate(-272.36413 -171.875)"
     fill="#ccc"
     id="path8" />
  <path
     d="M802.322,532.726a4.60027,4.60027,0,0,1-.95752-.10156l-16.6062-3.541a4.49992,4.49992,0,0,1-3.30835-5.88867L820.3418,412.18887a14.26531,14.26531,0,0,1,16.10376-9.23535h0a14.18889,14.18889,0,0,1,10.16968,19.86817l-21.32666,46.24316-18.6858,60.4873A4.47424,4.47424,0,0,1,802.322,532.726Z"
     transform="translate(-272.36413 -171.875)"
     fill="#ccc"
     id="path9" />
  <path
     d="M831.24694,352.64019A33.40494,33.40494,0,0,0,850.33762,358.54a20.47093,20.47093,0,0,1-8.11361,3.338,67.35875,67.35875,0,0,0,27.514.1546,17.80736,17.80736,0,0,0,5.75978-1.97824,7.28919,7.28919,0,0,0,3.55521-4.7547c.60365-3.44852-2.08348-6.58157-4.876-8.69308a35.96737,35.96737,0,0,0-30.22447-6.03968c-3.37626.87272-6.75852,2.34726-8.9515,5.05866s-2.84257,6.8915-.75322,9.68353Z"
     transform="translate(-272.36413 -171.875)"
     fill="#2f2e41"
     id="path10" />
  <path
     d="M703.08435,171.875h-422a8.72772,8.72772,0,0,0-8.72022,8.72v411.32a8.72777,8.72777,0,0,0,8.72022,8.72h37v-2.49h-37a6.23726,6.23726,0,0,1-6.23-6.23V180.595a6.23724,6.23724,0,0,1,6.23-6.23h422a6.23974,6.23974,0,0,1,6.24023,6.23v411.32a6.17925,6.17925,0,0,1-1.03027,3.42,6.446,6.446,0,0,1-2.35986,2.12,6.18583,6.18583,0,0,1-2.8501.69h-37v2.49h37a8.71218,8.71218,0,0,0,6.62988-3.06,1.94636,1.94636,0,0,0,.18994-.24,8.15272,8.15272,0,0,0,1.25-2.11,8.49852,8.49852,0,0,0,.66016-3.31V180.595A8.7298,8.7298,0,0,0,703.08435,171.875Z"
     transform="translate(-272.36413 -171.875)"
     fill="#3f3d56"
     id="path11" />
  <rect
     x="1.24228"
     y="34.95306"
     width="436.95676"
     height="2.49281"
     fill="#3f3d56"
     id="rect11" />
  <g
     id="g23"
     transform="translate(349.94725,4.9054337e-4)"
     inkscape:label="toprightbuttons">
    <circle
       cx="43.931702"
       cy="18.699949"
       r="7.4784398"
       fill="#3f3d56"
       id="circle12" />
    <circle
       cx="22.43119"
       cy="18.699949"
       r="7.4784398"
       fill="#3f3d56"
       id="circle11" />
    <circle
       fill="#3f3d56"
       id="circle13"
       r="7.4784398"
       cy="18.699949"
       cx="65.432198" />
  </g>
  <path
     d="M 132.02383,27.222 H 21.023828 a 8,8 0 1 1 0,-16 H 132.02383 a 8,8 0 0 1 0,16 z"
     fill="#1971c2"
     id="path15-8"
     style="fill:#3f3d56;fill-opacity:1" />
  <path
     d="M926.63587,728.125h-140a1,1,0,0,1,0-2h140a1,1,0,1,1,0,2Z"
     transform="translate(-272.36413 -171.875)"
     fill="#3f3d56"
     id="path23" />
  <g
     id="g27"
     style="display:inline">
    <rect
       style="fill:#cccccc;fill-opacity:1;stroke:#3f3d56;stroke-width:2.5;stroke-opacity:1;stroke-dasharray:none"
       id="rect13"
       width="374.00003"
       height="147"
       x="35.25"
       y="136.00003"
       rx="25.000004"
       ry="25" />
    <path
       d="M 181.49412,171.77494 H 70.494123 a 8,8 0 1 1 0,-16 H 181.49412 a 8,8 0 0 1 0,16 z"
       fill="#1971c2"
       id="path15" />
    <path
       d="M 125.32199,187.42834 H 66.717845 a 4.2237224,5.3356264 0 1 1 0,-10.67125 h 58.604145 a 4.2237224,5.3356264 0 0 1 0,10.67125 z"
       fill="#1971c2"
       id="path24"
       style="stroke-width:0.593404" />
    <rect
       style="fill:#838383;fill-opacity:1"
       id="rect24"
       width="35"
       height="35"
       x="340"
       y="155.77499"
       ry="10"
       rx="10" />
    <rect
       style="fill:#838383;fill-opacity:1"
       id="rect25"
       width="35"
       height="35"
       x="296.86649"
       y="155.77499"
       ry="10"
       rx="10" />
    <path
       d="M 151.94487,261.25 H 68.513099 a 6.0131004,8 0 1 1 0,-16 h 83.431771 a 6.0131004,8 0 0 1 0,16 z"
       fill="#1971c2"
       id="path15-2-0"
       style="fill:#838383;fill-opacity:1;stroke-width:0.866971" />
    <path
       d="M 262.76827,261.25 H 179.3365 a 6.0131004,8 0 1 1 0,-16 h 83.43177 a 6.0131004,8 0 0 1 0,16 z"
       fill="#1971c2"
       id="path26"
       style="fill:#838383;fill-opacity:1;stroke-width:0.866971" />
    <path
       d="m 374.66021,261.25 h -83.43177 a 6.0131004,8 0 1 1 0,-16 h 83.43177 a 6.0131004,8 0 0 1 0,16 z"
       fill="#1971c2"
       id="path27"
       style="fill:#838383;fill-opacity:1;stroke-width:0.866971" />
  </g>
  <g
     id="g19"
     style="display:inline"
     transform="translate(2.8164199e-6,215.24997)">
    <rect
       style="fill:#cccccc;fill-opacity:1;stroke:#3f3d56;stroke-width:2.5;stroke-dasharray:none;stroke-opacity:1"
       id="rect14"
       width="374.00003"
       height="147"
       x="35.25"
       y="136.00003"
       rx="25.000004"
       ry="25" />
    <path
       d="M 181.49412,171.77494 H 70.494123 a 8,8 0 1 1 0,-16 H 181.49412 a 8,8 0 0 1 0,16 z"
       fill="#1971c2"
       id="path14" />
    <path
       d="M 125.32199,187.42834 H 66.717845 a 4.2237224,5.3356264 0 1 1 0,-10.67125 h 58.604145 a 4.2237224,5.3356264 0 0 1 0,10.67125 z"
       fill="#1971c2"
       id="path16"
       style="stroke-width:0.593404" />
    <rect
       style="fill:#838383;fill-opacity:1"
       id="rect16"
       width="35"
       height="35"
       x="340"
       y="155.77499"
       ry="10"
       rx="10" />
    <rect
       style="fill:#838383;fill-opacity:1"
       id="rect17"
       width="35"
       height="35"
       x="296.86649"
       y="155.77499"
       ry="10"
       rx="10" />
    <path
       d="M 151.94487,261.25 H 68.513099 a 6.0131004,8 0 1 1 0,-16 h 83.431771 a 6.0131004,8 0 0 1 0,16 z"
       fill="#1971c2"
       id="path17"
       style="fill:#838383;fill-opacity:1;stroke-width:0.866971" />
    <path
       d="M 262.76827,261.25 H 179.3365 a 6.0131004,8 0 1 1 0,-16 h 83.43177 a 6.0131004,8 0 0 1 0,16 z"
       fill="#1971c2"
       id="path18"
       style="fill:#838383;fill-opacity:1;stroke-width:0.866971" />
    <path
       d="m 374.66021,261.25 h -83.43177 a 6.0131004,8 0 1 1 0,-16 h 83.43177 a 6.0131004,8 0 0 1 0,16 z"
       fill="#1971c2"
       id="path19"
       style="fill:#838383;fill-opacity:1;stroke-width:0.866971" />
  </g>
  <path
     style="fill:#a2a2a2;fill-opacity:1;stroke:#3f3d56;stroke-width:1.25;stroke-dasharray:none;stroke-opacity:1"
     d="m 2.3896484,37.75 c 0.085896,127.6053 -0.2182002,255.21195 0.2956323,382.81631 0.2463694,3.4194 3.8109518,6.30742 7.2727273,5.57431 8.036206,0.12141 16.190976,0.30418 24.152343,0.10938 0.212892,-18.06255 -0.466626,-36.16037 0.44951,-54.2008 0.828599,-9.41453 8.334679,-17.32114 16.873733,-20.69569 10.415521,-1.6938 21.089826,-0.97455 31.615056,-1.33182 90.33507,-0.28493 180.67151,-0.15167 271.00698,-0.0811 11.96161,0.24511 23.99065,-0.33943 35.90823,0.7381 9.5766,1.94111 17.88835,10.01739 19.75879,19.62109 1.26948,14.31135 0.39879,28.73436 0.667,43.08985 0.076,4.33019 -0.15121,8.78751 0.1123,13.03906 7.65173,-0.41648 15.45389,0.42545 23.0166,-0.95117 3.7718,-1.228 2.74226,-5.90424 2.97895,-8.92568 0.65926,-72.47283 0.35327,-144.95153 0.51096,-217.42686 0.0356,-53.79166 0.0712,-107.58333 0.10677,-161.375 -43.11203,-0.25749 -86.42214,-0.03678 -129.61035,-0.110352 -101.66829,0 -203.33659,0 -305.00488,0 z M 253.34082,134.79297 c 45.58983,0.15408 91.19937,-0.0976 136.77563,0.72237 8.49093,1.58687 15.62284,8.4029 18.76148,16.31083 1.98202,5.81178 0.8392,12.14986 1.34537,18.17763 0.25725,31.15689 0.57551,62.34126 -0.41666,93.48253 -1.8667,11.12123 -12.31313,19.84723 -23.35938,20.65278 -106.08868,-0.12406 -212.17871,0.16526 -318.266435,-0.33209 -5.31693,-0.35428 -10.8307,0.46397 -16.03141,-0.78554 -8.557919,-2.93983 -15.841667,-10.51779 -17.456056,-19.53711 -0.997425,-31.64048 -0.682644,-63.32453 -0.393476,-94.98039 0.427187,-6.98033 -0.927365,-14.6688 3.305586,-20.79304 4.601707,-7.10287 12.478374,-13.24014 21.372851,-12.33317 64.78304,-0.73042 129.57618,-0.54682 194.3625,-0.5848 z"
     id="path20" />
  <path
     style="fill:#d2d2d2;fill-opacity:1;stroke:#3f3d56;stroke-width:1.25;stroke-dasharray:none;stroke-opacity:1"
     d="M 180.05176,2.6035156 C 122.17886,2.7494564 64.29998,2.4924713 6.4316406,3.2304687 3.1713517,4.1626996 2.4196656,7.9801445 2.6531808,10.937219 2.5283254,18.896563 2.3041791,26.975863 2.4550781,34.860351 c 144.8675119,0 289.7350219,0 434.6025319,0 -0.0436,-9.233831 0.25159,-18.713166 -0.55859,-27.9892573 -0.67713,-2.560315 -3.32142,-4.3733922 -5.98828,-3.7207031 -83.48233,-0.71867 -166.97409,-0.4903267 -250.45898,-0.546875 z m -74.3584,8.7597654 c 10.07965,0.263141 20.27017,-0.487349 30.26855,0.9375 3.645,1.152433 4.05775,5.894269 3.54395,9.092773 -0.43004,3.982401 -4.95192,5.930655 -8.56991,5.511326 -37.41487,0.491354 -74.83813,0.116026 -112.256263,0.234768 -3.353536,-1.659065 -6.246124,-5.11247 -5.408203,-9.008789 0.155882,-3.659005 3.363969,-6.898262 7.148438,-6.436523 28.405058,-0.62511 56.855453,-0.209747 85.273438,-0.331055 z m 267.36425,0.05371 c 6.03929,-0.108084 8.96805,8.457076 4.7295,12.474609 -3.59448,3.95977 -10.87417,2.379125 -12.41407,-2.811523 -1.78883,-4.780727 2.43505,-10.462031 7.68457,-9.663086 z m 21.5,0 c 6.03929,-0.108084 8.96805,8.457076 4.7295,12.474609 -3.59448,3.95977 -10.87417,2.379125 -12.41407,-2.811523 -1.78883,-4.780727 2.43505,-10.462031 7.68457,-9.663086 z m 21.5,0 c 6.03929,-0.108084 8.96805,8.457076 4.7295,12.474609 -3.59448,3.95977 -10.87417,2.379125 -12.41407,-2.811523 -1.78883,-4.780727 2.43505,-10.462031 7.68457,-9.663086 z"
     id="path21" />
</svg>
